<?xml version="1.0" standalone="no"?>
<!DOCTYPE svg PUBLIC "-//W3C//DTD SVG 20010904//EN"
 "http://www.w3.org/TR/2001/REC-SVG-20010904/DTD/svg10.dtd">
<svg version="1.0" xmlns="http://www.w3.org/2000/svg"
 width="500.000000pt" height="500.000000pt" viewBox="0 0 500.000000 500.000000"
 preserveAspectRatio="xMidYMid meet">
<metadata>
Created by potrace 1.11, written by Peter Selinger 2001-2013
</metadata>
<g transform="translate(0.000000,500.000000) scale(0.100000,-0.100000)"
fill="#000000" stroke="none">
<path d="M3890 4595 c-30 -8 -77 -16 -105 -19 -27 -4 -61 -8 -75 -11 -14 -3
-52 -8 -85 -11 -33 -2 -65 -7 -71 -9 -56 -18 -674 -27 -904 -12 -426 27 -700
28 -885 1 -235 -34 -466 -154 -632 -326 -58 -61 -66 -66 -144 -87 -241 -66
-424 -170 -597 -339 -140 -135 -179 -203 -218 -371 -27 -115 -36 -317 -21
-481 17 -191 66 -353 117 -390 17 -12 16 -16 -16 -57 -31 -40 -39 -66 -36
-113 1 -22 -27 -77 -70 -139 -20 -29 -42 -69 -49 -88 -6 -20 -25 -47 -41 -62
-34 -31 -48 -94 -27 -132 7 -13 11 -46 10 -74 -2 -68 18 -97 131 -188 51 -42
129 -105 173 -141 112 -92 319 -190 700 -332 254 -95 389 -116 569 -88 44 7
83 11 87 8 4 -2 21 -29 39 -60 27 -49 165 -198 226 -245 57 -44 232 -144 314
-179 224 -98 539 -185 775 -215 64 -8 112 -14 150 -20 143 -20 596 -28 780
-13 135 11 316 43 419 73 73 22 186 76 186 90 0 22 -12 23 -76 5 -60 -17 -174
-42 -249 -54 -121 -20 -352 -27 -466 -14 -183 20 -364 84 -475 168 -29 22 -86
79 -126 127 -244 293 -327 379 -443 458 -90 62 -159 136 -138 148 5 3 44 15
88 26 44 12 104 29 133 38 l52 16 70 -47 c158 -105 352 -189 459 -200 47 -4
105 15 138 46 13 12 51 77 83 143 62 125 92 167 219 301 47 50 100 121 140
189 75 127 134 199 288 353 63 63 113 122 113 132 0 10 -7 26 -16 34 -14 14
-19 14 -52 -1 -126 -55 -187 -64 -262 -38 -24 8 -59 17 -78 19 -19 3 -36 7
-38 9 -2 2 48 82 112 178 l117 175 55 -61 c31 -33 140 -144 242 -246 235 -235
372 -339 445 -339 26 0 49 24 42 43 -3 8 -50 72 -105 143 -242 312 -390 625
-427 899 -3 28 -9 66 -12 85 -19 129 8 455 48 560 5 14 11 34 13 46 10 53 76
225 146 384 90 202 104 245 89 271 -61 115 -415 -301 -641 -753 -33 -65 -61
-118 -63 -118 -5 0 -196 104 -233 127 l-24 15 42 20 c113 56 179 217 185 453
3 125 -16 306 -33 304 -4 0 -32 -7 -62 -14z m35 -62 c-10 -57 -77 -193 -137
-280 -29 -43 -102 -128 -161 -190 l-109 -112 -79 39 c-43 22 -79 42 -79 44 0
2 25 23 57 46 139 105 286 273 360 410 27 51 33 56 79 67 77 18 77 18 69 -24z
m-167 -51 c-73 -131 -221 -296 -360 -401 l-57 -42 -80 37 -80 37 60 42 c82 57
200 173 284 278 37 48 75 87 84 88 9 0 25 2 36 4 11 3 42 7 69 9 27 3 51 8 54
10 2 3 9 3 13 0 5 -3 -6 -31 -23 -62z m936 41 c-13 -50 -75 -188 -90 -199 -8
-7 -13 -16 -12 -20 2 -5 -21 -68 -49 -139 -29 -72 -69 -189 -89 -260 -32 -113
-43 -137 -82 -185 -78 -95 -242 -254 -250 -244 -5 5 -14 29 -21 53 -12 42 -11
45 25 105 118 194 316 480 411 595 29 36 51 67 48 69 -15 16 -301 -383 -461
-643 l-41 -67 -22 37 -21 37 60 122 c157 317 393 645 534 740 51 35 68 34 60
-1z m-2644 0 c0 -2 -61 -63 -136 -137 -86 -86 -145 -137 -162 -140 -15 -3 -47
-8 -72 -11 -25 -4 -56 -8 -70 -10 -14 -2 -52 -6 -85 -10 -32 -4 -64 -9 -69
-13 -25 -15 41 61 116 134 151 147 192 171 309 180 46 3 85 7 86 8 3 2 83 1
83 -1z m265 -2 l60 -1 -40 -34 c-22 -18 -77 -70 -123 -115 -45 -44 -88 -81
-95 -82 -6 0 -19 -2 -27 -3 -8 -2 -46 -6 -85 -10 -38 -4 -97 -11 -130 -15 -33
-5 -62 -7 -64 -5 -5 5 197 207 246 246 28 23 38 25 115 23 45 -2 110 -3 143
-4z m1633 -38 c9 -69 5 -277 -8 -342 -28 -153 -117 -271 -211 -283 -13 -1 -62
17 -111 42 l-87 44 107 111 c144 148 267 338 289 446 7 37 14 31 21 -18z
m-1333 21 c131 -9 208 -11 373 -13 l123 -1 -48 -41 c-26 -23 -59 -51 -73 -63
-14 -11 -55 -47 -91 -78 l-66 -57 -49 15 c-96 29 -225 42 -384 39 -85 -2 -174
-6 -197 -8 -55 -5 -49 6 54 100 139 128 130 122 192 118 31 -2 106 -7 166 -11z
m938 -17 c-10 -12 -20 -24 -23 -27 -3 -3 -23 -27 -45 -55 -75 -95 -208 -216
-287 -264 l-36 -22 -66 27 c-36 15 -66 30 -66 34 0 4 19 22 43 40 75 61 137
123 199 202 41 52 69 78 82 78 47 1 191 12 195 16 2 2 8 1 13 -2 5 -3 1 -16
-9 -27z m-1875 -36 c-35 -27 -107 -94 -159 -149 l-94 -99 -115 -18 c-63 -9
-131 -19 -150 -22 l-35 -5 62 60 c126 123 285 213 450 257 48 13 92 24 97 24
5 1 -20 -21 -56 -48z m1614 15 c-22 -39 -229 -247 -263 -265 -24 -12 -35 -10
-104 16 l-76 30 113 94 c62 51 125 105 140 119 28 25 70 34 165 36 l42 0 -17
-30z m-670 -256 c312 -334 539 -639 563 -757 2 -10 17 -81 34 -158 37 -164 41
-211 45 -490 3 -227 10 -266 64 -348 23 -35 27 -52 28 -119 1 -43 -3 -100 -8
-126 -4 -26 -11 -58 -13 -72 -3 -14 -7 -36 -10 -50 -3 -14 -12 -61 -21 -105
-25 -132 -42 -182 -96 -271 -39 -65 -60 -90 -89 -104 -66 -34 -65 -35 -63 113
2 128 11 276 19 307 2 8 7 42 10 75 4 32 20 109 37 170 61 223 67 278 63 530
-2 127 -6 241 -8 255 -3 14 -8 48 -11 75 -12 95 -18 120 -37 165 -35 78 -137
219 -269 370 -30 35 -63 72 -73 84 -60 69 -211 231 -337 359 -80 82 -146 152
-148 156 -1 5 56 8 129 7 l131 -2 60 -64z m-802 -82 c337 -338 607 -796 674
-1143 13 -68 28 -184 51 -405 5 -54 13 -158 20 -295 9 -179 19 -284 35 -370
16 -87 23 -176 25 -305 2 -167 3 -165 -53 -178 -26 -6 -48 -9 -50 -8 -4 5 -10
38 -31 181 -22 141 -28 185 -46 335 -12 96 -19 232 -16 330 9 272 4 464 -14
550 -35 169 -84 272 -194 410 -34 41 -82 115 -108 163 -79 149 -284 389 -588
688 -52 51 -94 94 -92 95 1 2 25 6 52 10 180 24 232 29 246 22 9 -4 49 -40 89
-80z m-1009 -225 c35 -49 119 -144 189 -213 156 -155 179 -184 276 -345 113
-187 172 -246 285 -280 180 -55 221 -110 235 -316 l6 -85 -48 -1 c-98 -3 -219
-57 -293 -132 -52 -53 -54 -54 -80 -40 -20 12 -27 24 -31 60 -9 77 -53 129
-128 150 -54 15 -71 37 -157 207 -80 159 -131 218 -287 334 -113 84 -110 80
-237 282 -45 72 -95 100 -164 93 -29 -2 -61 -8 -72 -13 -47 -19 113 160 225
251 70 57 187 133 207 134 6 1 40 -38 74 -86z m2734 -238 c59 -83 75 -118 133
-290 28 -82 67 -191 86 -241 36 -93 41 -111 51 -204 3 -30 8 -66 10 -80 11
-63 18 -193 16 -280 -1 -52 -2 -120 -3 -150 -1 -30 0 -67 3 -81 2 -18 -11 -51
-44 -107 -27 -45 -53 -82 -58 -82 -6 0 -8 4 -5 8 27 44 29 528 2 692 -2 14 -8
48 -12 75 -4 28 -8 52 -9 55 -1 3 -5 23 -10 45 -4 22 -29 94 -55 160 -26 66
-55 145 -64 175 -67 214 -103 314 -137 372 -22 36 -39 70 -39 74 0 15 92 -81
135 -141z m856 -7 c-6 -40 -12 -108 -13 -150 l-2 -77 -75 -35 c-42 -19 -95
-42 -118 -50 l-41 -14 -14 55 -14 56 122 122 c66 66 129 133 139 148 10 15 20
26 22 23 3 -2 0 -37 -6 -78z m-477 22 c71 -40 79 -49 106 -105 40 -86 77 -241
115 -490 4 -22 8 -95 10 -162 l4 -121 -52 -86 c-29 -48 -53 -83 -54 -79 -1 5
-4 60 -7 123 -2 63 -7 126 -10 140 -7 38 -14 105 -21 205 -12 156 -49 305
-114 450 -65 145 -78 179 -64 174 5 -2 44 -24 87 -49z m466 -322 c1 -29 3 -69
6 -90 l5 -36 -58 -12 c-32 -6 -74 -16 -93 -21 -66 -17 -78 -13 -85 31 -14 82
-13 89 9 96 27 8 79 30 141 59 72 34 75 33 75 -27z m-4120 -106 c14 -6 45 -32
70 -57 25 -26 90 -74 145 -108 83 -50 128 -89 260 -221 88 -89 169 -179 180
-201 11 -22 32 -61 47 -86 14 -26 24 -49 22 -52 -3 -3 0 -23 7 -45 20 -68 76
-117 148 -128 46 -7 44 -3 75 -142 33 -142 45 -214 52 -292 10 -128 23 -157
115 -257 69 -76 96 -119 109 -173 17 -77 32 -94 83 -97 23 -1 50 -2 60 -2 23
-1 22 -16 -4 -53 -25 -34 -13 -60 14 -31 27 31 84 155 96 211 38 178 -10 348
-152 540 -102 137 -147 240 -152 347 -4 65 15 97 87 151 63 46 160 83 235 90
78 6 193 -58 229 -128 11 -21 17 -69 19 -163 5 -191 12 -240 51 -377 43 -152
49 -189 49 -303 0 -82 -3 -97 -32 -155 -53 -107 -121 -162 -287 -229 -22 -9
-26 -15 -17 -21 35 -21 182 51 259 128 l53 54 -25 -51 c-31 -61 -82 -120 -113
-132 -12 -4 -94 -27 -180 -50 -311 -81 -451 -62 -893 117 -366 149 -416 175
-529 264 -38 30 -68 56 -67 58 4 4 125 -38 184 -64 30 -13 81 -45 111 -71 92
-76 191 -107 227 -71 52 52 -15 180 -173 328 -203 190 -369 308 -458 324 -15
3 -29 7 -31 9 -2 2 12 28 30 58 19 30 47 73 61 97 17 27 30 64 34 102 6 47 14
67 37 91 30 31 37 32 109 12 31 -8 335 -12 384 -5 24 4 46 12 48 19 3 9 -32
11 -139 10 -287 -3 -394 27 -438 121 -45 95 -71 256 -75 462 -4 192 1 202 75
172z m4140 -59 c0 -27 40 -190 55 -225 9 -22 -5 -23 -68 -4 -26 8 -47 13 -47
11 0 -2 -37 11 -82 29 -80 33 -81 34 -84 72 -2 22 -6 51 -9 66 -4 26 -3 27 93
48 53 12 102 23 107 25 26 9 35 3 35 -22z m-122 -209 c34 -13 75 -26 92 -29
16 -3 40 -9 53 -14 14 -6 27 -7 31 -4 3 3 10 -7 17 -23 6 -16 15 -38 20 -49
30 -73 111 -240 129 -266 12 -16 20 -33 17 -36 -9 -9 -133 63 -212 123 -40 29
-111 90 -158 135 l-87 81 0 60 c0 53 2 59 18 53 9 -4 45 -18 80 -31z m-5 -187
c111 -102 220 -181 308 -225 68 -33 81 -44 120 -102 24 -36 86 -119 137 -185
96 -123 101 -142 30 -112 -65 28 -203 143 -377 316 -273 272 -311 316 -311
358 0 20 3 33 8 29 4 -4 42 -40 85 -79z m-3025 -144 c44 -31 71 -94 62 -144
-26 -139 -187 -172 -274 -56 -27 36 -26 119 1 156 38 50 83 73 136 68 27 -2
61 -13 75 -24z m3112 -250 c0 -10 -95 -109 -138 -145 -30 -25 -37 -27 -141
-27 -100 0 -222 17 -237 32 -4 3 11 34 32 67 l39 61 53 -5 c28 -4 70 -13 92
-22 54 -22 138 -15 215 18 64 27 85 33 85 21z m-485 -163 c68 -17 126 -23 218
-22 l89 0 -29 -31 c-56 -62 -74 -77 -96 -78 -12 0 -31 -2 -42 -5 -62 -12 -250
0 -260 17 -6 8 65 129 75 129 3 0 23 -5 45 -10z m-48 -149 c54 -8 156 -6 210
4 l35 6 -19 -31 c-27 -46 -47 -61 -90 -67 -21 -3 -56 -8 -78 -12 -42 -8 -214
-5 -222 3 -3 2 14 30 37 60 32 42 47 55 61 51 10 -3 40 -9 66 -14z m-3608 -61
c77 -36 134 -77 261 -184 99 -84 185 -167 234 -226 68 -84 78 -158 18 -144
-50 12 -87 31 -130 67 -50 42 -149 91 -225 113 -141 39 -166 50 -225 91 -65
46 -92 84 -92 128 0 32 2 32 153 -35 137 -61 242 -122 319 -183 68 -55 89 -55
37 -1 -79 84 -229 180 -389 249 -47 21 -93 44 -102 53 -23 19 -23 60 -1 84 23
26 69 22 142 -12z m3744 -100 c-37 -68 -40 -71 -93 -87 -69 -20 -197 -22 -272
-4 -32 8 -58 17 -58 20 0 3 24 32 53 63 l52 57 105 -4 c81 -2 208 10 248 24 1
1 -15 -31 -35 -69z m-353 -105 c74 -17 161 -17 238 0 28 7 52 9 52 5 0 -5 -39
-49 -86 -98 -77 -81 -141 -159 -169 -207 -10 -16 -17 -16 -110 9 -110 29 -189
64 -236 103 l-30 26 58 38 58 38 67 -33 c81 -39 268 -77 268 -55 0 5 -17 9
-37 10 -73 1 -196 35 -251 69 l-33 20 50 40 c27 21 52 44 55 49 4 5 14 8 24 5
9 -2 46 -11 82 -19z m-302 -209 c56 -41 122 -68 234 -97 46 -11 84 -22 86 -23
1 -2 -14 -35 -33 -74 -22 -45 -41 -72 -51 -72 -30 0 -191 58 -252 92 -65 35
-182 117 -182 127 0 6 130 80 142 81 5 0 29 -15 56 -34z m-141 -110 c86 -65
192 -117 300 -148 50 -15 78 -28 76 -35 -9 -26 -75 -56 -122 -56 -92 2 -265
74 -425 176 l-79 51 34 13 c19 7 52 22 74 33 22 10 47 19 55 19 8 1 47 -23 87
-53z m-582 -142 c35 -53 72 -88 152 -141 45 -29 85 -59 89 -64 18 -29 -234 17
-331 60 -53 23 -155 90 -155 101 0 4 28 15 63 25 34 9 80 23 102 30 55 19 60
19 80 -11z m-235 -72 c104 -84 294 -150 441 -154 59 -1 76 -13 170 -120 l64
-71 -100 6 c-107 6 -128 9 -220 34 -159 43 -391 170 -519 284 -6 6 94 45 124
48 3 1 21 -12 40 -27z m-60 -115 c213 -154 441 -234 687 -241 59 -2 68 -9 156
-118 l38 -48 -28 -1 c-387 -17 -742 112 -1051 380 -78 69 -92 91 -54 91 9 0
40 8 67 19 l50 18 30 -23 c17 -13 64 -47 105 -77z m-130 -101 c181 -140 376
-234 590 -285 115 -27 164 -33 308 -36 l123 -2 47 -47 c26 -26 76 -66 111 -89
l65 -42 -130 -3 c-453 -11 -867 125 -1194 391 -74 61 -234 217 -228 223 2 1
34 11 71 21 l67 19 58 -54 c31 -30 82 -73 112 -96z m-241 19 c382 -387 863
-564 1451 -535 41 2 78 -5 145 -28 121 -42 254 -63 406 -66 126 -3 315 13 411
33 28 6 53 10 55 7 6 -6 -152 -39 -287 -60 -180 -28 -693 -28 -905 0 -164 21
-265 37 -295 44 -19 5 -48 11 -65 13 -48 7 -297 74 -361 97 -332 120 -551 261
-688 444 -20 27 -43 61 -52 77 l-14 28 47 15 c27 8 53 15 58 15 6 0 48 -38 94
-84z"/>
<path d="M2609 4413 c-13 -16 -12 -17 4 -4 16 13 21 21 13 21 -2 0 -10 -8 -17
-17z"/>
<path d="M2535 4348 l-40 -43 45 40 c25 22 47 41 49 43 2 1 0 2 -5 2 -6 0 -28
-19 -49 -42z"/>
</g>
</svg>
