<?xml version="1.0" encoding="utf-8"?>
<!-- Generator: Adobe Illustrator 19.2.0, SVG Export Plug-In . SVG Version: 6.00 Build 0)  -->
<svg version="1.1" id="Layer_1" xmlns="http://www.w3.org/2000/svg" xmlns:xlink="http://www.w3.org/1999/xlink" x="0px" y="0px"
	 viewBox="0 0 108 108" style="enable-background:new 0 0 108 108;" xml:space="preserve">
<metadata><?xpacket begin="﻿" id="W5M0MpCehiHzreSzNTczkc9d"?>
<x:xmpmeta xmlns:x="adobe:ns:meta/" x:xmptk="Adobe XMP Core 5.6-c111 79.158366, 2015/09/25-01:12:00        ">
   <rdf:RDF xmlns:rdf="http://www.w3.org/1999/02/22-rdf-syntax-ns#">
      <rdf:Description rdf:about=""/>
   </rdf:RDF>
</x:xmpmeta>
                                                                                                    
                                                                                                    
                                                                                                    
                                                                                                    
                                                                                                    
                                                                                                    
                                                                                                    
                                                                                                    
                                                                                                    
                                                                                                    
                                                                                                    
                                                                                                    
                                                                                                    
                                                                                                    
                                                                                                    
                                                                                                    
                                                                                                    
                                                                                                    
                                                                                                    
                                                                                                    
                           
<?xpacket end="w"?></metadata>
<style type="text/css">
	.st0{fill:#37B1B6;}
</style>
<g>
	<path class="st0" d="M108,105.4v-6c-1.1,0.8-2.1,1.6-3.1,2.6c-1.9,1.9-3.3,3.9-4.5,6h5.4C106.5,107.1,107.2,106.2,108,105.4z"/>
	<path class="st0" d="M101.6,44.7c-4.8,4.8-10.9,6.3-17.4,7.8c-6.8,1.6-13.9,3.3-19.6,9c-5.7,5.7-7.4,12.8-9,19.6
		c-1.5,6.5-3,12.6-7.8,17.4c-4.8,4.8-10.9,6.3-17.4,7.8c-2,0.5-4.1,1-6.1,1.6h17.2c3.4-1.3,6.7-3.2,9.6-6.1c5.7-5.7,7.4-12.8,9-19.6
		c1.5-6.5,3-12.6,7.8-17.4c4.8-4.8,10.9-6.3,17.4-7.8c6.8-1.6,13.9-3.3,19.6-9c1.2-1.2,2.3-2.6,3.2-3.9V32.7
		C106.7,37.2,105,41.3,101.6,44.7z"/>
	<path class="st0" d="M78,75c-5.7,5.7-7.4,12.8-9,19.6c-1.1,4.8-2.2,9.3-4.6,13.3h5.2c1.9-3.9,2.9-8.2,3.9-12.3
		c1.5-6.5,3-12.6,7.8-17.4c4.8-4.8,10.9-6.3,17.4-7.8c3.1-0.7,6.3-1.5,9.3-2.6v-4.9c-3.2,1.4-6.8,2.3-10.4,3.1
		C90.8,67.7,83.7,69.3,78,75z"/>
	<path class="st0" d="M108,80.2c-5.8,1.5-11.7,3.4-16.5,8.3c-5.7,5.7-7.4,12.7-9,19.5h4.7c1.5-6,3-11.7,7.5-16.2
		c3.8-3.8,8.4-5.5,13.3-6.8V80.2z"/>
	<path class="st0" d="M24,74.9c5.7-5.7,7.4-12.8,9-19.6c1.5-6.5,3-12.6,7.8-17.4c4.8-4.8,10.9-6.3,17.4-7.8c6.8-1.6,13.9-3.3,19.6-9
		c5.7-5.7,7.4-12.8,9-19.6C87,1,87.1,0.5,87.3,0h-4.7c0,0.1-0.1,0.3-0.1,0.4c-1.5,6.5-3,12.6-7.8,17.4c-4.8,4.8-10.9,6.3-17.4,7.8
		c-6.8,1.6-13.9,3.3-19.6,9c-5.7,5.7-7.4,12.8-9,19.6c-1.5,6.5-3,12.6-7.8,17.4C16,76.5,9.8,77.9,3.3,79.5C2.2,79.8,1.1,80,0,80.3
		V85c1.4-0.4,2.9-0.7,4.4-1.1C11.2,82.3,18.3,80.7,24,74.9z"/>
	<path class="st0" d="M17.9,97.4c6.8-1.6,13.9-3.3,19.6-9c5.7-5.7,7.4-12.8,9-19.6c1.5-6.5,3-12.6,7.8-17.4
		c4.8-4.8,10.9-6.3,17.4-7.8c6.8-1.6,13.9-3.3,19.6-9c5.7-5.7,7.4-12.8,9-19.6c1.3-5.4,2.6-10.6,5.7-14.9h-5.5
		c-2.4,4.4-3.6,9.2-4.7,13.9c-1.5,6.5-3,12.6-7.8,17.4c-4.8,4.8-10.9,6.3-17.4,7.8c-6.8,1.6-13.9,3.3-19.6,9
		c-5.7,5.7-7.4,12.8-9,19.6c-1.5,6.5-3,12.6-7.8,17.4C29.4,90,23.3,91.4,16.8,93C11,94.3,5.1,95.7,0,99.6v6.1
		c0.1-0.2,0.3-0.3,0.4-0.5C5.2,100.4,11.4,99,17.9,97.4z"/>
	<path class="st0" d="M13.9,11c4.8-4.8,10.9-6.3,17.4-7.8c3.5-0.8,7.2-1.7,10.6-3.2H25c-5.1,1.4-10.1,3.4-14.4,7.7
		c-5.7,5.7-7.4,12.8-9,19.6c-0.5,2.1-1,4.2-1.6,6.3v10.9c3.4-5,4.8-10.6,6.1-16.1C7.6,21.9,9.1,15.8,13.9,11z"/>
	<path class="st0" d="M19.6,41.9c1.5-6.5,3-12.6,7.8-17.4c4.8-4.8,10.9-6.3,17.4-7.8c6.8-1.6,13.9-3.3,19.6-9c2.3-2.3,4-4.9,5.3-7.6
		h-5.2c-0.9,1.5-2,3-3.3,4.3c-4.8,4.8-10.9,6.3-17.4,7.8c-6.8,1.6-13.9,3.3-19.6,9c-5.7,5.7-7.4,12.8-9,19.6
		c-1.5,6.5-3,12.6-7.8,17.4C5.1,60.4,2.6,61.9,0,63v4.9c3.7-1.4,7.4-3.3,10.5-6.5C16.3,55.7,17.9,48.7,19.6,41.9z"/>
</g>
</svg>
