<?xml version="1.0" encoding="utf-8"?>
<!-- Generator: Adobe Illustrator 19.2.0, SVG Export Plug-In . SVG Version: 6.00 Build 0)  -->
<svg version="1.1" id="_x38_bd14e52-72e5-49dc-b352-db7cbf616b29"
	 xmlns="http://www.w3.org/2000/svg" xmlns:xlink="http://www.w3.org/1999/xlink" x="0px" y="0px" viewBox="0 0 146.1 182.9"
	 style="enable-background:new 0 0 146.1 182.9;" xml:space="preserve">
<style type="text/css">
	.st0{fill:#FFFFFF;}
</style>
<title>logo-on-dark</title>
<metadata><?xpacket begin="﻿" id="W5M0MpCehiHzreSzNTczkc9d"?>
<x:xmpmeta xmlns:x="adobe:ns:meta/" x:xmptk="Adobe XMP Core 5.6-c111 79.158366, 2015/09/25-01:12:00        ">
   <rdf:RDF xmlns:rdf="http://www.w3.org/1999/02/22-rdf-syntax-ns#">
      <rdf:Description rdf:about=""
            xmlns:dc="http://purl.org/dc/elements/1.1/">
         <dc:title>
            <rdf:Alt>
               <rdf:li xml:lang="x-default">logo-on-dark</rdf:li>
            </rdf:Alt>
         </dc:title>
      </rdf:Description>
   </rdf:RDF>
</x:xmpmeta>
                                                                                                    
                                                                                                    
                                                                                                    
                                                                                                    
                                                                                                    
                                                                                                    
                                                                                                    
                                                                                                    
                                                                                                    
                                                                                                    
                                                                                                    
                                                                                                    
                                                                                                    
                                                                                                    
                                                                                                    
                                                                                                    
                                                                                                    
                                                                                                    
                                                                                                    
                                                                                                    
                           
<?xpacket end="w"?></metadata>
<path class="st0" d="M132.9,59.6c-3.8-4.7-12.5-15.7-12.3-30.6c0.1-9.4,3.8-17.4,6-22.2c1.5-3.2,2.3-5,1.6-5.8
	c-0.3-0.3-0.6-0.4-1-0.3c-1.8,0.3-5.1,4-7.6,7.2c-3.6,4.8-6.7,10.1-9.2,15.6l-0.1-0.1l-0.1-0.1l-0.1-0.1l-0.2-0.1l-1.5-0.9l-1.5-0.9
	c-1.1-0.6-2.1-1.2-3.2-1.7c1.5-0.5,2.7-1.4,3.6-2.7c3.9-5.5,1.8-16.3,1.8-16.7L109,0l-0.4,0.1c-2.9,0.7-5.8,1.2-8.8,1.5
	c-8.2,0.8-16.4,1-24.6,0.4C64.3,1.2,57.3,1.1,51.4,2.3c-6.3,1.3-11.2,4.3-15.8,9.6L35.1,12l-0.4,0.1l-0.4,0.1
	c-1,0.3-1.9,0.5-2.8,0.8l-0.7,0.2c-0.2,0.1-0.5,0.2-0.7,0.2l-1.2,0.6l-0.3,0.1l-0.3,0.2l-0.7,0.3L27,14.9l-0.6,0.3l-0.6,0.3
	c-0.2,0.1-0.4,0.2-0.6,0.3l-1.2,0.7l-1.2,0.8l-0.3,0.2l-0.3,0.2l-0.6,0.4c-1.4,1.1-2.8,2.3-4,3.6c-0.3,0.3-0.6,0.6-0.9,0.9l-0.4,0.5
	l-0.1,0.1l-0.1,0.1L16,23.6l-0.2,0.2c-0.1,0.2-0.3,0.3-0.4,0.5l-0.2,0.3L15,24.9l-0.2,0.3l-0.2,0.3c-0.1,0.2-0.2,0.4-0.3,0.6
	c-0.4,0.8-0.7,1.6-0.9,2.4c-0.2,0.8-0.5,1.6-0.6,2.4c-0.6,3-0.8,6-0.7,9.1c0,1.4,0.1,2.8,0.3,4.1c0.1,0.7,0.2,1.3,0.3,2
	s0.3,1.3,0.4,1.9c0.2,1.2,0.6,2.4,1.1,3.5c0.3,0.6,0.6,1,1.1,1.5c0.2,0.1,0.3,0.3,0.5,0.4c-1.2,0.9-1.9,2.2-1.9,3.7
	c-0.1,1.1-0.6,2.2-1.3,3.1l-0.3,0.4l-0.1,0.1c-0.7,1-1.3,2.1-1.6,3.3L10.4,64c-0.3,0.1-0.5,0.3-0.7,0.6c-0.1,0.1-0.2,0.2-0.3,0.4
	c0,0.1-0.1,0.1-0.1,0.2v0.1l0,0l0,0l0,0c-0.1,0.1-0.1,0.3-0.1,0.4c0,0.1-0.1,0.3-0.1,0.4c0,0.3,0,0.6,0,0.8c0.1,0.5,0.3,1,0.7,1.4
	c-0.1,0.2-0.1,0.4-0.1,0.6c-0.1,0.4-0.1,0.8-0.1,1.1c0,0.5,0.2,1.1,0.4,1.6c0.9,1.1,1.9,2.1,3.1,2.8c0.3,0.2,0.6,0.5,0.9,0.7
	l0.5,0.4l0.5,0.4c0.7,0.6,1.4,1.2,2.2,1.9c0.4,0.3,0.8,0.7,1.2,1l0.7,0.5l0.2,0.1l0.1,0.1l0.1,0.1l0.2,0.1l0.2,0.1
	c0.5,0.3,1,0.6,1.6,0.8l1.6,0.8c1.1,0.5,2.3,1.1,3.5,1.5l0.5,0.2l0.5,0.2l0.9,0.4c0.6,0.3,1.2,0.5,1.9,0.8l2,0.9
	c0.7,0.3,1.4,0.6,2.1,0.8l0.6,0.2l0.2,0.1l0.3,0.1l1,0.4c0.7,0.3,1.5,0.5,2.2,0.8c1.6,0.5,3.2,0.9,4.9,1c1.7,0.2,3.5,0.2,5.2,0
	l1.3-0.2c0.2,0,0.4-0.1,0.7-0.1l0.7-0.2l0.2,0c4,8.3,14.1,12.9,21.9,15.2c9.2,2.7,18.6,4,28.2,3.9h1.6c9.7-0.2,17.7-1.7,21.5-4.1
	c0.2-0.1,0.3-0.4,0.1-0.6c-0.1-0.2-0.3-0.3-0.5-0.2c-12.2,3.7-27.6,3.7-34.4-4.8c-4-5-8.6-10.5-12-12.4c-1.4-0.9-2.6-2.1-3.5-3.5
	l1.7-0.5l3-0.8l0.7-0.2L81,80l1.3-0.4l-0.1,0.1c0.2,0.2,6.3,4.7,12.1,6.1c0.6,0.1,1.2,0.2,1.7,0.2c2.9,0,3.9-2.2,5-4.7
	c0.5-1.2,1.1-2.4,1.9-3.5c0.9-1.3,2-2.5,3.2-3.6c1.7-1.5,3-3.4,4.1-5.4c1.9-3.3,4.3-6.3,7.2-8.8c1-0.9,2-2,2.9-3.1
	c0.3-0.5,0.2-1.1-0.2-1.4c-0.3-0.2-0.7-0.2-1-0.1c-1.3,0.7-2.7,1.3-4.2,1.5c-0.9,0.2-1.9,0-2.8-0.4c-1-0.4-2.1-0.6-3.2-0.6l0,0
	l1.9-2.8l1.9-2.8c0.6-1,1.3-1.9,1.9-2.9l0.1-0.2l0.1-0.1l0.1-0.1v-0.1v-0.1c0.6,0.7,4.1,4.5,7.8,8.3c2.1,2.1,8.4,8.3,11.1,8.3h0.1
	c0.4,0,0.8-0.2,1-0.5C134.9,62.1,134.5,61.5,132.9,59.6z M126.8,52.3c-5.1-1.9-10.8-7.7-11.8-8.9c0-1,0-2-0.1-3
	c2.3,1.1,4.8,1.8,7.3,2.3C123.3,46,124.9,49.3,126.8,52.3L126.8,52.3z M122,42.4c-2.5-0.5-4.9-1.3-7.2-2.3c-0.1-1.1-0.2-2.3-0.3-3.4
	l5.8-1.2l-0.1-0.3l-5.8,1.2c-0.1-1-0.3-2.1-0.5-3.1l-0.1-0.4c2.1-0.6,4.1-1.5,6-2.5C120,34.4,120.7,38.5,122,42.4L122,42.4z
	 M119.9,29.1c0,0.3,0,0.6,0,0.9c-1.9,1.1-3.9,1.9-6,2.6c-0.2-0.9-0.4-1.8-0.6-2.8l-0.1-0.2c2.7-2.3,5.2-4.9,7.4-7.7
	C120.2,24.2,119.9,26.6,119.9,29.1z M120.8,21.2c-2.3,2.9-4.9,5.6-7.6,8c-0.2-0.9-0.5-1.8-0.9-2.7c1.6-2.8,9.3-14.9,13.1-18.7
	C123.4,12.1,121.8,16.6,120.8,21.2L120.8,21.2z M127.4,1.5c0.1-0.1,0.2-0.1,0.3,0c0.4,0.4-0.7,2.7-1.7,5l-0.2,0.5
	c-2.2,1.8-5.7,6.8-8.3,10.8c-1.8,2.8-3.3,5.1-4,6.3c-0.6,1-1,1.6-1.2,2c-0.2-0.5-0.4-1-0.7-1.4c-0.1-0.2-0.2-0.4-0.4-0.5
	C116.5,11.7,125,1.9,127.4,1.5L127.4,1.5z M105.4,42.3c0.4,4.1,1,7.3,0.7,11c-0.3,3.5-0.2,4.3,0.2,5.1l-1.7,2.7l-0.9,1.4l-0.4,0.7
	c0.8-4.7,1-9.6,0.6-14.4c-0.7-7-1.3-9.7-2.7-13s-3.3-10.7-4.3-12.3c-0.7-1.2-1.4-2.4-1.8-3.1c0-0.1,0-0.1,0.1-0.2c0,0,0.1,0,0.1,0
	c3,2.5,5.2,5.9,6.3,9.6C103.3,36.5,104.9,38.2,105.4,42.3L105.4,42.3z M106.8,16.7c-0.9,1.3-2.3,2.3-3.9,2.6l-2-1l-2.8-1.4
	c4.4-4,8.6-8.6,10.5-15.2C108.9,4.7,109.7,12.5,106.8,16.7L106.8,16.7z M105.2,1.6c1.6-0.3,2.8-0.5,3.3-0.6V1
	c-1.1,4.2-3.2,9-10.7,15.7c-1.4-0.7-2.8-1.3-4.2-2C101.4,9.4,104.1,3.9,105,2L105.2,1.6z M100,2.3c1.9-0.2,3.5-0.4,4.8-0.7l-0.1,0.2
	c-0.9,1.8-3.6,7.3-11.4,12.7c-1.4-0.7-2.8-1.3-4.1-1.9c4.9-2.8,8.6-7.8,10.1-9.8l0.4-0.6L100,2.3z M99.3,2.4L99,2.8
	c-1.4,1.9-5.2,7-10.2,9.8l-0.4-0.2c-1.1-0.5-2.2-0.9-3.3-1.4c3.1-2.2,5.8-4.9,7.8-8.1C95.4,2.7,97.5,2.5,99.3,2.4L99.3,2.4z
	 M92.6,2.9c-2.1,3.1-4.7,5.8-7.8,8c-0.9-0.4-1.8-0.7-2.8-1.1l-1.3-0.5l7.4-6.3C89.8,3,91.2,2.9,92.6,2.9L92.6,2.9z M87.8,3.1
	l-7.3,6.2l0,0C80,9,79.4,8.9,78.9,8.7h-0.1h-0.1l-0.2,0l-0.4-0.1l-0.8-0.2l-0.8-0.2l-0.8-0.1c-1.1-0.1-2.2-0.2-3.3-0.3
	c2-1.8,4.1-3.4,6.4-4.8l0,0C81.9,3.1,85,3.1,87.8,3.1L87.8,3.1z M75.2,2.7l2.7,0.2c-2.3,1.4-4.3,3-6.2,4.8c-1,0-2,0-2.9,0
	s-2.2,0.1-3.3,0.2c-0.8,0.1-1.6,0.1-2.4,0.2c1.9-2.1,4-4,6.2-5.8C71.1,2.4,73.1,2.5,75.2,2.7L75.2,2.7z M68.8,2.4
	c-2.2,1.8-4.2,3.8-6.2,5.9h-0.4c-2.7,0.3-5.3,0.6-8,1c2.1-2.6,4.5-4.9,7.2-7v0C63.6,2.1,66.1,2.2,68.8,2.4L68.8,2.4z M61,2.2
	c-2.6,2.1-5,4.5-7.2,7.1l-4.3,0.6l-4.2,0.6c0.9-1.1,5.3-6.3,8.6-7.6V2.7C56.2,2.4,58.6,2.2,61,2.2L61,2.2z M53,2.8
	C51.1,4,49.3,5.4,47.8,7c-1.7,1.8-3,3.4-3,3.4l0,0l-0.9,0.1c-0.1,0-0.1,0-0.2,0h-0.1l-0.6,0.2l-2.8,0.4l-0.8,0.1l-0.8,0.1l-1.5,0.3
	l-0.4,0.1C41,6.9,46.7,3.7,53,2.8L53,2.8z M34.6,12.9l0.3-0.1l0.4-0.1h0.1L34.6,12.9L34.6,12.9L34.6,12.9z M15.8,25.7l0.2-0.2
	l0.2-0.3l0.2-0.2c0.1-0.2,0.2-0.3,0.4-0.5l0.2-0.2l0.1-0.1l0,0l0.1-0.1l0.4-0.5c0.3-0.3,0.6-0.6,0.9-1c1.2-1.3,2.5-2.5,3.8-3.6
	l0.5-0.4l0.3-0.2l0.3-0.2l1.1-0.8l1.2-0.7c0.2-0.1,0.4-0.2,0.6-0.3l0.6-0.3l0.6-0.3l0,0c0.5,0.5,0.9,1,1.3,1.6
	c1.6,2.5,3.6,4.8,5.9,6.7c2.7,2.4,4.9,5.2,6.6,8.4c0.7,1.3,1.5,2.6,2.4,3.8c1.4,1.8,3.5,3.1,5.8,3.5c1.7,0.4,3.1,1.5,3.9,3.1
	c0.7,2.2,1,4.5,1,6.9c-1-0.2-2-0.1-3,0.2c-1.2,0.3-5.3,1.5-6.7,4.5h-0.2c-0.6-0.1-1.1-0.4-1.6-0.9c0.2-2.5-1.6-4.7-4.1-5
	c-0.1,0-0.2,0-0.3,0c-1.1-1.4-2-2.9-2.7-4.6c-0.4-0.9-0.9-1.8-1.4-2.7c-1.6-2.8-3.9-4.7-6.9-6.7c-2.4-1.7-2.7-2.2-4.3-5.1l-0.9-1.6
	c-0.7-1.5-2.3-2.5-4-2.5c-0.9,0-1.8,0.2-2.6,0.7L15.8,25.7z M42.1,52.9c0,2.1-1.7,3.8-3.8,3.8c-2.1,0-3.8-1.7-3.8-3.8
	c0-2.1,1.7-3.8,3.8-3.8l0,0C40.3,49.1,42.1,50.8,42.1,52.9L42.1,52.9z M13.9,73.8l-0.4-0.3c-0.7-0.5-1.2-0.9-1.7-1.3
	c-0.2-0.2-0.5-0.4-0.7-0.6c-0.1-0.1-0.2-0.2-0.3-0.3l-0.1-0.1c0,0-0.1-0.1-0.1-0.1c-0.2-0.4-0.3-0.8-0.4-1.2c0-0.3,0-0.7,0-1v-0.2
	l0.1,0.1l0.3,0.2l0.3,0.1c0.8,0.3,1.6,0.6,2.3,1s1.4,0.6,2.1,0.9c1.3,0.6,2.5,1.3,3.6,1.9c0.5,0.3,1,0.6,1.4,0.9
	c0.2,0.2,0.4,0.3,0.6,0.4l0.6,0.4l0.2,0.2l0.2,0.2l0.4,0.3c0.3,0.2,0.5,0.4,0.7,0.5l0.5,0.5l0,0c0.1,0.1,0.2,0.1,0.3,0
	c0.1-0.1,0.1-0.2,0-0.3l-0.5-0.5l-0.3-0.3c-0.1-0.1-0.2-0.2-0.3-0.3l-0.4-0.4l-0.2-0.2L22,74l-0.5-0.5c-0.2-0.2-0.4-0.3-0.6-0.5
	c-0.4-0.3-0.9-0.7-1.4-1c-1.1-0.7-2.3-1.4-3.5-2c-0.7-0.3-1.4-0.7-2.1-1s-1.5-0.7-2.3-1l-0.3-0.1L11,67.8l-0.1-0.1l-0.1-0.1
	l-0.1-0.1l-0.1-0.1c-0.2-0.2-0.4-0.5-0.4-0.8c0-0.2,0-0.3,0-0.5c0-0.1,0-0.2,0.1-0.3v-0.1v-0.1l0,0l0,0l0,0v-0.1l0.1-0.1
	c0-0.1,0.1-0.1,0.1-0.2c0.1-0.1,0.2-0.2,0.3-0.3c0.3-0.1,0.7-0.2,1-0.2c0.4,0,0.8,0.1,1.2,0.3c0.9,0.3,1.7,0.8,2.5,1.2
	c0.8,0.5,1.6,1.1,2.4,1.7s1.6,1.2,2.3,1.8s1.5,1.3,2.2,1.9l1.1,1c0.4,0.3,0.7,0.7,1,1c0.7,0.7,1.3,1.4,1.9,2.1
	c0.6,0.7,1.1,1.4,1.5,2.2c0.2,0.3,0.2,0.7,0.2,1.1c0,0.1,0,0.1,0,0.2c0,0.1-0.1,0.1-0.1,0.1c-0.1,0.1-0.2,0.2-0.3,0.2
	c-0.4,0.1-0.7,0-1.1-0.1c-0.4-0.1-0.8-0.2-1.1-0.4c-0.3-0.2-0.7-0.4-1-0.6c-0.2-0.1-0.3-0.2-0.5-0.4L23.7,78c-0.6-0.5-1.3-0.9-2-1.3
	c-1.2-0.6-2.4-1.2-3.7-1.6c-1.2-0.3-2.2-0.6-3-0.9C14.6,74.1,14.2,73.9,13.9,73.8z M50.5,87.1c-0.2,0-0.4,0.1-0.6,0.1l-1.2,0.2
	c-1.6,0.2-3.3,0.2-4.9,0c-1.6-0.2-3.1-0.5-4.6-1c-0.7-0.2-1.4-0.5-2.2-0.8l-1.1-0.4l-0.3-0.1L35.2,85l-0.5-0.2
	c-0.7-0.2-1.3-0.5-2-0.8l-2-0.8c-0.7-0.3-1.3-0.5-1.9-0.8l-1-0.4l-0.5-0.2l-0.4-0.2c-1.2-0.4-2.4-1-3.5-1.5l-1.6-0.8
	c-0.5-0.3-1-0.5-1.5-0.8l-0.2-0.1L20,78.5l-0.1,0h-0.1l-0.2-0.1L19,77.9c-0.4-0.3-0.8-0.6-1.2-0.9c-0.8-0.6-1.5-1.2-2.2-1.8L15.2,75
	c0.7,0.2,1.6,0.5,2.5,0.8c1.3,0.4,2.5,0.9,3.7,1.6c0.7,0.4,1.3,0.8,1.8,1.3l0.4,0.4c0.2,0.1,0.3,0.3,0.5,0.4
	c0.4,0.3,0.7,0.5,1.1,0.7c0.4,0.2,0.8,0.4,1.3,0.5c0.5,0.2,1,0.2,1.5,0.1c0.3-0.1,0.6-0.2,0.8-0.5c0.1-0.1,0.2-0.3,0.3-0.4
	c0.1-0.2,0.1-0.3,0.1-0.5c0-0.3,0-0.6-0.1-0.8c-0.1-0.3-0.1-0.5-0.2-0.8c-0.4-0.9-0.9-1.8-1.6-2.5c-0.6-0.8-1.3-1.5-2-2.2
	c-0.3-0.4-0.7-0.7-1.1-1l-1.1-1c-0.7-0.7-1.5-1.3-2.2-2s-1.5-1.3-2.3-1.9s-1.6-1.2-2.5-1.7c-0.9-0.5-1.8-1-2.7-1.4
	c-0.5-0.2-1-0.3-1.5-0.4H12c0.3-0.8,0.7-1.6,1.3-2.4l0.1-0.2l0.3-0.4c0.9-1.1,1.5-2.5,1.6-3.9c-0.1-1.4,1.2-2.5,1.8-2.9l0,0
	c0.4,0.2,0.8,0.3,1.2,0.4c0.5,0.1,1,0.2,1.4,0.3c0.9,0.1,1.8,0.2,2.6,0.2c1.6,0.1,2.9,0,4,0s1.9-0.1,2.5-0.2l0.6-0.1h0.2
	c0.2,0,0.3-0.2,0.3-0.4c0-0.2-0.2-0.3-0.4-0.3c0,0-0.3,0-0.8,0.1S27.2,54,26.1,54s-2.4,0-4-0.1c-0.8-0.1-1.6-0.1-2.5-0.3
	c-0.4-0.1-0.9-0.2-1.3-0.3c-0.4-0.1-0.9-0.3-1.3-0.5H17l0,0l0,0l-0.2-0.1l-0.3-0.2c-0.2-0.1-0.4-0.3-0.6-0.4
	c-0.3-0.3-0.6-0.7-0.8-1.2c-0.4-1-0.8-2.1-1-3.2c-0.1-0.6-0.3-1.2-0.4-1.8s-0.2-1.2-0.3-1.9c-0.1-1.3-0.2-2.6-0.3-4s0-2.8,0.1-4.3
	c0-0.4,0.1-0.8,0.1-1.2c0.2,0,0.4-0.1,0.6-0.1c1,0,1.9,0.5,2.5,1.3c1.3,1.4,2.9,2.6,4.7,3.5c0.7,0.4,1.4,0.9,2.1,1.4
	c1.5,1.3,8,7.5,8.7,9.2c0.5,1,1,2,1.7,3c0,0.1,0,0.2,0,0.3c0,2.5,2,4.6,4.6,4.6h0.4l0,0c0.6,1.8,1,3.7,1.4,5.5
	c0.6,2.4,0.9,4.8,1,7.2c-0.1,1.6,1.9,3.8,3.5,5.6c0.6,0.6,1.2,1.3,1.7,2c0.1,0.4,0.2,0.8,0.3,1.2c0.3,1.2,0.6,2.6,1.6,2.7
	c0.3,0,0.6,0,0.9,0h0.5c0.5,0,0.9,0.1,1.3,0.3C50.4,83,50,83.5,49.6,84c-0.1,0.2-0.1,0.4,0,0.5s0.4,0.1,0.5,0
	c0.4-0.5,0.8-1.1,1.1-1.7l0,0l0.2-0.3c1.7-3.2,3.5-9.7-2.7-17.4c-3.5-4.3-4.1-8.6-3.8-9.8c0,0,0-0.1,0-0.1c1.2-2.8,5.1-4.7,6.3-5
	c1-0.4,2-0.6,3.1-0.8l0,0c2.2,0,4.2,2.6,4.7,3.7c0.4,1.5,0.6,3.1,0.5,4.6c-0.1,3.2,0.3,6.4,1.2,9.5c1.2,3.1,1.6,6.4,1.2,9.7
	c-1.5,6.6-8.2,7.8-8.3,7.8c-0.2,0-0.3,0.2-0.3,0.5c0,0.2,0.2,0.3,0.4,0.3h0.1c1.4-0.3,2.7-0.8,3.8-1.5c1.5-0.9,2.8-2.2,3.8-3.7
	c-0.5,1.9-1.6,3.7-3.2,5l-4.7,1.3l-1.3,0.3L51.6,87h-0.2h-0.2L51,87.1L50.5,87.1z M105.6,105.4c5.4,0.4,10.9-0.1,16.2-1.4
	c-9.6,3.6-31,4-48-1.2C66.1,100.4,56.3,96,52.4,88l0.3-0.1l1.3-0.4l1.3-0.4c4.1,4.7,9,8.6,14.6,11.3c6.6,3.1,13.9,4.7,21.2,4.6
	c1.6,0,3.2-0.1,4.8-0.2C99,104.3,102.3,105.1,105.6,105.4L105.6,105.4z M89.6,98.1c1.6,1.9,3.6,3.5,5.8,4.6
	c-9.4,0.7-17.9-0.8-25.3-4.4c-5.5-2.7-10.5-6.5-14.5-11.2l3.7-1c2.3,2.4,5,4.6,7.9,6.3c5.8,3.7,12.6,5.6,19.5,5.7
	c0.9,0,1.8,0,2.8-0.1L89.6,98.1z M89.3,97.7c-7.7,0.5-15.4-1.4-21.9-5.5c-2.8-1.7-5.4-3.8-7.7-6.2l4-1.2l0,0
	c2.3,2.1,4.9,3.8,7.6,5.3c4.1,2.2,8.6,3.3,13.2,3.4c0.4,0,0.8,0,1.2,0C86.9,94.8,88.1,96.3,89.3,97.7L89.3,97.7z M85.6,93.2
	c-4.9,0.1-9.8-1-14.1-3.3c-2.7-1.4-5.2-3.1-7.4-5.1l3.5-1c1.4,1.2,5.5,4.6,13.5,4.7C82.7,89.9,84.1,91.5,85.6,93.2L85.6,93.2z
	 M77.8,85.8c1.1,0.6,2.1,1.4,3,2.3c-7.5-0.1-11.4-3.2-12.9-4.5l2.7-0.8l3.4-1C74.9,83.5,76.2,84.8,77.8,85.8L77.8,85.8z M75.1,80.5
	l-2.6,0.7c-0.5-3-2.8-17-2.4-22.5c0.6-6.9,0.2-12.2-1.1-16.3c-0.9-2.8-2.4-5.3-4.3-7.4c-1-1.1-1.8-2.3-2.4-3.6
	c-1.2-2.9-6-8.4-9.8-12.4c-2.6-2.7-4.7-4.8-5.7-5.8s-1.7-1.6-2.2-2c1.6-0.2,3.3-0.4,5-0.7l2.7-0.3c3,2.1,18.1,18,20,33.4
	c2.1,16.6,1,17,2.3,24.7C75.2,72.3,75.4,76.4,75.1,80.5L75.1,80.5z M66.7,8.6c0.7,0,1.4-0.1,2.2-0.1c1.6,0,3.2,0,4.7,0.1
	c2.6,2.5,15,15.7,16,21.3c1.1,6.2,2,7,1.8,13.3s0.1,8.7,1.1,10.5s2.3,1.9,0.6,10c-1.6,7.8-0.7,6.3-4.4,12.1
	c-0.8,0.4-1.7,0.8-2.5,1.2c0-1.1-0.1-4,0-6.5c0.2-4.7,0.9-9.3,2.3-13.7c1.8-5,1.1-16.5,0-22.2C87.4,29.3,69.3,11.2,66.7,8.6
	L66.7,8.6z M94.3,84.9c-4.9-1.1-10.1-4.7-11.4-5.7c1.5-0.5,3-1.2,4.5-1.8c3.3,3,7.3,5.1,11.7,5.9C98,84.7,96.8,85.5,94.3,84.9
	L94.3,84.9z M100.2,80.9c-0.3,0.7-0.7,1.4-1.1,2.1c-4.3-0.8-8.3-2.8-11.6-5.8c1.3-0.7,2.7-1.4,4-2.1l0,0c0.7,0.7,2.6,2.8,9.5,4
	C100.7,79.7,100.4,80.3,100.2,80.9L100.2,80.9z M102.2,77.3c-0.4,0.5-0.7,1.1-1,1.7c-6.8-1.2-8.7-3.2-9.4-3.9c0.7-0.4,1.3-0.9,2-1.3
	c0.3-0.2,0.7-0.5,1-0.7c0.7,0.6,3.3,2.4,8.7,2.5c-0.5,0.4-1,1-1.5,1.7L102.2,77.3z M105.5,73.6c-0.5,0.5-1,1-1.6,1.6
	c-5.3-0.1-7.9-1.8-8.7-2.4c0.5-0.3,0.9-0.7,1.4-1.1c0.6-0.5,1.1-1,1.7-1.5l0.2,0.1c1.6,0.6,3.3,0.9,5,0.9c1.6,0,3.2-0.3,4.7-0.8
	C107.3,71.6,106.4,72.6,105.5,73.6L105.5,73.6z M109.4,68.4c-0.3,0.7-0.7,1.2-1,1.7c-3.2,1.2-6.7,1.2-9.9,0l0,0l0.6-0.5
	c0.8-0.8,1.6-1.6,2.3-2.5l0.2-0.2l0.6,0.1c1,0.2,1.9,0.2,2.9,0.2c1.9,0,3.7-0.2,5.6-0.6c-0.5,0.5-0.9,1.1-1.2,1.7L109.4,68.4z
	 M110.7,66.2c-2.8,0.7-5.8,0.9-8.7,0.5l-0.4,0l0.7-0.8l0.5-0.7c0.2-0.2,0.3-0.5,0.5-0.7l0.5-0.7l0,0c1.5,0.5,3.1,0.7,4.6,0.7
	c1.4,0,2.8-0.2,4.1-0.5c-0.7,0.6-1.3,1.4-1.9,2.2L110.7,66.2z M112.8,63.4c-2.9,0.8-6,0.8-8.9,0l0.3-0.5l0.9-1.4l0.9-1.4
	c2.1,0.6,4.3,0.8,6.6,0.9c0.9,0,1.8-0.1,2.7-0.2c-0.9,0.7-1.7,1.6-2.6,2.5L112.8,63.4z M111.7,57.1c1,0.4,2.1,0.6,3.2,0.4
	c1.6-0.3,3.1-0.8,4.4-1.6c0.1-0.1,0.2,0,0.3,0.1c0.1,0.1,0.1,0.2,0,0.3c-0.9,1.1-1.8,2.1-2.8,3l-1.1,1.1c-3.7,0.8-8.2-0.2-9.5-0.5
	l0.8-1.2l1.3-2c1.1-0.2,2.3,0,3.3,0.4L111.7,57.1z M114.2,45.4c0,0.3-0.1,0.5-0.1,0.8c0,0.1,0,0.1,0,0.2v0.1v0.1v0.1l-0.1,0.1
	l-0.1,0.2c-0.6,1-1.2,1.9-1.8,2.9l-0.6,0.9c0-0.7,0.1-3.6,0-4.8c-0.1-1.3-0.5-3-0.7-5.5c-0.1-2.5-0.4-5-0.9-7.4
	c-0.4-2.1-1.1-4.1-2.1-6c-0.8-1.8-1.6-3.6-2-4.7l0.8,0.5l1.5,0.8l1.5,0.9l0.2,0.1h0.1h0.1l0.1,0.1l0.1,0.1c0.2,0.2,0.3,0.4,0.4,0.6
	c0.3,0.5,0.5,1,0.7,1.5c0.4,1.1,0.7,2.1,1,3.2c0.3,1.1,0.5,2.2,0.8,3.3s0.4,2.3,0.6,3.4s0.3,2.3,0.4,3.4s0.2,2.3,0.2,3.4
	c-0.2,0.6-0.3,1.1-0.3,1.7L114.2,45.4z M133.7,62.5c-3.1,0.2-14.4-11.8-18.5-16.4l-0.4,0.3c0.1-0.3,0.1-0.6,0.1-0.9
	c0.1-0.5,0.1-1,0.1-1.6c1.2,1.3,2.5,2.5,3.8,3.7c2.2,1.8,5.3,4.2,8.2,5.2c1.6,2.6,3.4,5.1,5.3,7.4c0.6,0.7,1.1,1.4,1.6,2.1
	c-0.1,0.1-0.3,0.1-0.4,0L133.7,62.5z"/>
<path class="st0" d="M37,178.8c0,0.2-0.1,0.4-0.2,0.6c-0.2,0.2-0.4,0.2-0.6,0.2c-0.2,0-0.5-0.1-0.6-0.3c-0.2-0.2-0.3-0.4-0.2-0.7
	v-0.2c-0.2,0.2-0.3,0.4-0.6,0.6c-0.2,0.2-0.5,0.3-0.7,0.4c-0.3,0.1-0.7,0.2-1,0.2c-0.7,0-1.4-0.3-1.9-0.8c-0.5-0.7-0.8-1.5-0.8-2.4
	c0-0.4,0.1-0.9,0.2-1.3c0.3-0.8,0.9-1.4,1.7-1.7c0.4-0.2,0.9-0.2,1.3-0.2c0.2,0,0.4,0,0.7,0l0.5,0.1l0.5,0.1v-0.9
	c0-0.4-0.2-0.7-0.4-0.9c-0.3-0.3-0.7-0.4-1.1-0.4c-0.2,0-0.3,0-0.5,0l-0.4,0.1c-0.1,0-0.3,0.1-0.4,0.2h-0.1c-0.1,0-0.2,0-0.3,0
	c-0.2,0-0.4-0.1-0.5-0.2c-0.2-0.2-0.2-0.4-0.2-0.6c0-0.1,0-0.2,0.1-0.3c0.1-0.1,0.1-0.2,0.2-0.2c0.1-0.1,0.2-0.1,0.3-0.2
	c0.2-0.1,0.4-0.2,0.6-0.3l0.6-0.2c0.2-0.1,0.5-0.1,0.8-0.1c0.4,0,0.9,0.1,1.3,0.2c0.4,0.1,0.7,0.4,1,0.7c0.3,0.3,0.5,0.6,0.7,1
	c0.2,0.4,0.2,0.8,0.2,1.3v6.1L37,178.8z M35.3,175.2l-0.5-0.1l-0.5-0.1c-0.2,0-0.4,0-0.7,0c-0.8-0.1-1.4,0.5-1.5,1.2
	c0,0.1,0,0.2,0,0.3c0,0.4,0.1,0.8,0.4,1.1c0.3,0.3,0.6,0.4,1,0.4c0.3,0,0.5-0.1,0.8-0.2c0.2-0.1,0.4-0.3,0.6-0.5
	c0.2-0.2,0.4-0.4,0.5-0.7L35.3,175.2L35.3,175.2z"/>
<path class="st0" d="M45.2,170.2c0-0.1,0.1-0.2,0.2-0.3c0.1-0.1,0.2-0.1,0.2-0.2c0.1-0.1,0.2-0.1,0.3-0.1c0.5,0,0.8,0.4,0.9,0.8
	c0,0,0,0,0,0c0,0,0,0.1,0,0.2v0.2v0.2l-1.4,3.3l1.7,4.1c0,0.1,0,0.1,0,0.2v0.2c0,0,0,0.1,0,0.2c0,0.5-0.4,0.8-0.8,0.9c0,0,0,0,0,0
	c-0.1,0-0.2,0-0.3-0.1c-0.1-0.1-0.2-0.1-0.2-0.2c-0.1-0.1-0.1-0.2-0.2-0.3l-1.6-4h-1.5v3.7c0.1,0.5-0.3,0.9-0.8,0.9
	c-0.5,0.1-0.9-0.3-0.9-0.8c0-0.1,0-0.1,0-0.2v-8.4c-0.1-0.5,0.3-0.9,0.8-0.9c0.5-0.1,0.9,0.3,0.9,0.8c0,0.1,0,0.1,0,0.2v3h1.6
	L45.2,170.2z"/>
<path class="st0" d="M53.9,173.9c0.4,0.1,0.7,0.3,1,0.5c0.3,0.2,0.5,0.5,0.7,0.8c0.2,0.4,0.3,0.8,0.3,1.2c0,0.4-0.1,0.8-0.3,1.2
	c-0.3,0.4-0.6,0.7-1,1c-0.5,0.3-1,0.6-1.6,0.8c-0.7,0.2-1.4,0.3-2.2,0.3h-0.2c-0.2,0-0.4-0.1-0.6-0.2c-0.2-0.2-0.3-0.4-0.2-0.6v-8.1
	c0-0.2,0.1-0.5,0.3-0.6c0.2-0.2,0.4-0.3,0.7-0.3l0.5-0.1l0.5-0.1h0.6c0.4,0,0.8,0.1,1.2,0.2c0.3,0.1,0.6,0.3,0.9,0.5
	c0.2,0.2,0.4,0.5,0.6,0.8c0.1,0.3,0.2,0.6,0.2,0.9c0,0.3-0.1,0.6-0.2,0.8c-0.1,0.2-0.2,0.4-0.4,0.6
	C54.3,173.6,54.1,173.8,53.9,173.9z M53.4,172.2c0-0.2-0.1-0.5-0.3-0.6c-0.3-0.2-0.6-0.3-0.9-0.2h-0.3h-0.2h-0.2v1.8
	c0.5,0,1-0.1,1.4-0.3C53.2,172.7,53.3,172.5,53.4,172.2L53.4,172.2z M51.5,178c0.7,0,1.4-0.3,2-0.7c0.4-0.3,0.6-0.7,0.6-1.2
	c0-0.3-0.2-0.7-0.4-0.9c-0.4-0.3-0.8-0.4-1.3-0.4h-1L51.5,178L51.5,178z"/>
<path class="st0" d="M64.7,178.8c0,0.2-0.1,0.4-0.2,0.6c-0.2,0.2-0.4,0.2-0.6,0.2c-0.2,0-0.5-0.1-0.6-0.3c-0.2-0.2-0.3-0.4-0.2-0.7
	v-0.2c-0.2,0.2-0.3,0.4-0.6,0.6c-0.2,0.2-0.5,0.3-0.7,0.4c-0.3,0.1-0.7,0.2-1,0.2c-0.7,0-1.4-0.3-1.9-0.8c-0.5-0.7-0.8-1.5-0.8-2.4
	c0-0.4,0.1-0.9,0.2-1.3c0.3-0.8,0.9-1.4,1.7-1.7c0.4-0.2,0.9-0.2,1.3-0.2c0.2,0,0.4,0,0.7,0l0.5,0.1l0.5,0.1v-0.9
	c0-0.4-0.2-0.7-0.4-0.9c-0.3-0.3-0.7-0.4-1.1-0.4c-0.2,0-0.3,0-0.5,0l-0.4,0.1c-0.1,0-0.3,0.1-0.4,0.2H60c-0.1,0-0.2,0-0.3,0
	c-0.2,0-0.4-0.1-0.5-0.2c-0.2-0.2-0.2-0.4-0.2-0.6c0-0.1,0-0.2,0.1-0.3c0.1-0.1,0.1-0.2,0.2-0.2c0.1-0.1,0.2-0.1,0.3-0.2
	c0.2-0.1,0.4-0.2,0.6-0.3l0.6-0.2c0.2-0.1,0.5-0.1,0.8-0.1c0.4,0,0.9,0.1,1.3,0.2c0.4,0.1,0.7,0.4,1,0.7c0.3,0.3,0.5,0.6,0.7,1
	c0.2,0.4,0.2,0.8,0.2,1.3v6.1L64.7,178.8z M63,175.2l-0.5-0.1L62,175c-0.2,0-0.4,0-0.7,0c-0.8-0.1-1.4,0.5-1.5,1.2
	c0,0.1,0,0.2,0,0.3c0,0.4,0.1,0.8,0.4,1.1c0.3,0.3,0.6,0.4,1,0.4c0.3,0,0.5-0.1,0.8-0.2c0.2-0.1,0.4-0.3,0.6-0.5
	c0.2-0.2,0.4-0.4,0.5-0.7L63,175.2L63,175.2z"/>
<path class="st0" d="M69.6,174.6c0,0.5,0,1.1,0.1,1.6c0.1,0.4,0.2,0.7,0.4,1c0.1,0.2,0.4,0.4,0.6,0.5c0.2,0.1,0.5,0.2,0.8,0.2
	c0.4,0,0.7-0.1,1-0.3c0.2-0.2,0.4-0.5,0.6-0.8c0.1-0.2,0.2-0.3,0.4-0.4c0.1-0.1,0.2-0.1,0.3-0.1c0.2,0,0.4,0.1,0.6,0.2
	c0.2,0.2,0.3,0.4,0.2,0.6c0,0.1,0,0.2,0,0.2v0.2v0.1c-0.1,0.3-0.3,0.5-0.4,0.7c-0.2,0.2-0.4,0.4-0.6,0.6c-0.3,0.2-0.6,0.3-0.9,0.4
	c-0.4,0.1-0.7,0.2-1.1,0.2c-0.5,0-1-0.1-1.4-0.3c-0.5-0.2-0.8-0.5-1.2-0.9c-0.4-0.5-0.6-1-0.8-1.6c-0.4-1.5-0.4-3.1,0-4.6
	c0.1-0.6,0.4-1.1,0.8-1.6c0.3-0.4,0.7-0.7,1.2-0.9c0.5-0.2,0.9-0.3,1.4-0.3c0.4,0,0.7,0,1.1,0.1c0.3,0.1,0.6,0.2,0.8,0.4
	c0.2,0.1,0.4,0.3,0.6,0.5c0.1,0.2,0.3,0.4,0.4,0.6v0.2v0.2c0,0.1,0,0.2,0,0.2c0,0.2-0.1,0.4-0.2,0.6c-0.2,0.2-0.4,0.2-0.6,0.2
	c-0.1,0-0.2,0-0.3-0.1c-0.1,0-0.2-0.1-0.2-0.2c-0.1-0.1-0.1-0.2-0.2-0.2c0-0.1-0.1-0.2-0.2-0.3c-0.1-0.1-0.2-0.2-0.3-0.3
	c-0.1-0.1-0.3-0.2-0.4-0.2c-0.2-0.1-0.3-0.1-0.5-0.1c-0.3,0-0.5,0-0.8,0.2c-0.2,0.1-0.5,0.3-0.6,0.5c-0.2,0.3-0.3,0.6-0.4,1
	C69.7,173.5,69.6,174.1,69.6,174.6z"/>
<path class="st0" d="M76.4,170.5c0-0.5,0.4-0.8,0.8-0.9c0,0,0,0,0,0h4.7c0.5-0.1,0.9,0.3,0.9,0.8c0.1,0.5-0.3,0.9-0.8,0.9
	c-0.1,0-0.1,0-0.2,0h-1.5v7.5c0.1,0.5-0.3,0.9-0.8,0.9c-0.5,0.1-0.9-0.3-0.9-0.8c0-0.1,0-0.1,0-0.2v-7.5h-1.5
	C76.7,171.3,76.4,170.9,76.4,170.5z"/>
<path class="st0" d="M87,178.9l-2.6-7.9c0-0.1,0-0.1-0.1-0.2c0-0.1,0-0.2,0-0.3c0-0.3,0.1-0.5,0.2-0.7c0.1-0.2,0.3-0.3,0.5-0.3
	c0.1,0,0.3,0,0.4,0.1c0.1,0.1,0.2,0.1,0.3,0.2c0.1,0.1,0.1,0.2,0.2,0.3l1.9,6l1.9-6c0-0.1,0.1-0.2,0.2-0.3c0.1-0.1,0.2-0.1,0.3-0.2
	c0.1-0.1,0.3-0.1,0.4-0.1c0.2,0,0.4,0.1,0.5,0.3c0.2,0.2,0.2,0.4,0.2,0.7c0,0,0,0.1,0,0.2v0.2v0.2l-3.6,11.3c0,0.1-0.1,0.2-0.2,0.3
	c-0.1,0.1-0.2,0.2-0.3,0.2c-0.1,0.1-0.3,0.1-0.4,0.1c-0.2,0-0.4-0.1-0.5-0.3c-0.2-0.2-0.2-0.4-0.2-0.7c0-0.1,0-0.2,0-0.3
	c0-0.1,0-0.1,0.1-0.2L87,178.9z"/>
<path class="st0" d="M100.3,178c0.5,0,0.8,0.4,0.8,0.8c0,0,0,0,0,0v2.1c0.1,0.5-0.3,0.9-0.8,0.9c-0.5,0.1-0.9-0.3-0.9-0.8
	c0-0.1,0-0.1,0-0.2v-1.2H94v1.2c0.1,0.5-0.3,0.9-0.8,0.9c-0.5,0.1-0.9-0.3-0.9-0.8c0-0.1,0-0.1,0-0.2v-2.1c0-0.5,0.4-0.8,0.8-0.9
	c0,0,0,0,0,0c0.3-0.5,0.6-1,0.8-1.6c0.2-0.8,0.4-1.5,0.5-2.3c0.2-1.2,0.3-2.4,0.2-3.6c0-0.5,0.4-0.8,0.8-0.9c0,0,0,0,0,0h3.4
	c0.5,0,0.8,0.4,0.9,0.8c0,0,0,0,0,0v7.5L100.3,178L100.3,178z M96.4,171.3c0,1-0.1,2.1-0.2,3.1c-0.1,0.7-0.3,1.4-0.5,2.1
	c-0.2,0.5-0.4,1-0.7,1.5h3v-6.7H96.4L96.4,171.3z"/>
<path class="st0" d="M110.5,178.8c0.1,0.5-0.3,0.9-0.8,0.9c-0.5,0.1-0.9-0.3-0.9-0.8c0-0.1,0-0.1,0-0.2v-5.4l-3.2,5.7
	c-0.1,0.1-0.2,0.3-0.3,0.4c-0.1,0.1-0.3,0.2-0.5,0.2c-0.5,0-0.8-0.4-0.9-0.8c0,0,0,0,0,0v-8.4c-0.1-0.5,0.3-0.9,0.8-0.9
	c0.5-0.1,0.9,0.3,0.9,0.8c0,0.1,0,0.1,0,0.2v5.4l3.2-5.7c0.1-0.1,0.2-0.3,0.3-0.4c0.1-0.1,0.3-0.2,0.5-0.2c0.5,0,0.8,0.4,0.9,0.8
	c0,0,0,0,0,0L110.5,178.8L110.5,178.8z"/>
<path class="st0" d="M114.8,175.1c-0.2-0.2-0.4-0.4-0.6-0.6c-0.2-0.2-0.3-0.5-0.4-0.8c-0.1-0.3-0.2-0.7-0.2-1c0-0.4,0.1-0.8,0.2-1.2
	c0.2-0.4,0.4-0.7,0.7-0.9c0.3-0.3,0.7-0.5,1.1-0.6c0.5-0.2,0.9-0.2,1.4-0.2h0.6l0.6,0.1l0.5,0.1c0.3,0,0.5,0.2,0.7,0.3
	c0.2,0.2,0.3,0.4,0.3,0.6v8.1c0,0.2-0.1,0.5-0.2,0.6c-0.2,0.2-0.4,0.3-0.6,0.2c-0.2,0-0.5-0.1-0.6-0.2c-0.2-0.2-0.3-0.4-0.3-0.6
	v-2.6c-0.2,0-0.4-0.1-0.7-0.1l-0.5-0.1l-0.5-0.1l-1.3,3.3c0,0.1-0.1,0.2-0.2,0.3c-0.1,0.1-0.1,0.1-0.2,0.2c-0.1,0.1-0.2,0.1-0.3,0.1
	c-0.2,0-0.4-0.1-0.6-0.2c-0.2-0.2-0.3-0.4-0.2-0.6c0-0.1,0-0.2,0-0.3c0-0.1,0-0.1,0.1-0.2L114.8,175.1z M115.4,172.7
	c0,0.5,0.2,0.9,0.6,1.2c0.6,0.4,1.3,0.6,2,0.7v-3l-0.3-0.1l-0.3-0.1c-0.1,0-0.3,0-0.4,0c-0.5,0-0.9,0.1-1.3,0.4
	C115.6,172,115.4,172.3,115.4,172.7L115.4,172.7z"/>
<path class="st0" d="M10.1,124.7h2.1c2.6,0,4.7,2.1,4.7,4.7l0,0v18.8c0,2.6-2.1,4.7-4.7,4.7l0,0h-2.1v3.3H6.8v-3.3H4.7
	c-2.6,0-4.7-2.1-4.7-4.7l0,0v-18.8c0-2.6,2.1-4.7,4.7-4.7l0,0h2.1V121h3.3V124.7L10.1,124.7z M4.7,128c-0.8,0-1.4,0.6-1.4,1.4l0,0
	v18.8c0,0.8,0.6,1.4,1.3,1.4c0,0,0,0,0.1,0h2.1V128L4.7,128L4.7,128z M12.2,128h-2.1v21.6h2.1c0.8,0,1.4-0.6,1.4-1.4l0,0v-18.8
	C13.6,128.6,13,128,12.2,128L12.2,128z"/>
<path class="st0" d="M23.3,121.4h7.2c2.6,0,4.6,2.1,4.7,4.7v11.3c0.1,2.4-1.7,4.5-4.1,4.6c-0.1,0-0.2,0-0.2,0h-4.3v14.1h-3.3
	L23.3,121.4L23.3,121.4z M26.6,139h3.8c0.9,0,1.6-0.8,1.6-1.8c0,0,0,0,0,0v-11.1c0-0.8-0.6-1.4-1.4-1.4h-4L26.6,139L26.6,139z"/>
<path class="st0" d="M54,151.5c0,2.6-2.1,4.7-4.7,4.7l0,0h-3.3c-2.6,0-4.6-2.1-4.7-4.7v-25.4c0-2.6,2.1-4.6,4.7-4.7h3.3
	c2.6,0,4.7,2.1,4.7,4.7l0,0V151.5z M49.4,124.7h-3.3c-0.8,0-1.4,0.6-1.4,1.4v25.4c0,0.8,0.6,1.4,1.4,1.4l0,0h3.3
	c0.8,0,1.4-0.6,1.4-1.4l0,0v-25.4C50.7,125.3,50.1,124.7,49.4,124.7L49.4,124.7z"/>
<path class="st0" d="M73.1,156.2h-3.3V139h-6.1v17.2h-3.3v-34.7h3.3v14.5h6.1v-14.5h3.3V156.2z"/>
<path class="st0" d="M86.1,124.7v31.5h-3.3v-31.5h-4v-3.3h11.3v3.3H86.1L86.1,124.7z"/>
<path class="st0" d="M108.4,151.5c0,2.6-2.1,4.7-4.7,4.7l0,0h-3.3c-2.6,0-4.6-2.1-4.7-4.7v-25.4c0-2.6,2.1-4.6,4.7-4.7h3.3
	c2.6,0,4.7,2.1,4.7,4.7l0,0V151.5z M103.8,124.7h-3.3c-0.8,0-1.4,0.6-1.4,1.4v25.4c0,0.8,0.6,1.4,1.4,1.4l0,0h3.3
	c0.8,0,1.4-0.6,1.4-1.4l0,0v-25.4C105.2,125.3,104.5,124.7,103.8,124.7L103.8,124.7z"/>
<path class="st0" d="M114.1,126.1c0-2.6,2.1-4.6,4.7-4.7h1.9c2.6,0,4.7,2.1,4.7,4.7l0,0v6.6c0.1,1.9-0.9,3.6-2.6,4.4
	c1.6,0.6,2.7,2.1,2.6,3.8v10.6c0,2.6-2.1,4.6-4.7,4.7h-1.9c-2.6,0-4.6-2.1-4.7-4.7v-5.3h3.3v5.3c0,0.8,0.6,1.4,1.4,1.4h1.9
	c0.8,0,1.4-0.6,1.4-1.4l0,0v-10c0-1.9-1-2.5-2.7-2.5h-1.6v-3h1.6c1.8,0,2.7-1.5,2.7-3.3v-6.5c0-0.8-0.6-1.4-1.4-1.4l0,0h-1.9
	c-0.8,0-1.4,0.6-1.4,1.4l0,0v3.9h-3.3V126.1L114.1,126.1z"/>
<path class="st0" d="M130.8,156.2l4.7-34.7h5.9l4.7,34.7h-3.3l-1.5-10.2h-5.8l-1.4,10.2H130.8z M138.3,124.7l-2.4,18.3h5.1
	l-2.4-18.2L138.3,124.7L138.3,124.7z"/>
<circle class="st0" cx="37.5" cy="53" r="2.2"/>
</svg>
