<?xml version="1.0" encoding="utf-8"?>
<!-- Generator: Adobe Illustrator 19.2.0, SVG Export Plug-In . SVG Version: 6.00 Build 0)  -->
<svg version="1.1" id="Layer_1" xmlns="http://www.w3.org/2000/svg" xmlns:xlink="http://www.w3.org/1999/xlink" x="0px" y="0px"
	 viewBox="0 0 248.9 78.9" style="enable-background:new 0 0 248.9 78.9;" xml:space="preserve">
<metadata><?xpacket begin="﻿" id="W5M0MpCehiHzreSzNTczkc9d"?>
<x:xmpmeta xmlns:x="adobe:ns:meta/" x:xmptk="Adobe XMP Core 5.6-c111 79.158366, 2015/09/25-01:12:00        ">
   <rdf:RDF xmlns:rdf="http://www.w3.org/1999/02/22-rdf-syntax-ns#">
      <rdf:Description rdf:about=""/>
   </rdf:RDF>
</x:xmpmeta>
                                                                                                    
                                                                                                    
                                                                                                    
                                                                                                    
                                                                                                    
                                                                                                    
                                                                                                    
                                                                                                    
                                                                                                    
                                                                                                    
                                                                                                    
                                                                                                    
                                                                                                    
                                                                                                    
                                                                                                    
                                                                                                    
                                                                                                    
                                                                                                    
                                                                                                    
                                                                                                    
                           
<?xpacket end="w"?></metadata>
<style type="text/css">
	.st0{fill:#454545;}
	.st1{fill:#2694B1;}
</style>
<g>
	<g>
		<path class="st0" d="M109.4,74.8c0,0.2-0.1,0.4-0.2,0.6c-0.2,0.2-0.4,0.2-0.6,0.2c-0.2,0-0.4-0.1-0.6-0.3
			c-0.2-0.2-0.2-0.4-0.2-0.7v-0.2c-0.2,0.2-0.3,0.4-0.6,0.6c-0.2,0.1-0.4,0.3-0.7,0.4s-0.6,0.2-1,0.2c-0.8,0-1.4-0.3-1.9-0.8
			s-0.8-1.4-0.8-2.4c0-0.5,0.1-0.9,0.2-1.3c0.2-0.4,0.4-0.7,0.7-1c0.3-0.3,0.6-0.5,1-0.7s0.8-0.2,1.3-0.2c0.2,0,0.5,0,0.7,0
			c0.2,0,0.4,0.1,0.5,0.1c0.2,0.1,0.3,0.1,0.5,0.1v-0.9c0-0.4-0.1-0.7-0.4-0.9c-0.3-0.3-0.7-0.4-1.1-0.4c-0.2,0-0.3,0-0.5,0
			c-0.2,0-0.3,0.1-0.4,0.1c-0.1,0-0.3,0.1-0.4,0.2c0,0-0.1,0-0.1,0c-0.1,0-0.2,0-0.3,0c-0.2,0-0.4-0.1-0.5-0.2
			c-0.2-0.2-0.2-0.4-0.2-0.6c0-0.1,0-0.2,0.1-0.3s0.1-0.2,0.2-0.2c0.1-0.1,0.2-0.1,0.3-0.2c0.2-0.1,0.4-0.2,0.6-0.3
			c0.2-0.1,0.4-0.1,0.6-0.2c0.2-0.1,0.5-0.1,0.8-0.1c0.5,0,0.9,0.1,1.3,0.2c0.4,0.2,0.7,0.4,1,0.7c0.3,0.3,0.5,0.6,0.7,1
			s0.2,0.8,0.2,1.3V74.8z M107.7,71.2c-0.2,0-0.3-0.1-0.5-0.1c-0.2,0-0.3-0.1-0.5-0.1c-0.2,0-0.4,0-0.7,0c-0.5,0-0.9,0.1-1.1,0.4
			c-0.3,0.3-0.4,0.6-0.4,1.1s0.1,0.9,0.4,1.1c0.3,0.3,0.6,0.4,1,0.4c0.3,0,0.5-0.1,0.8-0.2s0.4-0.3,0.6-0.5c0.2-0.2,0.4-0.4,0.5-0.7
			V71.2z"/>
		<path class="st0" d="M117.6,66.1c0.1-0.1,0.1-0.2,0.2-0.3c0.1-0.1,0.1-0.1,0.2-0.2c0.1-0.1,0.2-0.1,0.4-0.1c0.2,0,0.4,0.1,0.6,0.2
			c0.2,0.2,0.2,0.4,0.2,0.6c0,0.1,0,0.1,0,0.2c0,0.1,0,0.1,0,0.2s0,0.1,0,0.2l-1.4,3.3l1.7,4.1c0,0.1,0,0.1,0,0.2c0,0.1,0,0.1,0,0.2
			c0,0.1,0,0.1,0,0.2c0,0.2-0.1,0.4-0.2,0.6c-0.2,0.2-0.4,0.2-0.6,0.2c-0.1,0-0.3,0-0.4-0.1c-0.1-0.1-0.2-0.1-0.2-0.2
			s-0.1-0.2-0.2-0.3l-1.6-4h-1.5v3.7c0,0.2-0.1,0.4-0.2,0.6c-0.2,0.2-0.4,0.2-0.6,0.2c-0.2,0-0.4-0.1-0.6-0.2
			c-0.2-0.2-0.2-0.4-0.2-0.6v-8.4c0-0.2,0.1-0.4,0.2-0.6c0.2-0.2,0.4-0.2,0.6-0.2c0.2,0,0.4,0.1,0.6,0.2c0.2,0.2,0.2,0.4,0.2,0.6
			v2.9h1.5L117.6,66.1z"/>
		<path class="st0" d="M126.3,69.9c0.4,0.1,0.7,0.3,1,0.5c0.2,0.2,0.5,0.5,0.7,0.8c0.2,0.3,0.3,0.7,0.3,1.2c0,0.4-0.1,0.8-0.3,1.2
			c-0.2,0.4-0.5,0.7-1,1c-0.4,0.3-0.9,0.6-1.6,0.7c-0.6,0.2-1.4,0.3-2.2,0.3H123c-0.2,0-0.4-0.1-0.6-0.2c-0.2-0.2-0.2-0.4-0.2-0.6
			v-8.1c0-0.2,0.1-0.4,0.3-0.6c0.2-0.2,0.4-0.3,0.7-0.3l0.5-0.1c0.1,0,0.3,0,0.5-0.1s0.4,0,0.6,0c0.4,0,0.8,0.1,1.2,0.2
			c0.3,0.1,0.6,0.3,0.9,0.5c0.2,0.2,0.4,0.5,0.6,0.8c0.1,0.3,0.2,0.6,0.2,0.9c0,0.3-0.1,0.6-0.2,0.8c-0.1,0.2-0.3,0.4-0.4,0.6
			C126.7,69.6,126.6,69.7,126.3,69.9z M125.8,68.1c0-0.3-0.1-0.5-0.3-0.6c-0.2-0.2-0.5-0.2-0.9-0.2c-0.1,0-0.2,0-0.3,0
			c-0.1,0-0.2,0-0.2,0c-0.1,0-0.2,0-0.2,0v1.8c0.7,0,1.2-0.1,1.5-0.3C125.6,68.7,125.8,68.4,125.8,68.1z M123.9,73.9
			c1-0.1,1.6-0.3,2-0.7c0.4-0.3,0.6-0.7,0.6-1.1c0-0.3-0.1-0.6-0.4-0.9s-0.7-0.4-1.3-0.4h-1V73.9z"/>
		<path class="st0" d="M137.1,74.8c0,0.2-0.1,0.4-0.2,0.6c-0.2,0.2-0.4,0.2-0.6,0.2c-0.2,0-0.4-0.1-0.6-0.3
			c-0.2-0.2-0.2-0.4-0.2-0.7v-0.2c-0.2,0.2-0.3,0.4-0.6,0.6c-0.2,0.1-0.4,0.3-0.7,0.4s-0.6,0.2-1,0.2c-0.8,0-1.4-0.3-1.9-0.8
			s-0.8-1.4-0.8-2.4c0-0.5,0.1-0.9,0.2-1.3c0.2-0.4,0.4-0.7,0.7-1c0.3-0.3,0.6-0.5,1-0.7s0.8-0.2,1.3-0.2c0.2,0,0.5,0,0.7,0
			c0.2,0,0.4,0.1,0.5,0.1c0.2,0.1,0.3,0.1,0.5,0.1v-0.9c0-0.4-0.1-0.7-0.4-0.9c-0.3-0.3-0.7-0.4-1.1-0.4c-0.2,0-0.3,0-0.5,0
			c-0.2,0-0.3,0.1-0.4,0.1c-0.1,0-0.3,0.1-0.4,0.2c0,0-0.1,0-0.1,0c-0.1,0-0.2,0-0.3,0c-0.2,0-0.4-0.1-0.5-0.2
			c-0.2-0.2-0.2-0.4-0.2-0.6c0-0.1,0-0.2,0.1-0.3s0.1-0.2,0.2-0.2c0.1-0.1,0.2-0.1,0.3-0.2c0.2-0.1,0.4-0.2,0.6-0.3
			c0.2-0.1,0.4-0.1,0.6-0.2c0.2-0.1,0.5-0.1,0.8-0.1c0.5,0,0.9,0.1,1.3,0.2c0.4,0.2,0.7,0.4,1,0.7c0.3,0.3,0.5,0.6,0.7,1
			s0.2,0.8,0.2,1.3V74.8z M135.4,71.2c-0.2,0-0.3-0.1-0.5-0.1c-0.2,0-0.3-0.1-0.5-0.1c-0.2,0-0.4,0-0.7,0c-0.5,0-0.9,0.1-1.1,0.4
			c-0.3,0.3-0.4,0.6-0.4,1.1s0.1,0.9,0.4,1.1c0.3,0.3,0.6,0.4,1,0.4c0.3,0,0.5-0.1,0.8-0.2s0.4-0.3,0.6-0.5c0.2-0.2,0.4-0.4,0.5-0.7
			V71.2z"/>
		<path class="st0" d="M142,70.6c0,0.7,0,1.2,0.1,1.6c0.1,0.4,0.2,0.8,0.4,1s0.4,0.4,0.6,0.5c0.2,0.1,0.5,0.2,0.8,0.2
			c0.4,0,0.7-0.1,1-0.3c0.3-0.2,0.4-0.5,0.6-0.8c0.1-0.1,0.1-0.2,0.2-0.2c0.1-0.1,0.1-0.1,0.2-0.2c0.1,0,0.2-0.1,0.4-0.1
			c0.2,0,0.4,0.1,0.6,0.2c0.2,0.2,0.2,0.4,0.2,0.6c0,0.1,0,0.2,0,0.3s0,0.1,0,0.2s0,0.1,0,0.1c-0.1,0.3-0.3,0.5-0.4,0.7
			c-0.2,0.2-0.4,0.4-0.6,0.6s-0.5,0.3-0.9,0.4s-0.7,0.1-1.1,0.1c-0.5,0-1-0.1-1.4-0.3c-0.4-0.2-0.8-0.5-1.1-0.9
			c-0.3-0.4-0.6-0.9-0.8-1.6c-0.2-0.6-0.3-1.4-0.3-2.3c0-0.9,0.1-1.7,0.3-2.3c0.2-0.6,0.4-1.2,0.8-1.6c0.3-0.4,0.7-0.7,1.1-0.9
			c0.4-0.2,0.9-0.3,1.4-0.3c0.4,0,0.8,0,1.1,0.1c0.3,0.1,0.6,0.2,0.8,0.4s0.4,0.3,0.6,0.5c0.2,0.2,0.3,0.4,0.4,0.6c0,0,0,0.1,0,0.1
			c0,0,0,0.1,0,0.2c0,0.1,0,0.1,0,0.2c0,0.2-0.1,0.4-0.2,0.6s-0.4,0.2-0.6,0.2c-0.1,0-0.3,0-0.4-0.1c-0.1,0-0.2-0.1-0.2-0.2
			s-0.1-0.1-0.2-0.2c0-0.1-0.1-0.2-0.2-0.3s-0.2-0.2-0.3-0.3s-0.3-0.2-0.4-0.2c-0.2-0.1-0.3-0.1-0.5-0.1c-0.3,0-0.6,0.1-0.8,0.2
			c-0.2,0.1-0.4,0.3-0.6,0.5s-0.3,0.6-0.4,1C142.1,69.4,142,70,142,70.6z"/>
		<path class="st0" d="M148.8,66.4c0-0.2,0.1-0.4,0.2-0.6c0.2-0.2,0.4-0.2,0.6-0.2h4.8c0.2,0,0.4,0.1,0.6,0.2
			c0.2,0.2,0.2,0.4,0.2,0.6s-0.1,0.4-0.2,0.6c-0.2,0.2-0.4,0.2-0.6,0.2h-1.5v7.5c0,0.2-0.1,0.4-0.2,0.6c-0.2,0.2-0.4,0.2-0.6,0.2
			s-0.4-0.1-0.6-0.2c-0.2-0.2-0.2-0.4-0.2-0.6v-7.5h-1.5c-0.2,0-0.4-0.1-0.6-0.2C148.8,66.9,148.8,66.7,148.8,66.4z"/>
		<path class="st0" d="M159.4,74.9l-2.6-7.9c0-0.1,0-0.1-0.1-0.2c0-0.1,0-0.2,0-0.3c0-0.3,0.1-0.5,0.2-0.7s0.3-0.3,0.5-0.3
			c0.2,0,0.3,0,0.4,0.1c0.1,0.1,0.2,0.1,0.3,0.2c0.1,0.1,0.1,0.2,0.2,0.3l1.9,6l1.9-6c0-0.1,0.1-0.2,0.2-0.3
			c0.1-0.1,0.1-0.1,0.3-0.2c0.1-0.1,0.2-0.1,0.4-0.1c0.2,0,0.4,0.1,0.5,0.3c0.2,0.2,0.2,0.4,0.2,0.7c0,0.1,0,0.1,0,0.2s0,0.1,0,0.2
			s0,0.1,0,0.2l-3.6,11.3c0,0.1-0.1,0.2-0.2,0.3c-0.1,0.1-0.2,0.1-0.3,0.2c-0.1,0.1-0.3,0.1-0.4,0.1c-0.2,0-0.4-0.1-0.5-0.3
			s-0.2-0.4-0.2-0.7c0-0.1,0-0.2,0-0.3c0-0.1,0-0.1,0.1-0.2L159.4,74.9z"/>
		<path class="st0" d="M172.7,73.9c0.2,0,0.4,0.1,0.6,0.2c0.2,0.2,0.2,0.4,0.2,0.6v2.1c0,0.2-0.1,0.4-0.2,0.6
			c-0.2,0.2-0.4,0.2-0.6,0.2c-0.2,0-0.4-0.1-0.6-0.2c-0.2-0.2-0.2-0.4-0.2-0.6v-1.2h-5.4v1.2c0,0.2-0.1,0.4-0.2,0.6
			c-0.2,0.2-0.4,0.2-0.6,0.2c-0.2,0-0.4-0.1-0.6-0.2c-0.2-0.2-0.2-0.4-0.2-0.6v-2.1c0-0.2,0.1-0.4,0.2-0.6c0.2-0.2,0.4-0.2,0.6-0.2
			c0.3-0.4,0.5-0.9,0.8-1.6c0.2-0.6,0.4-1.4,0.5-2.3c0.2-1,0.2-2.2,0.2-3.6c0-0.2,0.1-0.4,0.2-0.6c0.2-0.2,0.4-0.2,0.6-0.2h3.4
			c0.2,0,0.4,0.1,0.6,0.2c0.2,0.2,0.2,0.4,0.2,0.6v7.5H172.7z M168.8,67.3c0,1.2-0.1,2.3-0.2,3.1c-0.1,0.8-0.3,1.5-0.5,2.1
			c-0.2,0.6-0.4,1.1-0.7,1.5h3v-6.7H168.8z"/>
		<path class="st0" d="M182.9,74.8c0,0.2-0.1,0.4-0.2,0.6c-0.2,0.2-0.4,0.2-0.6,0.2c-0.2,0-0.4-0.1-0.6-0.2
			c-0.2-0.2-0.2-0.4-0.2-0.6v-5.4l-3.2,5.7c-0.1,0.1-0.2,0.3-0.4,0.4c-0.1,0.1-0.3,0.2-0.5,0.2c-0.2,0-0.4-0.1-0.6-0.2
			c-0.2-0.2-0.2-0.4-0.2-0.6v-8.4c0-0.2,0.1-0.4,0.2-0.6c0.2-0.2,0.4-0.2,0.6-0.2c0.2,0,0.4,0.1,0.6,0.2c0.2,0.2,0.2,0.4,0.2,0.6
			v5.4l3.2-5.7c0.1-0.1,0.2-0.3,0.4-0.4c0.1-0.1,0.3-0.2,0.5-0.2c0.2,0,0.4,0.1,0.6,0.2c0.2,0.2,0.2,0.4,0.2,0.6V74.8z"/>
		<path class="st0" d="M187.2,71c-0.2-0.2-0.4-0.4-0.6-0.6c-0.1-0.2-0.3-0.5-0.4-0.8c-0.1-0.3-0.2-0.6-0.2-1c0-0.4,0.1-0.8,0.2-1.2
			s0.4-0.7,0.7-0.9c0.3-0.3,0.7-0.5,1.1-0.6c0.4-0.2,0.9-0.2,1.4-0.2c0.2,0,0.4,0,0.6,0c0.2,0,0.4,0,0.6,0.1c0.2,0,0.4,0.1,0.5,0.1
			c0.3,0,0.5,0.2,0.7,0.3s0.3,0.4,0.3,0.6v8.1c0,0.3-0.1,0.5-0.2,0.6c-0.2,0.2-0.3,0.3-0.6,0.3c-0.3,0-0.5-0.1-0.6-0.2
			c-0.2-0.2-0.3-0.4-0.3-0.6v-2.6c-0.2,0-0.5-0.1-0.7-0.1s-0.4-0.1-0.5-0.1c-0.2,0-0.3-0.1-0.5-0.1l-1.3,3.3
			c-0.1,0.1-0.1,0.2-0.2,0.3c-0.1,0.1-0.1,0.1-0.2,0.2c-0.1,0.1-0.2,0.1-0.4,0.1c-0.2,0-0.4-0.1-0.6-0.2c-0.2-0.2-0.2-0.4-0.2-0.6
			c0-0.1,0-0.2,0-0.3c0,0,0-0.1,0.1-0.2L187.2,71z M187.8,68.6c0,0.5,0.2,0.9,0.6,1.2c0.4,0.3,1.1,0.6,2,0.7v-3
			c-0.1,0-0.2-0.1-0.3-0.1c-0.1,0-0.2,0-0.3-0.1c-0.1,0-0.2,0-0.4,0c-0.6,0-1,0.1-1.3,0.4C187.9,67.9,187.8,68.2,187.8,68.6z"/>
	</g>
	<g>
		<path class="st0" d="M112.9,20.7h2.1c2.6,0,4.7,2.1,4.7,4.7v18.9c0,2.6-2.1,4.7-4.7,4.7h-2.1v3.3h-3.3v-3.3h-2.1
			c-2.6,0-4.7-2.1-4.7-4.7V25.3c0-2.6,2.1-4.7,4.7-4.7h2.1v-3.8h3.3V20.7z M107.4,24c-0.8,0-1.4,0.6-1.4,1.4v18.9
			c0,0.8,0.6,1.4,1.4,1.4h2.1V24H107.4z M115,24h-2.1v21.6h2.1c0.7,0,1.4-0.6,1.4-1.4V25.3C116.4,24.6,115.7,24,115,24z"/>
		<path class="st0" d="M126.1,17.4h7.2c2.5,0,4.7,2.1,4.7,4.7v11.3c0,2.5-1.7,4.6-4.4,4.6h-4.3v14.1h-3.3V17.4z M129.4,34.9h3.8
			c1,0,1.6-0.9,1.6-1.8V22.1c0-0.7-0.6-1.4-1.4-1.4h-4V34.9z"/>
		<path class="st0" d="M156.8,47.5c0,2.6-2.1,4.7-4.7,4.7h-3.3c-2.5,0-4.7-2.1-4.7-4.7V22.1c0-2.6,2.1-4.7,4.7-4.7h3.3
			c2.6,0,4.7,2.1,4.7,4.7V47.5z M152.1,20.7h-3.3c-0.7,0-1.4,0.6-1.4,1.4v25.4c0,0.8,0.6,1.4,1.4,1.4h3.3c0.7,0,1.4-0.6,1.4-1.4
			V22.1C153.5,21.3,152.9,20.7,152.1,20.7z"/>
		<path class="st0" d="M175.9,52.1h-3.3V34.9h-6.1v17.2h-3.3V17.4h3.3v14.5h6.1V17.4h3.3V52.1z"/>
		<path class="st0" d="M188.9,20.7v31.5h-3.3V20.7h-4v-3.3h11.3v3.3H188.9z"/>
		<path class="st0" d="M211.2,47.5c0,2.6-2.1,4.7-4.7,4.7h-3.3c-2.5,0-4.7-2.1-4.7-4.7V22.1c0-2.6,2.1-4.7,4.7-4.7h3.3
			c2.6,0,4.7,2.1,4.7,4.7V47.5z M206.6,20.7h-3.3c-0.7,0-1.4,0.6-1.4,1.4v25.4c0,0.8,0.6,1.4,1.4,1.4h3.3c0.7,0,1.4-0.6,1.4-1.4
			V22.1C207.9,21.3,207.3,20.7,206.6,20.7z"/>
		<path class="st0" d="M216.9,22.1c0-2.6,2.1-4.7,4.7-4.7h1.9c2.6,0,4.7,2.1,4.7,4.7v6.6c0,1.9-0.8,3.7-2.6,4.4
			c1.6,0.6,2.6,2,2.6,3.8v10.6c0,2.5-2.1,4.7-4.7,4.7h-1.9c-2.5,0-4.7-2.1-4.7-4.7v-5.3h3.3v5.3c0,0.7,0.6,1.4,1.4,1.4h1.9
			c0.8,0,1.4-0.6,1.4-1.4v-10c0-1.9-1-2.5-2.7-2.5h-1.6v-3h1.6c1.8,0,2.7-1.5,2.7-3.3v-6.5c0-0.8-0.6-1.4-1.4-1.4h-1.9
			c-0.7,0-1.4,0.6-1.4,1.4v3.9h-3.3V22.1z"/>
		<path class="st0" d="M233.6,52.1l4.7-34.7h5.9l4.7,34.7h-3.3l-1.5-10.2h-5.8l-1.4,10.2H233.6z M241.1,20.6l-2.4,18.3h5.1
			l-2.4-18.3H241.1z"/>
	</g>
	<g>
		<path class="st1" d="M89.1,42.9c-2.7-3.4-9-11.3-8.9-22c0.1-6.8,2.7-12.5,4.3-16c1.1-2.3,1.7-3.6,1.1-4.1
			c-0.1-0.1-0.3-0.3-0.7-0.2c-1.3,0.2-3.7,2.8-5.5,5.2C77.1,9.1,74.7,13,73,17c0,0,0,0-0.1,0l-0.1-0.1c0,0-0.1,0-0.1,0l-0.1-0.1
			c-0.4-0.2-0.7-0.4-1.1-0.6l-1.1-0.6c-0.8-0.4-1.5-0.8-2.3-1.2c1-0.3,1.9-1,2.6-1.9c2.8-3.9,1.3-11.7,1.3-12L71.9,0l-0.3,0.1
			c0,0-2.3,0.6-6.3,1c-3.8,0.4-9.9,0.8-17.7,0.3c-7.8-0.5-12.8-0.6-17.1,0.3c-4.5,0.9-8,3.1-11.4,6.9c-0.1,0-0.3,0.1-0.4,0.1
			c-0.1,0-0.2,0-0.3,0.1l-0.3,0.1c-0.7,0.2-1.4,0.4-2,0.6c-0.2,0.1-0.3,0.1-0.5,0.2c-0.2,0.1-0.3,0.1-0.5,0.2
			c-0.3,0.1-0.6,0.3-1,0.4c-0.1,0-0.2,0.1-0.2,0.1l-0.2,0.1c-0.2,0.1-0.3,0.1-0.5,0.2c-0.2,0.1-0.3,0.1-0.5,0.2
			c-0.2,0.1-0.3,0.2-0.5,0.2c-0.2,0.1-0.3,0.2-0.5,0.2c-0.2,0.1-0.3,0.2-0.4,0.2c-0.3,0.2-0.6,0.3-0.9,0.5c-0.3,0.2-0.6,0.4-0.8,0.6
			c-0.1,0-0.1,0.1-0.2,0.1l-0.2,0.1c-0.1,0.1-0.3,0.2-0.4,0.3c-1,0.8-2,1.7-2.9,2.6c-0.2,0.2-0.4,0.5-0.6,0.7
			c-0.1,0.1-0.2,0.2-0.3,0.3l-0.1,0.1c0,0,0,0,0,0.1l0,0l-0.1,0.2c-0.1,0.1-0.2,0.2-0.3,0.4c0,0.1-0.1,0.1-0.1,0.2l-0.1,0.2
			l-0.1,0.2c0,0.1-0.1,0.1-0.1,0.2c-0.1,0.1-0.2,0.3-0.2,0.4c-0.3,0.6-0.5,1.1-0.7,1.7c-0.2,0.6-0.3,1.1-0.4,1.7
			c-0.5,2.3-0.5,4.5-0.5,6.5c0,1,0.1,2,0.2,3c0.1,0.5,0.1,0.9,0.2,1.4c0.1,0.5,0.2,0.9,0.3,1.3c0.2,0.9,0.4,1.7,0.8,2.5
			c0.2,0.4,0.5,0.8,0.8,1.1c0.1,0.1,0.2,0.2,0.4,0.3c-0.6,0.5-1.4,1.4-1.4,2.7c0,0.8-0.5,1.6-0.9,2.2c-0.1,0.1-0.1,0.2-0.2,0.3
			c0,0,0,0.1-0.1,0.1c-0.3,0.4-1,1.5-1.1,2.4c-0.1,0-0.1,0.1-0.2,0.1c-0.2,0.1-0.4,0.3-0.5,0.4c-0.1,0.1-0.1,0.2-0.2,0.3
			c0,0-0.1,0.1-0.1,0.1l0,0.1l0,0c0,0,0,0,0,0l0,0c0,0.1-0.1,0.2-0.1,0.3c0,0.1,0,0.2-0.1,0.3c0,0.2,0,0.4,0,0.6
			c0,0.4,0.2,0.7,0.5,1c0,0.1-0.1,0.2-0.1,0.4c0,0.2-0.1,0.5-0.1,0.8c0,0.3,0.1,0.7,0.3,1.1c0.5,0.8,1.3,1.4,2.2,2
			c0.2,0.2,0.5,0.3,0.7,0.5c0.1,0.1,0.2,0.2,0.3,0.3c0.1,0.1,0.2,0.2,0.4,0.3c0.5,0.4,1,0.9,1.6,1.3c0.3,0.2,0.6,0.5,0.9,0.7
			C6.9,56.8,7,56.9,7.2,57l0.1,0.1l0.1,0l0.1,0l0.1,0.1l0.1,0.1c0.4,0.2,0.7,0.4,1.1,0.6c0.4,0.2,0.8,0.4,1.2,0.6
			c0.8,0.4,1.6,0.8,2.5,1.1c0.1,0,0.2,0.1,0.4,0.1c0.1,0,0.2,0.1,0.3,0.1c0.2,0.1,0.4,0.2,0.7,0.3c0.4,0.2,0.9,0.4,1.4,0.6
			c0.5,0.2,0.9,0.4,1.4,0.6c0.5,0.2,1,0.4,1.5,0.6c0.1,0,0.3,0.1,0.4,0.1l0.2,0.1c0.1,0,0.1,0,0.2,0.1c0.2,0.1,0.5,0.2,0.7,0.3
			c0.5,0.2,1.1,0.4,1.6,0.6c1.1,0.4,2.3,0.6,3.5,0.8c1.2,0.1,2.5,0.1,3.8,0c0.3-0.1,0.6-0.1,1-0.2c0.2,0,0.3-0.1,0.5-0.1
			c0.2,0,0.3-0.1,0.5-0.1c0.1,0,0.1,0,0.2,0c2.9,6,10.1,9.2,15.7,11c6,1.8,13.2,2.8,20.3,2.8c0.4,0,0.8,0,1.2,0
			c6.9-0.1,12.7-1.2,15.5-3c0.1-0.1,0.2-0.3,0.1-0.4c-0.1-0.2-0.2-0.2-0.4-0.2c-8.8,2.7-19.9,2.6-24.7-3.4c-2.9-3.6-6.1-7.6-8.7-8.9
			c-1.2-0.6-2.1-1.8-2.5-2.5c0.4-0.1,0.8-0.2,1.2-0.4c0.7-0.2,1.4-0.4,2.1-0.6c0.2-0.1,0.3-0.1,0.5-0.1c0.2,0,0.4-0.1,0.6-0.2
			c0.3-0.1,0.6-0.2,0.9-0.3l0,0c0.2,0.1,4.5,3.4,8.7,4.4c0.5,0.1,0.9,0.2,1.3,0.2c2.1,0,2.8-1.6,3.6-3.4c0.4-0.8,0.8-1.7,1.4-2.5
			c0.9-1.2,1.6-1.9,2.3-2.6c1-1,1.9-1.9,2.9-3.9c1.4-2.7,3.6-4.9,5.2-6.4c0.9-0.8,1.6-1.6,2.1-2.2c0.2-0.3,0.2-0.6,0-0.9
			c-0.2-0.3-0.6-0.3-0.9-0.2c-1.1,0.6-2.1,1-3,1.1c-1,0.1-1.4-0.1-2-0.3c-0.6-0.2-1.2-0.5-2.3-0.4c0,0,0,0,0,0
			c0.5-0.7,0.9-1.4,1.4-2c0.5-0.7,0.9-1.4,1.4-2c0.5-0.7,0.9-1.4,1.4-2.1l0.1-0.1l0-0.1c0,0,0-0.1,0-0.1c0,0,0,0,0-0.1l0-0.1
			c0.5,0.5,2.9,3.3,5.6,5.9c1.5,1.5,6,6,7.9,6c0,0,0,0,0.1,0c0.3,0,0.5-0.1,0.7-0.4C90.5,44.7,90.2,44.2,89.1,42.9z M84.7,37.6
			c-3.6-1.3-7.7-5.6-8.5-6.4c0-0.7,0-1.4-0.1-2.2c1.7,0.8,3.5,1.3,5.3,1.7C82.3,33.3,83.5,35.6,84.7,37.6z M81.3,30.4
			c-1.8-0.4-3.5-0.9-5.2-1.7c-0.1-0.8-0.1-1.6-0.2-2.5l4.2-0.9l0-0.2l-4.2,0.9c-0.1-0.7-0.2-1.5-0.3-2.2c0-0.1,0-0.2-0.1-0.3
			c0.9-0.3,2.5-0.8,4.3-1.8C79.8,24.9,80.4,27.8,81.3,30.4z M79.7,20.9c0,0.2,0,0.4,0,0.7c-1.8,1-3.4,1.6-4.3,1.8
			c-0.1-0.7-0.3-1.3-0.4-2c0-0.1,0-0.1,0-0.2c1-0.8,3-2.7,5.3-5.5C80,17.3,79.8,19.1,79.7,20.9z M80.4,15.2
			c-2.3,2.9-4.5,4.9-5.5,5.7c-0.2-0.7-0.4-1.3-0.6-2c1.2-2,6.7-10.7,9.4-13.5C82.6,8,81.2,11.3,80.4,15.2z M85.1,1.1
			c0.2,0,0.2,0,0.2,0c0.3,0.3-0.5,2-1.2,3.6C84.1,4.8,84,4.9,83.9,5c-1.5,1.3-4.1,4.9-6,7.7c-1.3,2-2.4,3.7-2.9,4.5
			c-0.4,0.7-0.7,1.2-0.9,1.5c-0.1-0.3-0.3-0.7-0.5-1c-0.1-0.1-0.2-0.3-0.3-0.4C77.3,8.4,83.4,1.4,85.1,1.1z M69.3,30.4
			c0.3,3,0.7,5.3,0.5,7.9c-0.2,2.5-0.1,3.1,0.1,3.7c-0.4,0.6-0.8,1.3-1.2,1.9c-0.2,0.3-0.4,0.7-0.6,1l-0.3,0.5
			c0.3-1.6,0.8-6.2,0.4-10.3c-0.5-5-0.9-7-2-9.3s-2.4-7.7-3.1-8.9c-0.5-0.8-1-1.7-1.3-2.2c0-0.1,0.1-0.2,0.1-0.1
			c0.9,0.7,3.4,3.1,4.5,6.9C67.8,26.3,69,27.4,69.3,30.4z M70.3,12c-0.7,1-1.7,1.6-2.8,1.9c-0.5-0.2-0.9-0.5-1.4-0.7
			c-0.7-0.3-1.3-0.7-2-1c3.1-2.8,6.2-6.2,7.5-10.9C71.9,3.4,72.4,9,70.3,12z M69.1,1.1c1.2-0.2,2-0.4,2.4-0.5c0,0,0,0,0,0.1
			c-0.8,3-2.3,6.5-7.7,11.3c-1-0.5-2-1-3-1.5c5.6-3.9,7.5-7.8,8.2-9.2C69.1,1.3,69.1,1.2,69.1,1.1z M65.4,1.6
			c1.4-0.2,2.5-0.3,3.5-0.5c0,0,0,0.1-0.1,0.1c-0.6,1.3-2.6,5.3-8.2,9.2c-1-0.5-2-0.9-3-1.4c3.5-2,6.2-5.6,7.2-7
			c0.1-0.2,0.3-0.3,0.3-0.4C65.3,1.7,65.3,1.6,65.4,1.6z M64.9,1.7c-0.1,0.1-0.1,0.2-0.2,0.3c-1,1.4-3.8,5-7.3,7
			c-0.1,0-0.2-0.1-0.3-0.1c-0.8-0.3-1.6-0.7-2.3-1c3-2.1,5.1-4.9,5.6-5.8C62.1,2,63.6,1.8,64.9,1.7z M60.1,2.1
			c-0.5,0.9-2.6,3.7-5.6,5.7c-0.7-0.3-1.3-0.5-2-0.8c-0.3-0.1-0.6-0.2-0.9-0.3L57,2.2C58.1,2.1,59.1,2.1,60.1,2.1z M56.7,2.2
			l-5.3,4.4c0,0,0,0,0,0c-0.4-0.1-0.8-0.2-1.2-0.4l-0.1,0l-0.1,0l-0.1,0l-0.3-0.1L49,5.9c-0.2,0-0.4-0.1-0.6-0.1
			c-0.2,0-0.4-0.1-0.6-0.1c-0.8-0.1-1.6-0.2-2.4-0.2c0.7-0.7,2.7-2.4,4.6-3.5v0C52.4,2.2,54.7,2.2,56.7,2.2z M47.6,1.9
			c0.7,0,1.3,0.1,2,0.1c-2.1,1.2-3.9,2.9-4.5,3.5c-0.7,0-1.4,0-2.1,0c-0.8,0-1.6,0.1-2.4,0.1c-0.6,0-1.2,0.1-1.7,0.1
			c0.8-0.8,2.9-3,4.5-4.2C44.7,1.7,46.1,1.8,47.6,1.9z M43,1.7c-1.7,1.3-3.9,3.6-4.5,4.2c-0.1,0-0.2,0-0.3,0
			c-1.9,0.2-3.8,0.4-5.7,0.7c0.7-0.8,2.7-3.1,5.1-5l0,0C39.3,1.5,41.1,1.6,43,1.7z M37.4,1.5c-2.6,2.1-4.7,4.5-5.2,5.1
			c-1,0.1-2.1,0.3-3.1,0.4c-1,0.1-2,0.3-3.1,0.4c0.7-0.8,3.8-4.5,6.1-5.5l0-0.1C33.8,1.7,35.5,1.6,37.4,1.5z M31.7,2
			c-1,0.5-2.3,1.5-3.7,3c-1.2,1.3-2.2,2.4-2.2,2.4l0,0c-0.2,0-0.4,0.1-0.7,0.1c-0.1,0-0.1,0-0.1,0l-0.1,0l-0.4,0.1
			c-0.7,0.1-1.3,0.2-2,0.3C22.4,7.9,22.2,8,22,8c-0.2,0-0.4,0.1-0.5,0.1c-0.4,0.1-0.7,0.1-1.1,0.2c-0.1,0-0.2,0-0.3,0.1
			C23.5,4.6,27,2.8,31.7,2z M18.4,9.3l0.3-0.1c0.1,0,0.2,0,0.3-0.1c0,0,0.1,0,0.1,0L18.4,9.3C18.4,9.3,18.4,9.3,18.4,9.3z M4.9,18.5
			L5,18.3l0.1-0.2c0-0.1,0.1-0.1,0.1-0.2c0.1-0.1,0.2-0.2,0.3-0.3l0.1-0.2l0,0c0,0,0,0,0,0l0.1-0.1C5.9,17.1,6,17,6.1,16.9
			c0.2-0.2,0.4-0.5,0.6-0.7c0.8-0.9,1.7-1.8,2.7-2.6c0.1-0.1,0.3-0.2,0.4-0.3l0.2-0.1c0.1,0,0.1-0.1,0.2-0.1
			c0.3-0.2,0.5-0.4,0.8-0.6c0.3-0.2,0.6-0.3,0.8-0.5c0.1-0.1,0.3-0.2,0.4-0.2c0.1-0.1,0.3-0.2,0.4-0.2c0.1-0.1,0.3-0.2,0.4-0.2
			c0,0,0,0,0,0c0.2,0.1,0.6,0.7,0.9,1.2c0.8,1.2,2.1,3,4.2,4.8c2.4,2.1,3.6,4.2,4.7,6c0.6,1,1.1,1.9,1.8,2.7
			c1.8,2.2,3.9,2.5,4.2,2.5c0.2,0,2.1,0.6,2.8,2.2c0.6,1.5,0.7,4.1,0.7,4.9c-0.7-0.1-1.3-0.1-2.1,0.1c-0.9,0.2-3.8,1.1-4.8,3.2
			c0,0-0.1,0-0.1,0c0,0,0,0-0.1,0c-0.3,0-0.7-0.3-1.1-0.6c0-0.1,0-0.2,0-0.3c0-1.8-1.4-3.2-3.2-3.3c-0.8-0.9-1.3-2.1-1.9-3.3
			c-0.3-0.6-0.6-1.3-1-2c-1.1-2-2.8-3.3-4.9-4.8c-1.7-1.2-1.9-1.6-3.1-3.6c-0.2-0.3-0.4-0.7-0.7-1.1c-0.7-1.2-1.7-1.8-2.8-1.8
			C6,18.1,5.4,18.3,4.9,18.5C4.9,18.5,4.9,18.5,4.9,18.5z M23.8,38c0,1.5-1.2,2.7-2.8,2.7c-1.5,0-2.8-1.2-2.8-2.7
			c0-1.5,1.2-2.8,2.8-2.8C22.6,35.3,23.8,36.5,23.8,38z M3.6,53.1c-0.1-0.1-0.2-0.1-0.3-0.2c-0.5-0.3-0.9-0.6-1.2-0.9
			c-0.2-0.1-0.3-0.3-0.5-0.4c-0.1-0.1-0.1-0.2-0.2-0.2c0,0,0-0.1-0.1-0.1c0,0-0.1-0.1-0.1-0.1c-0.2-0.3-0.2-0.6-0.3-0.8
			c0-0.3,0-0.5,0-0.7c0-0.1,0-0.1,0-0.1c0,0,0,0,0.1,0c0.1,0,0.2,0.1,0.2,0.1c0.1,0,0.1,0.1,0.2,0.1c0.6,0.2,1.1,0.5,1.7,0.7
			c0.5,0.2,1,0.4,1.5,0.7c1,0.4,1.8,0.9,2.6,1.3c0.4,0.2,0.7,0.4,1,0.6c0.2,0.1,0.3,0.2,0.4,0.3c0.1,0.1,0.3,0.2,0.4,0.3
			c0.1,0,0.1,0.1,0.2,0.1c0.1,0,0.1,0.1,0.2,0.1C9.5,54,9.6,54,9.7,54.1c0.2,0.1,0.3,0.3,0.5,0.4c0.3,0.2,0.4,0.3,0.4,0.3l0,0
			c0.1,0.1,0.2,0.1,0.2,0c0.1-0.1,0.1-0.2,0-0.2c0,0-0.1-0.1-0.4-0.4c-0.1-0.1-0.1-0.1-0.2-0.2c-0.1-0.1-0.2-0.2-0.2-0.2
			c-0.1-0.1-0.2-0.2-0.3-0.3c-0.1,0-0.1-0.1-0.2-0.1c-0.1,0-0.1-0.1-0.2-0.2C9.3,53.1,9.1,53,9,52.9c-0.1-0.1-0.3-0.2-0.4-0.3
			c-0.3-0.2-0.6-0.5-1-0.7c-0.7-0.5-1.6-1-2.6-1.5c-0.5-0.2-1-0.5-1.5-0.7c-0.5-0.2-1.1-0.5-1.6-0.7c-0.1,0-0.1-0.1-0.2-0.1
			c-0.1,0-0.1-0.1-0.2-0.1c0,0-0.1,0-0.1,0l-0.1-0.1l-0.1-0.1c0,0,0,0-0.1-0.1c-0.2-0.2-0.3-0.3-0.3-0.6c0-0.1,0-0.2,0-0.4
			c0-0.1,0-0.1,0-0.2c0,0,0-0.1,0-0.1c0,0,0-0.1,0-0.1l0,0l0,0l0,0l0,0c0,0,0-0.1,0-0.1c0-0.1,0.1-0.1,0.1-0.1
			c0.1-0.1,0.2-0.2,0.3-0.2c0.2-0.1,0.5-0.1,0.7-0.1c0.3,0,0.6,0.1,0.9,0.2c0.6,0.2,1.2,0.5,1.8,0.9C5.4,48,6,48.5,6.6,48.9
			c0.6,0.4,1.1,0.9,1.7,1.3c0.5,0.5,1.1,0.9,1.6,1.4c0.3,0.2,0.5,0.5,0.8,0.7c0.3,0.2,0.5,0.5,0.8,0.7c0.5,0.5,1,1,1.4,1.5
			c0.4,0.5,0.8,1.1,1.1,1.6c0.1,0.3,0.2,0.6,0.2,0.8c0,0.1,0,0.1,0,0.1c0,0,0,0.1-0.1,0.1c-0.1,0.1-0.1,0.1-0.2,0.1
			c-0.2,0.1-0.5,0-0.8,0c-0.3-0.1-0.5-0.2-0.8-0.3c-0.3-0.1-0.5-0.3-0.7-0.5c-0.1-0.1-0.2-0.2-0.3-0.3c-0.1-0.1-0.2-0.2-0.3-0.3
			c-0.5-0.4-1-0.7-1.4-0.9c-1-0.5-1.9-0.8-2.8-1.1c-0.8-0.3-1.6-0.4-2.2-0.6C4,53.2,3.8,53.1,3.6,53.1z M29.8,62.5
			c-0.2,0-0.3,0.1-0.5,0.1c-0.3,0-0.6,0.1-0.9,0.1c-1.2,0.1-2.4,0.1-3.5,0c-1.1-0.1-2.3-0.4-3.3-0.7c-0.5-0.2-1-0.4-1.6-0.6
			c-0.3-0.1-0.5-0.2-0.8-0.3c-0.1,0-0.1,0-0.2-0.1l-0.2-0.1c-0.1,0-0.2-0.1-0.4-0.1c-0.5-0.2-1-0.4-1.5-0.6c-0.5-0.2-1-0.4-1.4-0.6
			c-0.5-0.2-0.9-0.4-1.4-0.6c-0.2-0.1-0.5-0.2-0.7-0.3c-0.1,0-0.2-0.1-0.4-0.1c-0.1,0-0.2-0.1-0.3-0.1c-0.9-0.3-1.7-0.7-2.5-1
			c-0.4-0.2-0.8-0.4-1.2-0.5c-0.4-0.2-0.7-0.4-1.1-0.6L8,56.5l-0.1-0.1l-0.1,0l-0.1,0l-0.1-0.1c-0.2-0.1-0.3-0.2-0.5-0.3
			c-0.3-0.2-0.6-0.4-0.9-0.7c-0.6-0.4-1.1-0.9-1.6-1.3c-0.1-0.1-0.2-0.1-0.2-0.2C5,54,5.6,54.2,6.3,54.4C7.1,54.7,8,55,9,55.5
			c0.5,0.3,0.9,0.6,1.3,0.9c0.1,0.1,0.2,0.2,0.3,0.3c0.1,0.1,0.2,0.2,0.4,0.3c0.2,0.2,0.5,0.4,0.8,0.5c0.3,0.2,0.6,0.3,0.9,0.4
			c0.3,0.1,0.7,0.2,1.1,0.1c0.2,0,0.4-0.1,0.6-0.3c0.1-0.1,0.2-0.2,0.2-0.3c0-0.1,0.1-0.2,0.1-0.3c0-0.2,0-0.4,0-0.6
			c0-0.2-0.1-0.4-0.2-0.5c-0.3-0.7-0.7-1.3-1.1-1.8c-0.4-0.6-0.9-1.1-1.4-1.6c-0.3-0.3-0.5-0.5-0.8-0.8c-0.3-0.2-0.5-0.5-0.8-0.7
			c-0.5-0.5-1.1-1-1.6-1.4c-0.5-0.5-1.1-0.9-1.7-1.4c-0.6-0.4-1.2-0.9-1.8-1.2c-0.6-0.4-1.2-0.7-1.9-1c-0.3-0.1-0.7-0.2-1.1-0.3
			c0,0,0,0,0,0C2.4,45,2.9,44.3,3.2,44c0-0.1,0.1-0.1,0.1-0.1c0.1-0.1,0.1-0.2,0.2-0.3c0.5-0.7,1.2-1.7,1.1-2.8
			c-0.1-1,0.9-1.8,1.3-2.1c0,0,0,0,0,0c0.3,0.1,0.6,0.2,0.9,0.3c0.4,0.1,0.7,0.1,1,0.2c0.7,0.1,1.3,0.1,1.8,0.2c1.1,0.1,2.1,0,2.9,0
			c0.8,0,1.4-0.1,1.8-0.2c0.2,0,0.4,0,0.5-0.1c0.1,0,0.2,0,0.2,0c0.1,0,0.2-0.2,0.2-0.3c0-0.1-0.2-0.2-0.3-0.2c0,0-0.2,0-0.6,0.1
			c-0.4,0-1,0.1-1.8,0.1c-0.8,0-1.7,0-2.8-0.1c-0.6,0-1.2-0.1-1.8-0.2c-0.3-0.1-0.6-0.1-0.9-0.2C6.6,38.1,6.2,38,6,37.9l-0.1,0l0,0
			c0,0,0,0,0,0l-0.1-0.1c-0.1,0-0.1-0.1-0.2-0.1c-0.1-0.1-0.3-0.2-0.4-0.3c-0.2-0.2-0.4-0.5-0.6-0.8C4.2,35.8,4,35,3.8,34.1
			c-0.1-0.4-0.2-0.9-0.3-1.3c-0.1-0.4-0.1-0.9-0.2-1.4c-0.1-0.9-0.2-1.9-0.2-2.9c0-1,0-2,0-3.1c0-0.3,0-0.6,0.1-0.9
			c0.1,0,0.2,0,0.4,0c0.4,0,1.2,0.1,1.8,0.9c0.7,1,2.2,1.8,3.4,2.5c0.6,0.4,1.2,0.7,1.5,1c1.1,0.9,5.7,5.4,6.2,6.6
			c0.5,1.1,1,2,1.2,2.2c0,0.1,0,0.1,0,0.2c0,1.8,1.5,3.3,3.3,3.3c0.1,0,0.2,0,0.3,0l0,0c0.2,0.4,0.6,1.9,1,4
			c0.5,2.4,0.8,4.4,0.7,5.2c-0.1,1.2,1.4,2.7,2.5,4c0.6,0.6,1.1,1.2,1.2,1.5c0.1,0.2,0.2,0.5,0.2,0.9c0.2,0.9,0.4,1.9,1.2,2
			c0.2,0,0.4,0,0.7,0c0.1,0,0.2,0,0.3,0c0.3,0,0.7,0,0.9,0.2c-0.4,0.7-0.8,1.2-0.8,1.2c-0.1,0.1-0.1,0.3,0,0.4
			c0.1,0,0.1,0.1,0.2,0.1c0.1,0,0.1,0,0.2-0.1c0,0,0.4-0.5,0.8-1.2l0,0l0.1-0.3c1.2-2.3,2.5-7-1.9-12.5c-2.5-3.1-2.9-6.2-2.7-7.1
			c0,0,0-0.1,0-0.1c0.8-2,3.7-3.5,4.6-3.7c1-0.2,1.5-0.7,2.2-0.7h0c1.6,0,3,2,3.4,2.8c0.3,0.7,0.3,2.1,0.3,3.4c0,1.8,0,4.2,0.9,6.8
			c0.9,2.7,1.2,5.1,0.9,7c-1.1,4.7-5.9,5.6-6,5.6c-0.1,0-0.2,0.2-0.2,0.3c0,0.1,0.1,0.2,0.3,0.2c0,0,0,0,0,0c0.1,0,1.3-0.2,2.8-1.1
			c0.9-0.5,1.9-1.4,2.7-2.6c-0.3,1.1-1,2.5-2.3,3.6c-1.2,0.3-2.3,0.6-3.4,0.9c-0.3,0.1-0.6,0.2-0.9,0.2c-0.2,0-0.3,0.1-0.5,0.1
			l-0.1,0l-0.1,0l-0.2,0.1C30.1,62.5,30,62.5,29.8,62.5z M69.5,75.7c3.6,0.3,7.7-0.1,11.6-1c-6.9,2.6-22.3,2.9-34.5-0.9
			C41.1,72.1,34,69,31.2,63.2c0.1,0,0.2,0,0.2-0.1c0.3-0.1,0.6-0.2,0.9-0.3c0.3-0.1,0.6-0.2,0.9-0.3c3.2,3.6,6.6,6.2,10.5,8.1
			c4.5,2.2,9.6,3.3,15.2,3.3c1.1,0,2.3,0,3.4-0.1C64.5,74.9,66.8,75.5,69.5,75.7z M57.9,70.5c1.1,1.4,2.5,2.5,4.2,3.3
			c-6.8,0.5-12.9-0.6-18.2-3.2c-3.9-1.9-7.3-4.5-10.4-8c0.9-0.2,1.8-0.5,2.7-0.7c0.7,0.8,2.7,2.7,5.7,4.6c3.1,1.9,8,4.1,14,4.1
			C56.5,70.5,57.2,70.5,57.9,70.5C57.9,70.4,57.9,70.5,57.9,70.5z M57.7,70.2c-6.9,0.5-12.3-1.9-15.8-4c-2.9-1.8-4.8-3.6-5.6-4.5
			c1-0.3,1.9-0.5,2.9-0.8c0,0,0,0,0,0c0.8,0.7,2.7,2.4,5.5,3.8c3.1,1.6,6.3,2.4,9.5,2.4c0.3,0,0.6,0,0.9,0
			C56.1,68.2,56.9,69.2,57.7,70.2z M55,66.9c-3.4,0.1-6.8-0.7-10.1-2.4c-2.7-1.4-4.5-2.9-5.3-3.7c0.8-0.2,1.7-0.5,2.5-0.7
			c1,0.9,3.9,3.3,9.7,3.3C52.9,64.5,53.9,65.7,55,66.9z M49.4,61.7c0.7,0.4,1.4,0.9,2.1,1.6c-5.4-0.1-8.2-2.3-9.2-3.2
			c0.6-0.2,1.3-0.4,1.9-0.6c0.8-0.2,1.6-0.5,2.4-0.7C47.1,59.5,48.1,60.9,49.4,61.7z M47.5,57.8c-0.6,0.2-1.2,0.3-1.8,0.5
			c-0.4-2.1-2-12.2-1.7-16.2c0.4-4.9,0.2-8.8-0.8-11.7c-0.8-2.6-2-4-3.1-5.4c-0.7-0.9-1.4-1.6-1.7-2.6c-0.8-2.1-4.3-6-7-8.9
			c-1.8-2-3.4-3.5-4.1-4.2c-0.8-0.7-1.2-1.2-1.5-1.4c1.2-0.2,2.4-0.3,3.6-0.5c0.6-0.1,1.3-0.2,1.9-0.3c2.2,1.5,13,12.9,14.4,24
			c1.5,11.9,0.7,12.2,1.6,17.8C47.8,53.5,47.6,56.7,47.5,57.8z M41.4,6.1c0.5,0,1,0,1.6-0.1c1.1,0,2.3,0,3.4,0.1
			C48.3,8,57.2,17.5,57.9,21.5c0.8,4.5,1.4,5,1.3,9.6c-0.1,4.5,0.1,6.2,0.8,7.6s1.6,1.4,0.4,7.2c-1.2,5.6-0.5,4.5-3.1,8.7
			c-0.6,0.3-1.2,0.6-1.8,0.8c0-0.8-0.1-2.9,0-4.7c0.1-2.2,0.4-6.3,1.7-9.9c1.3-3.6,0.8-11.8,0-15.9C56.4,21.1,43.4,8,41.4,6.1z
			 M61.3,61c-3.5-0.8-7.2-3.4-8.2-4.1c1.1-0.4,2.2-0.8,3.2-1.3c0.7,0.7,3.7,3.3,8.4,4.2C64,60.9,63.1,61.4,61.3,61z M65.6,58.1
			c-0.3,0.6-0.5,1.1-0.8,1.5c-4.6-0.9-7.5-3.4-8.3-4.1c1-0.5,1.9-1,2.8-1.5c0,0,0,0,0,0c0.5,0.5,1.9,2,6.8,2.9
			C65.9,57.3,65.7,57.7,65.6,58.1z M67,55.5c-0.3,0.4-0.5,0.8-0.7,1.2c-4.9-0.9-6.3-2.3-6.7-2.8c0.5-0.3,1-0.6,1.5-0.9
			c0.2-0.2,0.5-0.3,0.7-0.5c0.5,0.4,2.4,1.7,6.3,1.8C67.7,54.6,67.3,55,67,55.5z M69.3,52.8c-0.4,0.4-0.7,0.7-1.1,1.2
			c-3.8-0.1-5.7-1.3-6.3-1.7c0.3-0.3,0.7-0.5,1-0.8c0.4-0.3,0.8-0.7,1.2-1c0,0,0.1,0,0.1,0c0.6,0.2,1.9,0.7,3.6,0.7
			c1,0,2.1-0.1,3.4-0.6C70.6,51.6,69.9,52.2,69.3,52.8z M72.1,49.1c-0.3,0.5-0.5,0.9-0.7,1.2c-3.6,1.3-6.2,0.3-7.1,0c0,0,0,0,0,0
			c0.1-0.1,0.3-0.3,0.4-0.4c0.6-0.6,1.1-1.1,1.6-1.8c0,0,0.1-0.1,0.1-0.1c0.1,0,0.3,0,0.4,0c0.5,0.1,1.1,0.2,2.1,0.2
			c1,0,2.3-0.1,4-0.5C72.6,48.2,72.4,48.6,72.1,49.1z M73.1,47.5c-3.4,0.8-5.3,0.5-6.2,0.3c-0.1,0-0.2,0-0.3,0
			c0.2-0.2,0.3-0.4,0.5-0.6c0.1-0.2,0.2-0.3,0.4-0.5c0.1-0.2,0.2-0.3,0.3-0.5l0.3-0.5l0,0c0.4,0.1,1.7,0.5,3.3,0.5
			c0.9,0,1.9-0.1,2.9-0.4C73.9,46.3,73.5,46.9,73.1,47.5z M74.6,45.5c-3.1,0.9-5.6,0.2-6.4,0l0.2-0.3c0.2-0.3,0.4-0.7,0.6-1
			c0.2-0.3,0.4-0.7,0.6-1c0.6,0.2,2.6,0.6,4.7,0.6c0.7,0,1.3,0,2-0.2C75.8,44.2,75.2,44.8,74.6,45.5z M73.8,41
			c0.6,0.2,1.2,0.5,2.3,0.3c0.9-0.1,2-0.5,3.2-1.1c0.1-0.1,0.2,0,0.2,0c0,0,0.1,0.1,0,0.2c-0.5,0.6-1.1,1.3-2,2.1
			c-0.3,0.2-0.5,0.5-0.8,0.8c-2.6,0.6-5.9-0.2-6.8-0.4c0.2-0.3,0.4-0.6,0.5-0.8c0.3-0.5,0.6-1,1-1.5C72.6,40.5,73.2,40.8,73.8,41z
			 M75.6,32.6c0,0.2,0,0.4-0.1,0.6c0,0,0,0.1,0,0.1l0,0c0,0,0,0,0,0.1c0,0,0,0,0,0.1l0,0.1l-0.1,0.1c-0.4,0.7-0.9,1.4-1.3,2.1
			c-0.1,0.2-0.3,0.4-0.4,0.7c0-0.5,0.1-2.6,0-3.4c-0.1-1-0.4-2.1-0.5-4c-0.1-1.9-0.2-3.2-0.7-5.3c-0.5-2.1-0.5-2.3-1.5-4.3
			c-0.6-1.3-1.2-2.6-1.5-3.4c0.2,0.1,0.4,0.2,0.6,0.3l1.1,0.6c0.4,0.2,0.7,0.4,1.1,0.6l0.1,0.1c0,0,0,0,0.1,0l0,0c0,0,0.1,0,0.1,0.1
			l0.1,0.1c0.1,0.1,0.2,0.3,0.3,0.4c0.2,0.3,0.4,0.7,0.5,1.1c0.3,0.7,0.5,1.5,0.7,2.3c0.2,0.8,0.4,1.6,0.5,2.4
			c0.2,0.8,0.3,1.6,0.4,2.4c0.1,0.8,0.2,1.6,0.3,2.5c0.1,0.8,0.1,1.6,0.2,2.5C75.6,31.8,75.6,32.2,75.6,32.6z M89.6,44.8
			C87.4,45,79.2,36.3,76.3,33L76,33.2c0.1-0.2,0.1-0.4,0.1-0.6c0-0.4,0.1-0.8,0.1-1.1c0.5,0.6,1.6,1.6,2.8,2.7
			c1.5,1.3,3.8,3,5.9,3.7c1.4,2.3,2.9,4.1,3.8,5.3c0.5,0.7,1,1.3,1.1,1.5C89.8,44.8,89.7,44.8,89.6,44.8z"/>
		<circle class="st1" cx="20.5" cy="38.1" r="1.6"/>
	</g>
</g>
</svg>
