<?xml version="1.0" encoding="utf-8"?>
<!-- Generator: Adobe Illustrator 19.2.0, SVG Export Plug-In . SVG Version: 6.00 Build 0)  -->
<svg version="1.1" id="_x31_2632c82-7fa4-4be4-98fe-f0a9ac7e7d1b"
	 xmlns="http://www.w3.org/2000/svg" xmlns:xlink="http://www.w3.org/1999/xlink" x="0px" y="0px" viewBox="0 0 146.1 156.2"
	 style="enable-background:new 0 0 146.1 156.2;" xml:space="preserve">
<style type="text/css">
	.st0{fill:#FFFFFF;}
</style>
<title>logo-on-dark-small</title>
<metadata><?xpacket begin="﻿" id="W5M0MpCehiHzreSzNTczkc9d"?>
<x:xmpmeta xmlns:x="adobe:ns:meta/" x:xmptk="Adobe XMP Core 5.6-c111 79.158366, 2015/09/25-01:12:00        ">
   <rdf:RDF xmlns:rdf="http://www.w3.org/1999/02/22-rdf-syntax-ns#">
      <rdf:Description rdf:about=""
            xmlns:dc="http://purl.org/dc/elements/1.1/">
         <dc:title>
            <rdf:Alt>
               <rdf:li xml:lang="x-default">logo-on-dark-small</rdf:li>
            </rdf:Alt>
         </dc:title>
      </rdf:Description>
   </rdf:RDF>
</x:xmpmeta>
                                                                                                    
                                                                                                    
                                                                                                    
                                                                                                    
                                                                                                    
                                                                                                    
                                                                                                    
                                                                                                    
                                                                                                    
                                                                                                    
                                                                                                    
                                                                                                    
                                                                                                    
                                                                                                    
                                                                                                    
                                                                                                    
                                                                                                    
                                                                                                    
                                                                                                    
                                                                                                    
                           
<?xpacket end="w"?></metadata>
<path class="st0" d="M10.1,124.7h2.1c2.6,0,4.7,2.1,4.7,4.7l0,0v18.8c0,2.6-2.1,4.7-4.7,4.7l0,0h-2.1v3.3H6.8v-3.3H4.7
	c-2.6,0-4.7-2.1-4.7-4.7l0,0v-18.8c0-2.6,2.1-4.7,4.7-4.7l0,0h2.1V121h3.3V124.7L10.1,124.7z M4.7,128c-0.8,0-1.4,0.6-1.4,1.4l0,0
	v18.8c0,0.8,0.6,1.4,1.3,1.4c0,0,0,0,0.1,0h2.1V128L4.7,128L4.7,128z M12.2,128h-2.1v21.6h2.1c0.8,0,1.4-0.6,1.4-1.4l0,0v-18.8
	C13.6,128.6,13,128,12.2,128L12.2,128z"/>
<path class="st0" d="M23.3,121.4h7.2c2.6,0,4.6,2.1,4.7,4.7v11.3c0.1,2.4-1.7,4.5-4.1,4.6c-0.1,0-0.2,0-0.2,0h-4.3v14.1h-3.3
	L23.3,121.4L23.3,121.4z M26.6,139h3.8c0.9,0,1.6-0.8,1.6-1.8c0,0,0,0,0,0v-11.1c0-0.8-0.6-1.4-1.4-1.4h-4L26.6,139L26.6,139z"/>
<path class="st0" d="M54,151.5c0,2.6-2.1,4.7-4.7,4.7l0,0h-3.3c-2.6,0-4.6-2.1-4.7-4.7v-25.4c0-2.6,2.1-4.6,4.7-4.7h3.3
	c2.6,0,4.7,2.1,4.7,4.7l0,0V151.5z M49.4,124.7h-3.3c-0.8,0-1.4,0.6-1.4,1.4v25.4c0,0.8,0.6,1.4,1.4,1.4l0,0h3.3
	c0.8,0,1.4-0.6,1.4-1.4l0,0v-25.4C50.7,125.3,50.1,124.7,49.4,124.7L49.4,124.7z"/>
<path class="st0" d="M73.1,156.2h-3.3V139h-6.1v17.2h-3.3v-34.7h3.3v14.5h6.1v-14.5h3.3V156.2z"/>
<path class="st0" d="M86.1,124.7v31.5h-3.3v-31.5h-4v-3.3h11.3v3.3H86.1L86.1,124.7z"/>
<path class="st0" d="M108.4,151.5c0,2.6-2.1,4.7-4.7,4.7l0,0h-3.3c-2.6,0-4.6-2.1-4.7-4.7v-25.4c0-2.6,2.1-4.6,4.7-4.7h3.3
	c2.6,0,4.7,2.1,4.7,4.7l0,0V151.5z M103.8,124.7h-3.3c-0.8,0-1.4,0.6-1.4,1.4v25.4c0,0.8,0.6,1.4,1.4,1.4l0,0h3.3
	c0.8,0,1.4-0.6,1.4-1.4l0,0v-25.4C105.2,125.3,104.5,124.7,103.8,124.7L103.8,124.7z"/>
<path class="st0" d="M114.1,126.1c0-2.6,2.1-4.6,4.7-4.7h1.9c2.6,0,4.7,2.1,4.7,4.7l0,0v6.6c0.1,1.9-0.9,3.6-2.6,4.4
	c1.6,0.6,2.7,2.1,2.6,3.8v10.6c0,2.6-2.1,4.6-4.7,4.7h-1.9c-2.6,0-4.6-2.1-4.7-4.7v-5.3h3.3v5.3c0,0.8,0.6,1.4,1.4,1.4h1.9
	c0.8,0,1.4-0.6,1.4-1.4l0,0v-10c0-1.9-1-2.5-2.7-2.5h-1.6v-3h1.6c1.8,0,2.7-1.5,2.7-3.3v-6.5c0-0.8-0.6-1.4-1.4-1.4l0,0h-1.9
	c-0.8,0-1.4,0.6-1.4,1.4l0,0v3.9h-3.3V126.1L114.1,126.1z"/>
<path class="st0" d="M130.8,156.2l4.7-34.7h5.9l4.7,34.7h-3.3l-1.5-10.2h-5.8l-1.4,10.2H130.8z M138.3,124.7l-2.4,18.3h5.1
	l-2.4-18.2L138.3,124.7L138.3,124.7z"/>
<g>
	<path class="st0" d="M137.6,62c-3.9-4.8-12.9-16.2-12.7-31.5c0.1-9.7,3.9-17.9,6.2-22.9c1.5-3.3,2.4-5.1,1.6-5.9
		c-0.3-0.3-0.7-0.4-1-0.3c-1.8,0.3-5.2,4.1-7.8,7.5c-3.7,5-6.9,10.3-9.4,16l-0.1-0.1l-0.1-0.1l-0.1-0.1l-0.2-0.1l-1.5-0.9l-1.6-0.9
		c-1.1-0.6-2.2-1.2-3.3-1.8c1.5-0.5,2.8-1.5,3.7-2.8c4-5.6,1.9-16.7,1.8-17.2l-0.1-0.4l-0.4,0.1c-3,0.7-6,1.2-9.1,1.5
		c-8.4,0.9-16.9,1-25.3,0.4C67.1,1.9,59.9,1.7,53.8,3c-6.5,1.3-11.5,4.4-16.2,9.9L37,13l-0.4,0.1l-0.4,0.1c-1,0.3-2,0.5-2.9,0.9
		l-0.7,0.2c-0.2,0.1-0.5,0.2-0.7,0.2l-1.2,0.6l-0.3,0.1L30,15.4l-0.7,0.3L28.7,16L28,16.3l-0.6,0.3c-0.2,0.1-0.4,0.2-0.6,0.3
		l-1.2,0.7l-1.2,0.8L24,18.8L23.7,19l-0.6,0.4c-1.5,1.1-2.8,2.4-4.1,3.7c-0.3,0.3-0.6,0.6-0.9,1l-0.5,0.5l-0.1,0.1l-0.1,0.1
		l-0.1,0.1l-0.2,0.2c-0.1,0.2-0.3,0.4-0.4,0.5l-0.2,0.3l-0.2,0.3l-0.2,0.3L16,26.8c-0.1,0.2-0.2,0.4-0.3,0.6c-0.4,0.8-0.7,1.6-1,2.4
		c-0.3,0.8-0.5,1.6-0.6,2.5c-0.6,3.1-0.8,6.2-0.7,9.3c0,1.5,0.2,2.9,0.3,4.2c0.1,0.7,0.2,1.3,0.3,2.1c0.1,0.7,0.3,1.3,0.4,1.9
		c0.3,1.2,0.6,2.4,1.2,3.6c0.3,0.6,0.7,1.1,1.1,1.5c0.2,0.1,0.3,0.3,0.5,0.4c-1.2,0.9-1.9,2.3-1.9,3.8c-0.1,1.2-0.6,2.3-1.3,3.2
		l-0.3,0.4l-0.1,0.1c-0.8,1-1.3,2.2-1.6,3.4l-0.3,0.1c-0.3,0.1-0.5,0.4-0.7,0.6c-0.1,0.1-0.2,0.2-0.3,0.4c0,0.1-0.1,0.1-0.1,0.2v0.1
		l0,0l0,0l0,0c-0.1,0.1-0.1,0.3-0.1,0.4c0,0.1-0.1,0.3-0.1,0.4c0,0.3,0,0.6,0,0.9c0.1,0.5,0.3,1.1,0.7,1.5c-0.1,0.2-0.1,0.4-0.1,0.6
		c-0.1,0.4-0.1,0.8-0.1,1.2c0,0.6,0.2,1.1,0.5,1.6c0.9,1.1,1.9,2.1,3.1,2.9c0.3,0.2,0.6,0.5,1,0.8l0.5,0.4l0.5,0.5
		c0.7,0.6,1.4,1.3,2.3,1.9c0.4,0.3,0.8,0.7,1.3,1l0.7,0.5l0.2,0.1l0.1,0.1l0.1,0.1l0.2,0.1l0.2,0.1c0.5,0.3,1,0.6,1.6,0.9l1.7,0.8
		c1.2,0.5,2.3,1.1,3.6,1.6l0.5,0.2l0.5,0.2l0.9,0.4c0.6,0.3,1.3,0.5,2,0.8l2.1,0.9c0.7,0.3,1.4,0.6,2.2,0.9l0.6,0.2l0.3,0.1l0.3,0.1
		l1,0.4c0.7,0.3,1.5,0.6,2.3,0.8c1.6,0.5,3.3,0.9,5,1.1c1.8,0.2,3.6,0.2,5.4,0l1.4-0.2c0.2,0,0.5-0.1,0.7-0.1l0.7-0.2l0.2-0.1
		c4.1,8.5,14.4,13.2,22.5,15.7c9.4,2.7,19.2,4.1,29,4h1.7c9.9-0.2,18.2-1.7,22.1-4.2c0.2-0.1,0.3-0.4,0.2-0.7
		c-0.1-0.2-0.3-0.3-0.5-0.2c-12.6,3.8-28.4,3.8-35.3-4.9c-4.1-5.1-8.8-10.8-12.3-12.8c-1.5-0.9-2.7-2.1-3.6-3.6l1.7-0.5l3.1-0.9
		l0.8-0.2l0.8-0.2l1.3-0.4l-0.1,0.1c0.3,0.2,6.4,4.9,12.4,6.2c0.6,0.1,1.2,0.2,1.8,0.2c3,0,4-2.3,5.1-4.8c0.5-1.3,1.2-2.5,1.9-3.6
		c1-1.3,2-2.6,3.2-3.7c1.7-1.6,3.1-3.5,4.2-5.6c2-3.4,4.5-6.5,7.4-9.1c1.1-1,2.1-2,3-3.2c0.3-0.5,0.2-1.1-0.2-1.4
		c-0.3-0.2-0.7-0.3-1-0.1c-1.3,0.8-2.8,1.3-4.3,1.6c-1,0.2-2,0-2.8-0.4c-1-0.5-2.2-0.7-3.3-0.6l0,0l1.9-2.9l2-2.9c0.7-1,1.3-1.9,2-3
		l0.1-0.2l0.1-0.1l0.1-0.1v-0.1v-0.1c0.6,0.7,4.2,4.6,8.1,8.5c2.1,2.1,8.6,8.5,11.4,8.5h0.1c0.4,0,0.8-0.2,1-0.5
		C139.7,64.5,139.2,63.9,137.6,62z M131.2,54.4c-5.2-1.9-11.1-8-12.2-9.2c0-1,0-2.1-0.1-3.1c2.4,1.1,4.9,1.9,7.5,2.4
		C127.7,48,129.3,51.3,131.2,54.4L131.2,54.4z M126.4,44.2c-2.6-0.5-5.1-1.3-7.4-2.4c-0.1-1.2-0.2-2.3-0.3-3.5l6-1.3l-0.1-0.3
		l-5.9,1.3c-0.1-1.1-0.3-2.1-0.5-3.2l-0.1-0.4c2.1-0.6,4.2-1.5,6.2-2.6C124.3,36,125,40.2,126.4,44.2L126.4,44.2z M124.2,30.5
		c0,0.3,0,0.6,0,1c-2,1.1-4,2-6.2,2.6c-0.2-0.9-0.4-1.9-0.6-2.8l-0.1-0.2c2.8-2.4,5.3-5,7.6-7.9C124.5,25.5,124.2,28,124.2,30.5z
		 M125.1,22.5c-2.4,3-5,5.7-7.8,8.2c-0.2-1-0.5-1.9-0.9-2.8c1.7-2.9,9.5-15.3,13.5-19.2C127.8,13,126.2,17.7,125.1,22.5L125.1,22.5z
		 M131.9,2.2c0.1-0.1,0.2-0.1,0.3,0c0.4,0.4-0.7,2.8-1.7,5.1l-0.3,0.6c-2.2,1.9-5.8,7-8.6,11.1c-1.9,2.8-3.4,5.3-4.1,6.4
		c-0.6,1-1,1.6-1.3,2.1c-0.2-0.5-0.4-1-0.7-1.4c-0.1-0.2-0.2-0.4-0.4-0.6C120.7,12.7,129.4,2.6,131.9,2.2L131.9,2.2z M109.2,44.2
		c0.5,4.3,1,7.5,0.7,11.3c-0.3,3.6-0.2,4.4,0.2,5.3l-1.7,2.8l-0.9,1.5l-0.4,0.7c0.8-4.9,1-9.8,0.6-14.8c-0.7-7.2-1.3-10-2.8-13.4
		c-1.5-3.4-3.4-10.9-4.4-12.7c-0.7-1.2-1.4-2.5-1.8-3.2c0-0.1,0-0.1,0.1-0.2c0,0,0.1,0,0.1,0c3.1,2.6,5.3,6,6.5,9.9
		C107.2,38.2,108.8,39.9,109.2,44.2L109.2,44.2z M110.7,17.9c-0.9,1.4-2.4,2.3-4,2.7l-2.1-1l-2.8-1.4c4.5-4.1,8.8-8.8,10.8-15.6
		C112.9,5.5,113.7,13.5,110.7,17.9L110.7,17.9z M109,2.3c1.7-0.3,2.8-0.5,3.4-0.7v0.1c-1.1,4.3-3.3,9.3-11,16.2
		c-1.4-0.7-2.9-1.4-4.3-2.1c8-5.6,10.8-11.2,11.7-13.1L109,2.3z M103.7,3c2-0.2,3.6-0.5,5-0.7l-0.1,0.2c-0.9,1.9-3.7,7.5-11.7,13.1
		c-1.4-0.7-2.8-1.3-4.2-1.9c5-2.9,8.9-8,10.4-10l0.5-0.6L103.7,3z M103,3.1l-0.3,0.4c-1.5,2-5.4,7.2-10.5,10.1l-0.4-0.2
		c-1.1-0.5-2.2-1-3.4-1.4c3.2-2.2,5.9-5.1,8-8.3C99,3.4,101.2,3.2,103,3.1L103,3.1z M96.2,3.6c-2.1,3.2-4.9,6-8,8.2
		c-0.9-0.4-1.9-0.8-2.8-1.1L84,10.3l7.6-6.5C93.2,3.7,94.7,3.7,96.2,3.6L96.2,3.6z M91.2,3.8l-7.5,6.3l0,0c-0.6-0.2-1.1-0.3-1.7-0.5
		h-0.1h-0.1l-0.2-0.1l-0.4-0.1l-0.9-0.2l-0.9-0.2l-0.9-0.1c-1.1-0.1-2.3-0.2-3.4-0.3c2-1.9,4.2-3.5,6.6-5l0,0
		C85.1,3.8,88.3,3.8,91.2,3.8L91.2,3.8z M78.3,3.4l2.8,0.2c-2.3,1.4-4.5,3.1-6.4,5c-1,0-2.1,0-3,0s-2.3,0.1-3.4,0.2
		c-0.8,0.1-1.7,0.1-2.5,0.2c2-2.1,4.1-4.1,6.4-5.9C74,3.1,76.1,3.2,78.3,3.4L78.3,3.4z M71.7,3.1c-2.2,1.9-4.4,3.9-6.4,6h-0.4
		c-2.8,0.3-5.5,0.6-8.2,1c2.2-2.6,4.7-5,7.4-7.2V2.9C66.4,2.8,68.9,2.9,71.7,3.1L71.7,3.1z M63.6,2.9c-2.7,2.2-5.2,4.6-7.4,7.3
		l-4.4,0.6l-4.4,0.6c1-1.2,5.5-6.5,8.8-7.8V3.4C58.7,3.1,61.1,2.9,63.6,2.9L63.6,2.9z M55.4,3.5c-2,1.2-3.8,2.6-5.3,4.3
		c-1.8,1.8-3.1,3.5-3.1,3.5l0,0l-0.9,0.1c-0.1,0-0.1,0-0.2,0h-0.1l-0.6,0.2L42.4,12l-0.8,0.1l-0.8,0.1l-1.5,0.3l-0.4,0.1
		C43.1,7.7,49,4.4,55.4,3.5L55.4,3.5z M36.5,13.9l0.4-0.1l0.4-0.1h0.1L36.5,13.9L36.5,13.9L36.5,13.9z M17.2,27.1l0.2-0.3l0.2-0.3
		l0.2-0.2c0.1-0.2,0.2-0.3,0.4-0.5l0.2-0.3l0.1-0.1l0,0l0.1-0.1l0.4-0.5c0.3-0.3,0.6-0.6,0.9-1c1.2-1.3,2.5-2.5,3.9-3.7l0.5-0.4
		l0.3-0.2l0.3-0.2l1.1-0.8l1.2-0.7c0.2-0.1,0.4-0.2,0.6-0.3l0.6-0.3l0.6-0.3l0,0c0.5,0.5,0.9,1.1,1.3,1.7c1.7,2.6,3.7,4.9,6,6.9
		c2.7,2.4,5,5.4,6.7,8.6c0.7,1.3,1.6,2.6,2.5,3.9c1.5,1.9,3.6,3.2,6,3.6c1.7,0.4,3.2,1.6,4.1,3.2c0.7,2.3,1.1,4.7,1,7.1
		c-1-0.2-2.1-0.1-3.1,0.2c-1.3,0.3-5.4,1.6-6.9,4.6h-0.2c-0.6-0.1-1.2-0.4-1.6-0.9c0.3-2.6-1.6-4.9-4.2-5.1c-0.1,0-0.2,0-0.3,0
		c-1.1-1.4-2-3-2.8-4.7c-0.4-0.9-0.9-1.9-1.4-2.8c-1.6-2.9-4-4.8-7.1-6.9c-2.4-1.7-2.7-2.3-4.4-5.2l-0.9-1.6
		c-0.8-1.6-2.4-2.6-4.1-2.6c-0.9,0-1.8,0.3-2.7,0.7L17.2,27.1z M44.2,55.1c0,2.2-1.8,3.9-3.9,3.9c-2.2,0-3.9-1.8-3.9-3.9
		c0-2.2,1.8-3.9,3.9-3.9l0,0C42.4,51.1,44.2,52.8,44.2,55.1L44.2,55.1z M15.3,76.5l-0.4-0.3c-0.7-0.5-1.3-0.9-1.8-1.3
		c-0.2-0.2-0.5-0.4-0.7-0.6c-0.1-0.1-0.2-0.2-0.3-0.3L12,73.8c0,0-0.1-0.1-0.1-0.1c-0.2-0.4-0.3-0.8-0.4-1.2c0-0.3,0-0.7,0-1v-0.2
		l0.1,0.1l0.3,0.2l0.3,0.1c0.8,0.3,1.6,0.7,2.4,1c0.8,0.3,1.5,0.6,2.2,1c1.4,0.6,2.6,1.3,3.6,1.9c0.5,0.3,1,0.6,1.4,0.9
		c0.2,0.2,0.4,0.3,0.6,0.4l0.6,0.4l0.3,0.2l0.2,0.2L24,78c0.3,0.2,0.5,0.4,0.7,0.6l0.6,0.5l0,0c0.1,0.1,0.2,0.1,0.3,0
		c0.1-0.1,0.1-0.2,0-0.3L25,78.1l-0.3-0.3c-0.1-0.1-0.2-0.2-0.3-0.3L24,77.1l-0.2-0.2l-0.2-0.2L23,76.2c-0.2-0.2-0.4-0.3-0.6-0.5
		c-0.4-0.3-0.9-0.7-1.4-1c-1.2-0.7-2.4-1.4-3.6-2c-0.7-0.3-1.4-0.7-2.2-1s-1.6-0.7-2.3-1l-0.3-0.1l-0.2-0.1l-0.1-0.1l-0.1-0.1
		L12,70.1l-0.1-0.1c-0.2-0.2-0.4-0.5-0.4-0.8c0-0.2,0-0.3,0-0.5c0-0.1,0-0.2,0.1-0.3v-0.1v-0.1l0,0l0,0l0,0v-0.1l0.1-0.1
		c0-0.1,0.1-0.1,0.1-0.2c0.1-0.1,0.2-0.2,0.4-0.3c0.3-0.1,0.7-0.2,1-0.2c0.4,0,0.9,0.2,1.3,0.3c0.9,0.3,1.7,0.8,2.5,1.3
		c0.8,0.5,1.6,1.1,2.4,1.7s1.6,1.2,2.4,1.9c0.8,0.6,1.5,1.3,2.3,2l1.1,1c0.4,0.3,0.7,0.7,1,1c0.7,0.7,1.4,1.4,2,2.2
		c0.6,0.7,1.1,1.5,1.5,2.3c0.2,0.3,0.3,0.7,0.2,1.1c0,0.1,0,0.1,0,0.2c0,0.1-0.1,0.1-0.1,0.1c-0.1,0.1-0.2,0.2-0.3,0.2
		c-0.4,0.1-0.8,0-1.1-0.1c-0.4-0.1-0.8-0.3-1.1-0.4c-0.4-0.2-0.7-0.4-1-0.6c-0.2-0.1-0.3-0.2-0.5-0.4l-0.5-0.4
		c-0.6-0.5-1.3-1-2.1-1.3c-1.2-0.7-2.5-1.2-3.8-1.6c-1.2-0.4-2.3-0.6-3.1-0.9C15.9,76.8,15.6,76.6,15.3,76.5z M52.8,90.1
		c-0.2,0-0.4,0.1-0.6,0.1l-1.3,0.2c-1.7,0.2-3.4,0.2-5.1,0c-1.6-0.2-3.2-0.5-4.7-1c-0.8-0.2-1.5-0.5-2.2-0.8l-1.1-0.4l-0.3-0.1
		L37.1,88l-0.5-0.2c-0.7-0.2-1.4-0.5-2.1-0.8l-2.1-0.9c-0.7-0.3-1.3-0.6-2-0.8l-1-0.4L29,84.8l-0.5-0.2c-1.2-0.5-2.4-1-3.6-1.5
		l-1.6-0.8c-0.5-0.3-1-0.5-1.5-0.8l-0.2-0.1l-0.2-0.1l-0.1-0.1h-0.1l-0.2-0.1l-0.7-0.5c-0.4-0.3-0.9-0.6-1.3-0.9
		c-0.8-0.6-1.6-1.3-2.3-1.8l-0.3-0.3c0.8,0.2,1.6,0.5,2.6,0.8c1.3,0.4,2.6,1,3.8,1.6c0.7,0.4,1.3,0.8,1.9,1.3l0.5,0.4
		c0.2,0.1,0.3,0.3,0.5,0.4c0.4,0.3,0.7,0.5,1.2,0.8c0.4,0.2,0.9,0.4,1.3,0.5c0.5,0.2,1.1,0.2,1.6,0.1c0.3-0.1,0.6-0.2,0.9-0.5
		c0.1-0.1,0.2-0.3,0.3-0.4c0.1-0.2,0.1-0.3,0.1-0.5c0-0.3,0-0.6-0.1-0.9c-0.1-0.3-0.1-0.5-0.2-0.8c-0.4-0.9-1-1.8-1.6-2.6
		c-0.6-0.8-1.3-1.6-2.1-2.3c-0.4-0.4-0.7-0.7-1.1-1l-1.1-1c-0.8-0.7-1.5-1.4-2.3-2.1c-0.8-0.7-1.6-1.3-2.4-2s-1.7-1.2-2.5-1.8
		c-0.9-0.6-1.8-1-2.8-1.4c-0.5-0.2-1-0.3-1.6-0.4h-0.1c0.3-0.9,0.8-1.7,1.3-2.4l0.1-0.2l0.3-0.4c1-1.1,1.5-2.6,1.6-4
		c-0.1-1.5,1.2-2.5,1.8-3l0,0c0.4,0.2,0.8,0.3,1.2,0.4c0.5,0.1,1,0.2,1.5,0.3c0.9,0.1,1.8,0.2,2.6,0.2c1.6,0.1,3,0,4.1,0
		c1.1,0,2-0.1,2.6-0.2l0.7-0.1h0.2c0.2,0,0.3-0.2,0.3-0.5c0-0.2-0.2-0.3-0.4-0.3c0,0-0.3,0-0.9,0.1c-0.6,0.1-1.4,0.1-2.5,0.1
		c-1.1,0-2.5,0-4.1-0.1c-0.8-0.1-1.6-0.1-2.5-0.3c-0.4-0.1-0.9-0.2-1.4-0.3c-0.5-0.1-0.9-0.3-1.3-0.5h-0.1l0,0l0,0l-0.2-0.1
		l-0.3-0.2c-0.2-0.1-0.4-0.3-0.6-0.5c-0.4-0.3-0.6-0.8-0.9-1.2c-0.5-1.1-0.8-2.2-1-3.3c-0.1-0.6-0.3-1.2-0.4-1.9
		c-0.1-0.6-0.2-1.3-0.3-1.9c-0.1-1.3-0.3-2.7-0.3-4.1c0-1.4,0-2.9,0.1-4.4c0-0.4,0.1-0.8,0.1-1.3c0.2,0,0.4-0.1,0.6-0.1
		c1,0,2,0.5,2.6,1.3c1.4,1.5,3,2.7,4.8,3.6c0.8,0.4,1.5,0.9,2.2,1.4c1.5,1.3,8.2,7.8,8.9,9.4c0.5,1.1,1.1,2.1,1.7,3.1
		c0,0.1,0,0.2,0,0.3c0,2.6,2.1,4.7,4.7,4.7h0.4l0,0c0.6,1.9,1.1,3.8,1.4,5.7c0.6,2.4,0.9,4.9,1,7.4c-0.1,1.7,2,3.9,3.6,5.8
		c0.6,0.6,1.2,1.3,1.7,2.1c0.1,0.4,0.2,0.8,0.3,1.3c0.3,1.3,0.6,2.7,1.7,2.8c0.3,0,0.6,0,0.9,0h0.5c0.5,0,0.9,0.1,1.3,0.3
		c-0.3,0.6-0.7,1.2-1.1,1.7c-0.1,0.2-0.1,0.4,0,0.5c0.2,0.1,0.4,0.1,0.5,0c0.4-0.5,0.8-1.1,1.2-1.8l0,0l0.2-0.4
		c1.7-3.3,3.6-10-2.7-17.9c-3.6-4.4-4.2-8.8-3.9-10.1c0,0,0-0.1,0-0.1c1.2-2.9,5.3-4.8,6.5-5.1c1-0.4,2.1-0.6,3.2-0.8l0,0
		c2.3,0,4.3,2.7,4.8,3.8c0.4,1.5,0.6,3.1,0.5,4.7c-0.1,3.3,0.3,6.6,1.3,9.7c1.2,3.2,1.6,6.6,1.3,10c-1.5,6.8-8.4,8-8.5,8
		c-0.2,0-0.3,0.3-0.3,0.5c0,0.2,0.2,0.3,0.4,0.3h0.1c1.4-0.3,2.7-0.8,3.9-1.5c1.6-0.9,2.9-2.2,3.9-3.8c-0.6,2-1.7,3.8-3.3,5.1
		L56,89.6l-1.3,0.3L54,90.1h-0.2h-0.2l-0.3,0.1L52.8,90.1z M109.5,108.9c5.6,0.4,11.2-0.1,16.6-1.5c-9.8,3.7-31.9,4.1-49.3-1.2
		c-7.9-2.4-17.9-6.9-22-15.1l0.3-0.1l1.3-0.4l1.3-0.4c4.2,4.8,9.3,8.8,15,11.6c6.8,3.2,14.3,4.8,21.8,4.7c1.6,0,3.2-0.1,4.9-0.2
		C102.7,107.8,106.1,108.7,109.5,108.9L109.5,108.9z M93.1,101.5c1.6,2,3.7,3.6,6,4.7c-9.7,0.7-18.5-0.9-26-4.5
		c-5.7-2.8-10.8-6.7-14.9-11.5l3.8-1c2.4,2.5,5.1,4.7,8.1,6.5c6,3.8,13,5.8,20.1,5.9c0.9,0,1.9,0,2.9-0.1L93.1,101.5z M92.8,101.1
		c-7.9,0.5-15.8-1.5-22.5-5.7c-2.9-1.8-5.6-3.9-7.9-6.4l4.1-1.2l0,0c2.4,2.1,5,3.9,7.8,5.4c4.2,2.2,8.9,3.4,13.6,3.5
		c0.4,0,0.8,0,1.3,0C90.3,98.1,91.6,99.6,92.8,101.1L92.8,101.1z M88.9,96.4c-5,0.1-10-1-14.5-3.4c-2.8-1.4-5.3-3.2-7.6-5.3l3.6-1
		c1.4,1.2,5.6,4.7,13.9,4.8C85.9,93.1,87.4,94.7,88.9,96.4L88.9,96.4z M80.9,88.9c1.1,0.7,2.1,1.4,3.1,2.3
		c-7.7-0.1-11.7-3.3-13.2-4.6l2.7-0.8l3.5-1C77.9,86.4,79.3,87.8,80.9,88.9L80.9,88.9z M78.1,83.4l-2.6,0.7C75,81,72.6,66.6,73.1,61
		c0.6-7.1,0.2-12.6-1.1-16.8c-0.9-2.8-2.5-5.4-4.5-7.6c-1-1.1-1.9-2.4-2.5-3.7c-1.2-3-6.2-8.6-10.1-12.8c-2.6-2.8-4.8-5-5.9-6
		s-1.8-1.7-2.2-2.1c1.7-0.2,3.4-0.4,5.1-0.7l2.7-0.4c3.1,2.1,18.6,18.5,20.6,34.4c2.1,17.1,1,17.5,2.3,25.4
		C78.3,74.9,78.4,79.1,78.1,83.4L78.1,83.4z M69.5,9.4c0.7,0,1.5-0.1,2.2-0.1c1.6,0,3.3,0,4.9,0.1C79.2,12.1,92,25.7,93,31.4
		c1.2,6.4,2.1,7.2,1.9,13.7C94.7,51.6,95,54,96,56s2.3,2,0.6,10.3c-1.7,8-0.7,6.5-4.5,12.4c-0.9,0.4-1.7,0.8-2.6,1.2
		c0-1.1-0.1-4.1,0-6.7c0.2-4.8,1-9.5,2.4-14.1c1.8-5.1,1.1-16.9,0-22.8C90.8,30.8,72.2,12.1,69.5,9.4L69.5,9.4z M97.9,88
		c-5-1.2-10.3-4.8-11.8-5.8c1.5-0.6,3.1-1.2,4.6-1.9c3.4,3.1,7.5,5.2,12,6.1C101.7,87.7,100.4,88.5,97.9,88L97.9,88z M104,83.8
		c-0.3,0.7-0.7,1.5-1.1,2.2c-4.4-0.8-8.6-2.9-11.9-5.9c1.4-0.7,2.7-1.4,4.1-2.2l0,0c0.7,0.7,2.7,2.8,9.7,4.1
		c-0.4,0.5-0.7,1.2-0.9,1.7L104,83.8z M106,80.1c-0.4,0.5-0.7,1.1-1,1.7c-6.9-1.3-9-3.3-9.6-4c0.7-0.4,1.4-0.9,2.1-1.3
		c0.3-0.2,0.7-0.5,1-0.7c0.8,0.6,3.4,2.4,9,2.6c-0.5,0.4-1,1-1.5,1.7L106,80.1z M109.4,76.3c-0.5,0.5-1,1-1.6,1.7
		c-5.5-0.1-8.2-1.8-9-2.5c0.5-0.4,1-0.7,1.4-1.1c0.6-0.5,1.2-1,1.7-1.5l0.2,0.1c1.6,0.6,3.4,0.9,5.1,0.9c1.6,0,3.3-0.3,4.8-0.8
		c-0.8,1.1-1.8,2.1-2.8,3.1L109.4,76.3z M113.4,70.9c-0.4,0.7-0.7,1.3-1,1.8c-3.3,1.2-6.9,1.2-10.2,0l0,0l0.6-0.5
		c0.8-0.8,1.6-1.6,2.3-2.5l0.2-0.2l0.6,0.1c1,0.2,2,0.2,3,0.2c1.9,0,3.8-0.2,5.7-0.7c-0.5,0.5-0.9,1.1-1.3,1.7L113.4,70.9z
		 M114.8,68.7c-2.9,0.7-5.9,0.9-8.9,0.5l-0.4-0.1l0.7-0.9l0.5-0.7c0.2-0.2,0.3-0.5,0.5-0.7l0.5-0.7l0,0c1.5,0.5,3.1,0.7,4.7,0.7
		c1.4,0,2.8-0.2,4.2-0.5c-0.7,0.6-1.3,1.5-1.9,2.3L114.8,68.7z M116.9,65.8c-3,0.9-6.1,0.9-9.1,0l0.3-0.5l0.9-1.5l0.9-1.5
		c2.2,0.6,4.5,0.9,6.7,0.9c0.9,0,1.9-0.1,2.8-0.2c-0.9,0.7-1.8,1.6-2.6,2.6L116.9,65.8z M115.7,59.4c1,0.5,2.1,0.6,3.2,0.4
		c1.6-0.3,3.1-0.8,4.6-1.6c0.1-0.1,0.2,0,0.3,0.1c0.1,0.1,0.1,0.2,0,0.3c-0.9,1.1-1.8,2.1-2.9,3.1l-1.2,1.1
		c-3.8,0.8-8.4-0.2-9.8-0.6l0.8-1.2l1.4-2.1c1.2-0.2,2.3,0,3.4,0.4L115.7,59.4z M118.3,47.3c0,0.3-0.1,0.6-0.1,0.8
		c0,0.1,0,0.1,0,0.2v0.1v0.1v0.1l-0.1,0.1l-0.1,0.2c-0.6,1-1.2,2-1.9,3l-0.6,1c0-0.8,0.1-3.7,0-4.9c-0.1-1.4-0.5-3.1-0.7-5.7
		c-0.1-2.6-0.4-5.1-1-7.6c-0.4-2.2-1.1-4.2-2.1-6.2c-0.9-1.8-1.6-3.7-2.1-4.9l0.9,0.5l1.6,0.9l1.6,0.9l0.2,0.1h0.1h0.1l0.1,0.1
		l0.1,0.1c0.2,0.2,0.3,0.4,0.5,0.6c0.3,0.5,0.5,1,0.7,1.5c0.4,1.1,0.8,2.2,1,3.3c0.3,1.1,0.6,2.3,0.8,3.4c0.2,1.2,0.4,2.3,0.6,3.5
		c0.2,1.2,0.3,2.3,0.4,3.5s0.2,2.3,0.2,3.5c-0.3,0.6-0.3,1.2-0.3,1.7L118.3,47.3z M138.4,64.9c-3.1,0.2-14.8-12.1-19-16.9l-0.4,0.3
		c0.1-0.3,0.1-0.6,0.1-0.9c0.1-0.5,0.1-1,0.1-1.6c1.2,1.3,2.6,2.6,3.9,3.8c2.2,1.9,5.4,4.3,8.4,5.3c1.7,2.6,3.5,5.2,5.5,7.6
		c0.6,0.7,1.1,1.4,1.6,2.2c-0.1,0.1-0.3,0.1-0.4,0L138.4,64.9z"/>
	<circle class="st0" cx="39.5" cy="55.2" r="2.3"/>
</g>
</svg>
