<?xml version="1.0" encoding="utf-8"?>
<!-- Generator: Adobe Illustrator 19.2.0, SVG Export Plug-In . SVG Version: 6.00 Build 0)  -->
<svg version="1.1" id="Layer_1" xmlns="http://www.w3.org/2000/svg" xmlns:xlink="http://www.w3.org/1999/xlink" x="0px" y="0px"
	 viewBox="0 0 221 55.9" style="enable-background:new 0 0 221 55.9;" xml:space="preserve">
<metadata><?xpacket begin="﻿" id="W5M0MpCehiHzreSzNTczkc9d"?>
<x:xmpmeta xmlns:x="adobe:ns:meta/" x:xmptk="Adobe XMP Core 5.6-c111 79.158366, 2015/09/25-01:12:00        ">
   <rdf:RDF xmlns:rdf="http://www.w3.org/1999/02/22-rdf-syntax-ns#">
      <rdf:Description rdf:about=""/>
   </rdf:RDF>
</x:xmpmeta>
                                                                                                    
                                                                                                    
                                                                                                    
                                                                                                    
                                                                                                    
                                                                                                    
                                                                                                    
                                                                                                    
                                                                                                    
                                                                                                    
                                                                                                    
                                                                                                    
                                                                                                    
                                                                                                    
                                                                                                    
                                                                                                    
                                                                                                    
                                                                                                    
                                                                                                    
                                                                                                    
                           
<?xpacket end="w"?></metadata>
<style type="text/css">
	.st0{fill:#454545;}
	.st1{fill:#2694B1;}
</style>
<g>
	<path class="st0" d="M84.9,15.7H87c2.6,0,4.7,2.1,4.7,4.7v18.9c0,2.6-2.1,4.7-4.7,4.7h-2.1v3.3h-3.3v-3.3h-2.1
		c-2.6,0-4.7-2.1-4.7-4.7V20.3c0-2.6,2.1-4.7,4.7-4.7h2.1v-3.8h3.3V15.7z M79.5,19c-0.8,0-1.4,0.6-1.4,1.4v18.9
		c0,0.8,0.6,1.4,1.4,1.4h2.1V19H79.5z M87,19h-2.1v21.6H87c0.7,0,1.4-0.6,1.4-1.4V20.3C88.4,19.6,87.8,19,87,19z"/>
	<path class="st0" d="M98.1,12.4h7.2c2.5,0,4.7,2.1,4.7,4.7v11.3c0,2.5-1.7,4.6-4.4,4.6h-4.3v14.1h-3.3V12.4z M101.4,29.9h3.8
		c1,0,1.6-0.9,1.6-1.8V17.1c0-0.7-0.6-1.4-1.4-1.4h-4V29.9z"/>
	<path class="st0" d="M128.9,42.5c0,2.6-2.1,4.7-4.7,4.7h-3.3c-2.5,0-4.7-2.1-4.7-4.7V17.1c0-2.6,2.1-4.7,4.7-4.7h3.3
		c2.6,0,4.7,2.1,4.7,4.7V42.5z M124.2,15.7h-3.3c-0.7,0-1.4,0.6-1.4,1.4v25.4c0,0.8,0.6,1.4,1.4,1.4h3.3c0.7,0,1.4-0.6,1.4-1.4V17.1
		C125.6,16.3,124.9,15.7,124.2,15.7z"/>
	<path class="st0" d="M148,47.1h-3.3V29.9h-6.1v17.2h-3.3V12.4h3.3v14.5h6.1V12.4h3.3V47.1z"/>
	<path class="st0" d="M160.9,15.7v31.5h-3.3V15.7h-4v-3.3H165v3.3H160.9z"/>
	<path class="st0" d="M183.3,42.5c0,2.6-2.1,4.7-4.7,4.7h-3.3c-2.5,0-4.7-2.1-4.7-4.7V17.1c0-2.6,2.1-4.7,4.7-4.7h3.3
		c2.6,0,4.7,2.1,4.7,4.7V42.5z M178.6,15.7h-3.3c-0.7,0-1.4,0.6-1.4,1.4v25.4c0,0.8,0.6,1.4,1.4,1.4h3.3c0.7,0,1.4-0.6,1.4-1.4V17.1
		C180,16.3,179.4,15.7,178.6,15.7z"/>
	<path class="st0" d="M189,17.1c0-2.6,2.1-4.7,4.7-4.7h1.9c2.6,0,4.7,2.1,4.7,4.7v6.6c0,1.9-0.8,3.7-2.6,4.4c1.6,0.6,2.6,2,2.6,3.8
		v10.6c0,2.5-2.1,4.7-4.7,4.7h-1.9c-2.5,0-4.7-2.1-4.7-4.7v-5.3h3.3v5.3c0,0.7,0.6,1.4,1.4,1.4h1.9c0.8,0,1.4-0.6,1.4-1.4v-10
		c0-1.9-1-2.5-2.7-2.5h-1.6v-3h1.6c1.8,0,2.7-1.5,2.7-3.3v-6.5c0-0.8-0.6-1.4-1.4-1.4h-1.9c-0.7,0-1.4,0.6-1.4,1.4v3.9H189V17.1z"/>
	<path class="st0" d="M205.6,47.1l4.7-34.7h5.9l4.7,34.7h-3.3l-1.5-10.2h-5.8L209,47.1H205.6z M213.2,15.6l-2.4,18.3h5.1l-2.4-18.3
		H213.2z"/>
</g>
<g>
	<path class="st1" d="M64.5,31c-1.9-2.4-6.5-8.2-6.4-15.9c0.1-4.9,2-9.1,3.1-11.6c0.8-1.7,1.2-2.6,0.8-3c-0.1-0.1-0.2-0.2-0.5-0.1
		c-0.9,0.2-2.7,2.1-4,3.8c-1.8,2.4-3.5,5.3-4.8,8.1c0,0,0,0,0,0l-0.1,0c0,0,0,0-0.1,0l-0.1-0.1c-0.3-0.2-0.5-0.3-0.8-0.5L51,11.2
		c-0.6-0.3-1.1-0.6-1.7-0.9c0.8-0.2,1.4-0.7,1.9-1.4c2-2.8,1-8.5,0.9-8.7l0-0.2l-0.2,0.1c0,0-1.6,0.4-4.6,0.8
		C44.6,1.1,40.1,1.4,34.5,1c-5.6-0.4-9.3-0.5-12.3,0.2c-3.3,0.7-5.8,2.2-8.2,5c-0.1,0-0.2,0-0.3,0.1c-0.1,0-0.1,0-0.2,0l-0.2,0.1
		c-0.5,0.1-1,0.3-1.5,0.4c-0.1,0-0.2,0.1-0.4,0.1c-0.1,0-0.2,0.1-0.4,0.1c-0.2,0.1-0.5,0.2-0.7,0.3c-0.1,0-0.1,0-0.2,0.1L10,7.4
		C9.9,7.5,9.8,7.6,9.7,7.6C9.6,7.7,9.5,7.7,9.3,7.8C9.2,7.8,9.1,7.9,9,7.9C8.9,8,8.8,8,8.7,8.1C8.6,8.2,8.5,8.2,8.4,8.3
		C8.2,8.4,7.9,8.5,7.7,8.7C7.5,8.8,7.3,8.9,7.1,9.1c0,0-0.1,0.1-0.1,0.1L6.8,9.3C6.7,9.3,6.7,9.4,6.6,9.5c-0.8,0.6-1.4,1.2-2.1,1.9
		c-0.2,0.2-0.3,0.3-0.5,0.5c-0.1,0.1-0.2,0.2-0.2,0.2l-0.1,0.1c0,0,0,0,0,0l0,0l-0.1,0.1c-0.1,0.1-0.1,0.2-0.2,0.3
		c0,0-0.1,0.1-0.1,0.1l-0.1,0.1l-0.1,0.1c0,0-0.1,0.1-0.1,0.1c-0.1,0.1-0.1,0.2-0.2,0.3c-0.2,0.4-0.4,0.8-0.5,1.2
		C2.2,15.2,2.1,15.6,2,16c-0.3,1.7-0.4,3.2-0.3,4.7c0,0.7,0.1,1.5,0.2,2.2c0,0.3,0.1,0.7,0.2,1c0.1,0.3,0.1,0.7,0.2,1
		c0.2,0.6,0.3,1.2,0.6,1.8c0.1,0.3,0.3,0.6,0.6,0.8c0.1,0.1,0.2,0.1,0.3,0.2c-0.4,0.3-1,1-1,1.9c0,0.6-0.4,1.2-0.7,1.6
		c-0.1,0.1-0.1,0.1-0.1,0.2c0,0,0,0-0.1,0.1c-0.2,0.3-0.7,1.1-0.8,1.7c0,0-0.1,0-0.1,0.1c-0.1,0.1-0.3,0.2-0.4,0.3
		c-0.1,0.1-0.1,0.1-0.1,0.2c0,0,0,0.1-0.1,0.1l0,0l0,0c0,0,0,0,0,0l0,0c0,0.1-0.1,0.1-0.1,0.2c0,0.1,0,0.1,0,0.2c0,0.1,0,0.3,0,0.4
		c0,0.3,0.2,0.5,0.3,0.7c0,0.1,0,0.2-0.1,0.3c0,0.2-0.1,0.3,0,0.6c0,0.2,0.1,0.5,0.2,0.8c0.4,0.5,0.9,1,1.6,1.5
		c0.2,0.1,0.3,0.2,0.5,0.4c0.1,0.1,0.2,0.1,0.2,0.2c0.1,0.1,0.2,0.2,0.3,0.2c0.4,0.3,0.7,0.6,1.2,1c0.2,0.2,0.4,0.3,0.6,0.5
		c0.1,0.1,0.2,0.2,0.3,0.3l0.1,0.1l0.1,0l0,0l0.1,0.1l0.1,0.1c0.3,0.2,0.5,0.3,0.8,0.4c0.3,0.1,0.6,0.3,0.8,0.4
		c0.6,0.3,1.2,0.6,1.8,0.8c0.1,0,0.2,0.1,0.3,0.1c0.1,0,0.2,0.1,0.2,0.1c0.2,0.1,0.3,0.1,0.5,0.2c0.3,0.1,0.7,0.3,1,0.4
		c0.3,0.1,0.7,0.3,1,0.4c0.4,0.1,0.7,0.3,1.1,0.4c0.1,0,0.2,0.1,0.3,0.1l0.1,0c0,0,0.1,0,0.1,0c0.2,0.1,0.4,0.1,0.5,0.2
		c0.4,0.1,0.8,0.3,1.2,0.4c0.8,0.3,1.7,0.5,2.5,0.5c0.9,0.1,1.8,0.1,2.7,0c0.2,0,0.5-0.1,0.7-0.1c0.1,0,0.2,0,0.3-0.1
		c0.1,0,0.2-0.1,0.3-0.1c0,0,0.1,0,0.1,0c2.1,4.3,7.3,6.7,11.4,7.9c4.3,1.3,9.5,2,14.7,2c0.3,0,0.6,0,0.9,0c5-0.1,9.2-0.9,11.2-2.1
		c0.1-0.1,0.1-0.2,0.1-0.3c-0.1-0.1-0.2-0.2-0.3-0.1c-6.4,1.9-14.4,1.9-17.9-2.5c-2.1-2.6-4.5-5.5-6.3-6.5c-0.8-0.5-1.5-1.3-1.8-1.8
		c0.3-0.1,0.6-0.2,0.9-0.3c0.5-0.1,1-0.3,1.5-0.4c0.1,0,0.3-0.1,0.4-0.1c0.1,0,0.3-0.1,0.4-0.1c0.2-0.1,0.4-0.1,0.7-0.2l0,0
		c0.1,0.1,3.3,2.5,6.3,3.2c0.3,0.1,0.6,0.1,0.9,0.1c1.5,0,2-1.1,2.6-2.4c0.3-0.6,0.6-1.2,1-1.8c0.6-0.9,1.1-1.4,1.6-1.9
		c0.7-0.7,1.4-1.3,2.1-2.8c1-1.9,2.6-3.6,3.7-4.6c0.7-0.6,1.2-1.1,1.5-1.6c0.2-0.2,0.1-0.5,0-0.6c-0.2-0.2-0.4-0.2-0.6-0.1
		c-0.8,0.4-1.5,0.7-2.2,0.8c-0.7,0.1-1,0-1.4-0.2c-0.4-0.2-0.8-0.3-1.7-0.3c0,0,0,0,0,0c0.3-0.5,0.7-1,1-1.5c0.3-0.5,0.7-1,1-1.5
		c0.3-0.5,0.7-1,1-1.5l0.1-0.1l0-0.1c0,0,0-0.1,0-0.1c0,0,0,0,0-0.1l0-0.1c0.3,0.4,2.1,2.4,4.1,4.3c1.1,1.1,4.4,4.3,5.8,4.3
		c0,0,0,0,0.1,0c0.2,0,0.4-0.1,0.5-0.3C65.5,32.3,65.3,32,64.5,31z M61.3,27.2c-2.6-1-5.6-4-6.1-4.6c0-0.5,0-1-0.1-1.6
		c1.2,0.6,2.5,1,3.8,1.2C59.6,24.1,60.4,25.8,61.3,27.2z M58.9,22c-1.3-0.3-2.6-0.7-3.8-1.2c0-0.6-0.1-1.2-0.2-1.8l3-0.6l0-0.2
		l-3,0.6c-0.1-0.5-0.1-1.1-0.2-1.6c0-0.1,0-0.1,0-0.2c0.7-0.2,1.8-0.6,3.1-1.3C57.8,18,58.2,20.1,58.9,22z M57.7,15.1
		c0,0.2,0,0.3,0,0.5c-1.3,0.7-2.5,1.1-3.1,1.3c-0.1-0.5-0.2-1-0.3-1.4c0,0,0-0.1,0-0.1c0.7-0.6,2.2-2,3.9-4
		C57.9,12.5,57.7,13.8,57.7,15.1z M58.2,11c-1.7,2.1-3.2,3.5-4,4.2c-0.1-0.5-0.3-1-0.4-1.4c0.8-1.5,4.8-7.8,6.8-9.7
		C59.8,5.8,58.8,8.2,58.2,11z M61.6,0.8c0.1,0,0.1,0,0.1,0C62,1,61.4,2.2,60.9,3.4c0,0.1-0.1,0.2-0.1,0.3c-1.1,1-3,3.5-4.3,5.6
		c-1,1.4-1.7,2.7-2.1,3.3c-0.3,0.5-0.5,0.8-0.6,1.1c-0.1-0.2-0.2-0.5-0.4-0.7c-0.1-0.1-0.1-0.2-0.2-0.3C56,6.1,60.4,1,61.6,0.8z
		 M50.2,22c0.2,2.2,0.5,3.8,0.4,5.7c-0.1,1.8-0.1,2.2,0.1,2.7c-0.3,0.5-0.6,0.9-0.9,1.4c-0.2,0.2-0.3,0.5-0.5,0.7L49,32.9
		c0.2-1.2,0.6-4.5,0.3-7.5c-0.3-3.6-0.7-5.1-1.4-6.8c-0.8-1.7-1.7-5.5-2.2-6.4c-0.3-0.6-0.7-1.3-0.9-1.6c0-0.1,0-0.1,0.1-0.1
		c0.7,0.5,2.5,2.2,3.3,5C49.1,19,49.9,19.9,50.2,22z M50.9,8.7c-0.5,0.7-1.2,1.2-2,1.3c-0.3-0.2-0.7-0.4-1-0.5
		c-0.5-0.2-1-0.5-1.4-0.7c2.3-2.1,4.5-4.5,5.5-7.9C52,2.4,52.4,6.5,50.9,8.7z M50.1,0.8c0.9-0.1,1.4-0.3,1.7-0.3c0,0,0,0,0,0
		c-0.6,2.2-1.7,4.7-5.6,8.2C45.5,8.3,44.8,8,44,7.6C48.1,4.8,49.5,2,50,1C50,0.9,50,0.9,50.1,0.8z M47.3,1.2c1-0.1,1.8-0.2,2.5-0.3
		c0,0,0,0.1,0,0.1c-0.5,1-1.9,3.8-5.9,6.6c-0.7-0.3-1.4-0.7-2.1-1c2.5-1.5,4.5-4.1,5.2-5.1c0.1-0.1,0.2-0.2,0.2-0.3
		C47.3,1.2,47.3,1.2,47.3,1.2z M47,1.2c0,0.1-0.1,0.1-0.1,0.2c-0.8,1-2.7,3.6-5.3,5.1c-0.1,0-0.1-0.1-0.2-0.1
		c-0.6-0.2-1.1-0.5-1.7-0.7c2.2-1.5,3.7-3.5,4.1-4.2C45,1.4,46.1,1.3,47,1.2z M43.5,1.5c-0.4,0.7-1.9,2.7-4.1,4.1
		c-0.5-0.2-1-0.4-1.4-0.6c-0.2-0.1-0.4-0.2-0.7-0.2l3.9-3.3C42.1,1.6,42.8,1.5,43.5,1.5z M41,1.6l-3.8,3.2c0,0,0,0,0,0
		c-0.3-0.1-0.6-0.2-0.9-0.3l-0.1,0l-0.1,0l-0.1,0l-0.2-0.1l-0.4-0.1c-0.1,0-0.3-0.1-0.4-0.1c-0.1,0-0.3,0-0.4-0.1
		C34,4.1,33.5,4,32.9,4c0.5-0.5,2-1.7,3.3-2.5v0C37.9,1.6,39.6,1.6,41,1.6z M34.5,1.4c0.5,0,1,0.1,1.4,0.1c-1.5,0.9-2.8,2.1-3.2,2.5
		c-0.5,0-1,0-1.5,0c-0.6,0-1.1,0.1-1.7,0.1c-0.4,0-0.8,0.1-1.3,0.1c0.6-0.6,2.1-2.1,3.2-3C32.3,1.3,33.4,1.3,34.5,1.4z M31.1,1.2
		c-1.2,1-2.8,2.6-3.2,3c-0.1,0-0.1,0-0.2,0c-1.4,0.1-2.8,0.3-4.1,0.5c0.5-0.6,1.9-2.2,3.7-3.6l0,0C28.5,1.1,29.7,1.1,31.1,1.2z
		 M27.1,1.1c-1.9,1.5-3.4,3.2-3.7,3.7c-0.8,0.1-1.5,0.2-2.2,0.3c-0.7,0.1-1.5,0.2-2.2,0.3c0.5-0.6,2.8-3.3,4.5-4l0,0
		C24.5,1.2,25.7,1.1,27.1,1.1z M22.9,1.4c-0.7,0.4-1.6,1.1-2.7,2.2c-0.9,0.9-1.6,1.8-1.6,1.8l0,0c-0.2,0-0.3,0-0.5,0.1
		c0,0-0.1,0-0.1,0l0,0l-0.3,0.1c-0.5,0.1-1,0.1-1.4,0.2c-0.1,0-0.3,0-0.4,0.1c-0.1,0-0.3,0-0.4,0.1C15.3,5.9,15,6,14.8,6
		c-0.1,0-0.1,0-0.2,0C17,3.3,19.5,2,22.9,1.4z M13.4,6.7l0.2-0.1c0.1,0,0.1,0,0.2,0c0,0,0,0,0.1,0L13.4,6.7
		C13.4,6.7,13.4,6.7,13.4,6.7z M3.6,13.4l0.1-0.1l0.1-0.1c0,0,0.1-0.1,0.1-0.1c0.1-0.1,0.1-0.2,0.2-0.2l0.1-0.1l0,0c0,0,0,0,0,0
		l0.1-0.1c0.1-0.1,0.1-0.2,0.2-0.2c0.1-0.2,0.3-0.3,0.5-0.5c0.6-0.7,1.3-1.3,2-1.9C7,9.8,7,9.7,7.1,9.7l0.1-0.1c0,0,0.1-0.1,0.1-0.1
		C7.6,9.3,7.8,9.2,8,9c0.2-0.1,0.4-0.3,0.6-0.4c0.1-0.1,0.2-0.1,0.3-0.2C9,8.4,9.1,8.4,9.2,8.3c0.1-0.1,0.2-0.1,0.3-0.2c0,0,0,0,0,0
		C9.7,8.2,10,8.6,10.2,9c0.6,0.9,1.5,2.2,3.1,3.5c1.7,1.5,2.6,3,3.4,4.4c0.4,0.7,0.8,1.4,1.3,2c1.3,1.6,2.9,1.8,3,1.8
		c0.1,0,1.5,0.4,2.1,1.6c0.5,1.1,0.5,2.9,0.5,3.6c-0.5-0.1-1,0-1.5,0.1c-0.6,0.2-2.7,0.8-3.5,2.3c0,0,0,0-0.1,0c0,0,0,0,0,0
		c-0.2,0-0.5-0.2-0.8-0.5c0-0.1,0-0.2,0-0.2c0-1.3-1-2.3-2.3-2.4c-0.6-0.7-1-1.5-1.4-2.4c-0.2-0.5-0.4-0.9-0.7-1.4
		c-0.8-1.5-2-2.4-3.6-3.5c-1.2-0.9-1.4-1.1-2.2-2.6c-0.1-0.2-0.3-0.5-0.5-0.8c-0.5-0.9-1.2-1.3-2.1-1.3C4.4,13.1,3.9,13.2,3.6,13.4
		C3.5,13.4,3.5,13.4,3.6,13.4z M17.2,27.5c0,1.1-0.9,2-2,2s-2-0.9-2-2c0-1.1,0.9-2,2-2S17.2,26.4,17.2,27.5z M2.6,38.4
		c-0.1-0.1-0.1-0.1-0.2-0.2C2,38,1.7,37.8,1.5,37.6c-0.1-0.1-0.3-0.2-0.3-0.3c-0.1,0-0.1-0.1-0.2-0.2c0,0,0,0-0.1-0.1
		c0,0,0,0-0.1-0.1c-0.1-0.2-0.2-0.4-0.2-0.6c0-0.2,0-0.4,0-0.5c0,0,0-0.1,0-0.1c0,0,0,0,0.1,0c0.1,0,0.1,0.1,0.2,0.1
		C1,35.9,1,36,1.1,36c0.4,0.2,0.8,0.3,1.2,0.5C2.7,36.6,3,36.8,3.4,37c0.7,0.3,1.3,0.7,1.8,1c0.3,0.2,0.5,0.3,0.7,0.5
		c0.1,0.1,0.2,0.1,0.3,0.2c0.1,0.1,0.2,0.1,0.3,0.2c0,0,0.1,0.1,0.1,0.1c0,0,0.1,0.1,0.1,0.1C6.9,39.1,7,39.1,7,39.2
		c0.1,0.1,0.2,0.2,0.3,0.3c0.2,0.2,0.3,0.2,0.3,0.2l0,0c0,0,0.1,0,0.2,0c0,0,0-0.1,0-0.2c0,0-0.1-0.1-0.3-0.3c0,0-0.1-0.1-0.1-0.2
		c-0.1-0.1-0.1-0.1-0.2-0.2c-0.1-0.1-0.1-0.1-0.2-0.2c0,0-0.1-0.1-0.1-0.1c0,0-0.1-0.1-0.1-0.1c-0.1-0.1-0.2-0.2-0.3-0.2
		c-0.1-0.1-0.2-0.2-0.3-0.2c-0.2-0.2-0.5-0.3-0.7-0.5c-0.5-0.4-1.2-0.7-1.9-1.1c-0.4-0.2-0.7-0.4-1.1-0.5c-0.4-0.2-0.8-0.3-1.2-0.5
		c-0.1,0-0.1,0-0.2-0.1c0,0-0.1,0-0.1-0.1c0,0,0,0-0.1,0l-0.1,0l-0.1,0c0,0,0,0,0,0c-0.1-0.1-0.2-0.2-0.2-0.4c0-0.1,0-0.2,0-0.3
		c0,0,0-0.1,0-0.1c0,0,0,0,0-0.1c0,0,0,0,0-0.1l0,0l0,0l0,0l0,0c0,0,0,0,0-0.1c0,0,0-0.1,0.1-0.1C0.9,33.9,1,33.8,1,33.8
		c0.1-0.1,0.3-0.1,0.5-0.1c0.2,0,0.4,0.1,0.6,0.2c0.4,0.2,0.9,0.4,1.3,0.7c0.4,0.3,0.8,0.6,1.2,0.9c0.4,0.3,0.8,0.6,1.2,1
		c0.4,0.3,0.8,0.7,1.2,1c0.2,0.2,0.4,0.3,0.6,0.5c0.2,0.2,0.4,0.3,0.5,0.5c0.4,0.4,0.7,0.7,1,1.1c0.3,0.4,0.6,0.8,0.8,1.2
		c0.1,0.2,0.1,0.4,0.1,0.6c0,0,0,0.1,0,0.1c0,0,0,0.1,0,0.1c0,0-0.1,0.1-0.2,0.1c-0.2,0-0.4,0-0.6,0c-0.2-0.1-0.4-0.1-0.6-0.2
		c-0.2-0.1-0.4-0.2-0.5-0.3C8.1,40.8,8,40.8,8,40.7c-0.1-0.1-0.2-0.1-0.2-0.2c-0.3-0.3-0.7-0.5-1-0.7c-0.7-0.4-1.4-0.6-2-0.8
		c-0.6-0.2-1.1-0.3-1.6-0.5C2.9,38.5,2.7,38.5,2.6,38.4z M21.6,45.3c-0.1,0-0.2,0.1-0.3,0.1c-0.2,0-0.4,0.1-0.7,0.1
		c-0.9,0.1-1.7,0.1-2.6,0c-0.8-0.1-1.6-0.3-2.4-0.5c-0.4-0.1-0.8-0.3-1.1-0.4c-0.2-0.1-0.4-0.1-0.6-0.2c-0.1,0-0.1,0-0.1,0l-0.2,0
		c-0.1,0-0.2,0-0.3-0.1c-0.4-0.1-0.7-0.3-1-0.4c-0.3-0.1-0.7-0.3-1-0.4c-0.3-0.1-0.7-0.3-1-0.4c-0.2-0.1-0.3-0.1-0.5-0.2
		c-0.1,0-0.2-0.1-0.3-0.1c-0.1,0-0.2,0-0.2-0.1c-0.6-0.2-1.2-0.5-1.8-0.8c-0.3-0.1-0.6-0.3-0.8-0.4c-0.3-0.1-0.5-0.3-0.8-0.4l-0.1,0
		l-0.1-0.1l0,0l0,0l-0.1-0.1c-0.1-0.1-0.2-0.2-0.3-0.2C5,40.3,4.8,40.2,4.6,40c-0.4-0.3-0.8-0.6-1.2-0.9c-0.1,0-0.1-0.1-0.2-0.1
		c0.4,0.1,0.8,0.3,1.3,0.4c0.6,0.2,1.3,0.4,1.9,0.8c0.3,0.2,0.7,0.4,1,0.7c0.1,0.1,0.2,0.1,0.2,0.2c0.1,0.1,0.2,0.1,0.3,0.2
		c0.2,0.1,0.4,0.3,0.6,0.4c0.2,0.1,0.4,0.2,0.7,0.3C9.4,42,9.7,42,10,42c0.1,0,0.3-0.1,0.4-0.2c0.1-0.1,0.1-0.1,0.1-0.2
		c0-0.1,0.1-0.2,0.1-0.2c0-0.2,0-0.3,0-0.4c0-0.1-0.1-0.3-0.1-0.4c-0.2-0.5-0.5-0.9-0.8-1.3c-0.3-0.4-0.7-0.8-1-1.2
		c-0.2-0.2-0.4-0.4-0.6-0.5c-0.2-0.2-0.4-0.4-0.6-0.5c-0.4-0.4-0.8-0.7-1.2-1c-0.4-0.3-0.8-0.7-1.2-1c-0.4-0.3-0.8-0.6-1.3-0.9
		c-0.4-0.3-0.9-0.5-1.4-0.7c-0.3-0.1-0.5-0.2-0.8-0.2c0,0,0,0,0,0c0.1-0.5,0.5-1,0.7-1.2c0,0,0-0.1,0.1-0.1c0-0.1,0.1-0.1,0.1-0.2
		c0.4-0.5,0.9-1.2,0.8-2c0-0.7,0.6-1.3,0.9-1.5c0,0,0,0,0,0c0.2,0.1,0.4,0.1,0.6,0.2c0.3,0.1,0.5,0.1,0.7,0.1
		c0.5,0.1,0.9,0.1,1.3,0.1c0.8,0,1.5,0,2.1,0c0.6,0,1-0.1,1.3-0.1c0.1,0,0.3,0,0.3,0c0.1,0,0.1,0,0.1,0c0.1,0,0.2-0.1,0.2-0.2
		c0-0.1-0.1-0.2-0.2-0.2c0,0-0.1,0-0.4,0C10,28,9.6,28,9,28c-0.6,0-1.3,0-2.1-0.1c-0.4,0-0.8-0.1-1.3-0.1c-0.2,0-0.5-0.1-0.7-0.1
		c-0.2-0.1-0.5-0.1-0.7-0.2l0,0l0,0c0,0,0,0,0,0l-0.1,0c-0.1,0-0.1-0.1-0.2-0.1c-0.1-0.1-0.2-0.1-0.3-0.2c-0.2-0.2-0.3-0.4-0.4-0.6
		c-0.2-0.5-0.4-1.1-0.5-1.7c-0.1-0.3-0.1-0.6-0.2-0.9c-0.1-0.3-0.1-0.6-0.1-1c-0.1-0.7-0.1-1.4-0.2-2.1c0-0.7,0-1.5,0-2.2
		c0-0.2,0-0.4,0-0.6c0.1,0,0.2,0,0.3,0c0.3,0,0.9,0.1,1.3,0.7c0.5,0.7,1.6,1.3,2.4,1.8c0.5,0.3,0.9,0.5,1.1,0.7
		c0.8,0.7,4.1,3.9,4.5,4.8c0.4,0.8,0.8,1.4,0.9,1.6c0,0,0,0.1,0,0.1c0,1.3,1.1,2.4,2.4,2.4c0.1,0,0.1,0,0.2,0l0,0
		c0.1,0.3,0.4,1.4,0.7,2.9c0.4,1.7,0.5,3.1,0.5,3.8c0,0.8,1,2,1.8,2.9c0.4,0.4,0.8,0.9,0.9,1.1c0.1,0.2,0.1,0.4,0.2,0.6
		c0.1,0.6,0.3,1.4,0.9,1.4c0.1,0,0.3,0,0.5,0c0.1,0,0.2,0,0.2,0c0.2,0,0.5,0,0.7,0.2c-0.3,0.5-0.6,0.8-0.6,0.9
		c-0.1,0.1-0.1,0.2,0,0.3c0,0,0.1,0,0.1,0c0.1,0,0.1,0,0.1-0.1c0,0,0.3-0.3,0.6-0.9l0,0l0.1-0.2c0.9-1.7,1.8-5.1-1.4-9
		c-1.8-2.2-2.1-4.5-2-5.1c0,0,0,0,0-0.1c0.6-1.5,2.7-2.7,3.3-2.8c0.7-0.2,1.1-0.7,1.6-0.7h0c1.2,0,2.2,1.6,2.4,2.2
		c0.2,0.5,0.2,1.6,0.2,2.5c0,1.3,0,3.1,0.6,5c0.6,1.9,0.9,3.7,0.6,5.1c-0.8,3.4-4.3,4.1-4.3,4.1c-0.1,0-0.2,0.1-0.2,0.2
		c0,0.1,0.1,0.2,0.2,0.2c0,0,0,0,0,0c0,0,1-0.2,2-0.8c0.6-0.4,1.4-1,2-1.9c-0.2,0.8-0.7,1.8-1.7,2.6c-0.8,0.2-1.7,0.4-2.5,0.7
		C23,44.9,22.8,45,22.6,45c-0.1,0-0.2,0.1-0.3,0.1l-0.1,0l-0.1,0l-0.2,0C21.8,45.2,21.7,45.3,21.6,45.3z M50.3,54.8
		c2.6,0.2,5.6,0,8.4-0.7c-5,1.9-16.1,2.1-25-0.6c-4-1.2-9.1-3.5-11.1-7.7c0.1,0,0.1,0,0.2,0c0.2-0.1,0.5-0.1,0.7-0.2
		c0.2-0.1,0.4-0.1,0.7-0.2c2.3,2.6,4.8,4.5,7.6,5.9c3.3,1.6,7,2.4,11,2.4c0.8,0,1.6,0,2.5-0.1C46.7,54.2,48.4,54.6,50.3,54.8z
		 M41.9,51c0.8,1,1.8,1.8,3,2.4c-4.9,0.3-9.3-0.4-13.2-2.3c-2.8-1.4-5.3-3.3-7.5-5.8c0.6-0.2,1.3-0.4,1.9-0.5c0.5,0.6,2,2,4.1,3.3
		c2.3,1.4,5.8,3,10.2,3C40.9,51,41.4,51,41.9,51C41.9,51,41.9,51,41.9,51z M41.8,50.8c-5,0.4-8.9-1.4-11.4-2.9
		c-2.1-1.3-3.5-2.6-4-3.2c0.7-0.2,1.4-0.4,2.1-0.6c0,0,0,0,0,0c0.6,0.5,2,1.7,4,2.7c2.3,1.2,4.6,1.8,6.9,1.8c0.2,0,0.4,0,0.6,0
		C40.6,49.3,41.2,50.1,41.8,50.8z M39.8,48.5c-2.5,0.1-4.9-0.5-7.3-1.7c-1.9-1-3.3-2.1-3.9-2.7c0.6-0.2,1.2-0.4,1.8-0.5
		c0.7,0.6,2.8,2.4,7,2.4C38.3,46.7,39.1,47.5,39.8,48.5z M35.8,44.6c0.5,0.3,1,0.7,1.6,1.2c-3.9-0.1-5.9-1.7-6.7-2.3
		c0.5-0.1,0.9-0.3,1.4-0.4c0.6-0.2,1.2-0.3,1.8-0.5C34.1,43.1,34.8,44.1,35.8,44.6z M34.4,41.9c-0.4,0.1-0.9,0.2-1.3,0.4
		c-0.3-1.5-1.5-8.8-1.2-11.7c0.3-3.6,0.1-6.4-0.6-8.5c-0.6-1.9-1.5-2.9-2.3-3.9c-0.5-0.6-1-1.2-1.3-1.9c-0.6-1.5-3.1-4.4-5.1-6.5
		c-1.3-1.4-2.4-2.5-3-3c-0.6-0.5-0.9-0.9-1.1-1c0.9-0.1,1.7-0.2,2.6-0.3c0.5-0.1,0.9-0.1,1.4-0.2c1.6,1.1,9.4,9.4,10.4,17.4
		c1.1,8.6,0.5,8.9,1.2,12.9C34.6,38.7,34.5,41.1,34.4,41.9z M30,4.4c0.4,0,0.7,0,1.1,0c0.8,0,1.6,0,2.5,0.1
		c1.3,1.3,7.8,8.2,8.3,11.1c0.6,3.2,1,3.6,0.9,6.9c-0.1,3.3,0.1,4.5,0.6,5.5c0.5,1,1.2,1,0.3,5.2c-0.8,4-0.4,3.3-2.3,6.3
		c-0.4,0.2-0.9,0.4-1.3,0.6c0-0.6-0.1-2.1,0-3.4c0.1-1.6,0.3-4.5,1.2-7.2s0.6-8.6,0-11.5C40.8,15.3,31.4,5.8,30,4.4z M44.4,44.2
		c-2.5-0.6-5.2-2.4-6-3c0.8-0.3,1.6-0.6,2.3-1c0.5,0.5,2.6,2.4,6.1,3.1C46.3,44.1,45.7,44.5,44.4,44.2z M47.5,42.1
		c-0.2,0.4-0.4,0.8-0.5,1.1c-3.4-0.6-5.4-2.4-6-3c0.7-0.3,1.4-0.7,2.1-1.1c0,0,0,0,0,0c0.3,0.4,1.4,1.4,4.9,2.1
		C47.7,41.5,47.6,41.8,47.5,42.1z M48.5,40.2c-0.2,0.3-0.4,0.6-0.5,0.9c-3.5-0.6-4.5-1.7-4.9-2c0.4-0.2,0.7-0.4,1.1-0.7
		c0.2-0.1,0.4-0.2,0.5-0.4c0.4,0.3,1.7,1.2,4.5,1.3C49,39.5,48.7,39.8,48.5,40.2z M50.2,38.2c-0.3,0.3-0.5,0.5-0.8,0.9
		c-2.8,0-4.1-0.9-4.5-1.2c0.2-0.2,0.5-0.4,0.7-0.6c0.3-0.2,0.6-0.5,0.9-0.8c0,0,0.1,0,0.1,0c0.4,0.1,1.3,0.5,2.6,0.5
		c0.7,0,1.5-0.1,2.5-0.4C51.1,37.3,50.6,37.8,50.2,38.2z M52.2,35.5c-0.2,0.3-0.4,0.6-0.5,0.9c-2.6,0.9-4.5,0.2-5.2,0c0,0,0,0,0,0
		c0.1-0.1,0.2-0.2,0.3-0.3c0.4-0.4,0.8-0.8,1.2-1.3c0,0,0.1-0.1,0.1-0.1c0.1,0,0.2,0,0.3,0c0.3,0,0.8,0.1,1.5,0.1
		c0.7,0,1.7-0.1,2.9-0.3C52.6,34.9,52.4,35.2,52.2,35.5z M52.9,34.4c-2.5,0.5-3.8,0.3-4.5,0.2c-0.1,0-0.1,0-0.2,0
		c0.1-0.1,0.2-0.3,0.3-0.4c0.1-0.1,0.2-0.2,0.3-0.4c0.1-0.1,0.2-0.2,0.2-0.4l0.2-0.4l0,0c0.3,0.1,1.2,0.3,2.4,0.3
		c0.6,0,1.4-0.1,2.1-0.3C53.5,33.5,53.2,34,52.9,34.4z M54,33c-2.2,0.6-4.1,0.2-4.6,0l0.1-0.2c0.2-0.2,0.3-0.5,0.5-0.7
		c0.2-0.2,0.3-0.5,0.5-0.7c0.4,0.1,1.9,0.5,3.4,0.5c0.5,0,1,0,1.4-0.1C54.9,32,54.4,32.4,54,33z M53.4,29.7c0.4,0.2,0.8,0.3,1.6,0.2
		c0.7-0.1,1.4-0.4,2.3-0.8c0.1,0,0.1,0,0.2,0c0,0,0.1,0.1,0,0.2c-0.3,0.4-0.8,1-1.5,1.6c-0.2,0.2-0.4,0.4-0.6,0.6
		c-1.9,0.4-4.3-0.1-4.9-0.3c0.1-0.2,0.3-0.4,0.4-0.6c0.2-0.4,0.5-0.7,0.7-1.1C52.5,29.3,53,29.5,53.4,29.7z M54.7,23.6
		c0,0.1,0,0.3-0.1,0.4c0,0,0,0.1,0,0.1l0,0c0,0,0,0,0,0c0,0,0,0,0,0l0,0l-0.1,0.1c-0.3,0.5-0.6,1-0.9,1.5c-0.1,0.2-0.2,0.3-0.3,0.5
		c0-0.4,0-1.9,0-2.5c0-0.7-0.3-1.5-0.4-2.9c-0.1-1.3-0.1-2.4-0.5-3.9C52,15.6,52,15.5,51.3,14c-0.4-0.9-0.8-1.9-1.1-2.5
		c0.1,0.1,0.3,0.2,0.4,0.2l0.8,0.4c0.3,0.1,0.5,0.3,0.8,0.4l0.1,0.1c0,0,0,0,0,0l0,0c0,0,0,0,0.1,0l0.1,0.1c0.1,0.1,0.2,0.2,0.2,0.3
		c0.1,0.2,0.3,0.5,0.4,0.8c0.2,0.5,0.4,1.1,0.5,1.7c0.1,0.6,0.3,1.2,0.4,1.7c0.1,0.6,0.2,1.2,0.3,1.8c0.1,0.6,0.2,1.2,0.2,1.8
		c0.1,0.6,0.1,1.2,0.1,1.8C54.7,23,54.7,23.3,54.7,23.6z M64.9,32.5c-1.6,0.1-7.5-6.1-9.6-8.6L55,24.1c0-0.2,0.1-0.3,0.1-0.5
		c0-0.3,0-0.5,0-0.8c0.4,0.4,1.1,1.2,2,1.9c1.1,1,2.8,2.2,4.3,2.7c1,1.7,2.1,3,2.8,3.9c0.4,0.5,0.7,0.9,0.8,1.1
		C65,32.4,65,32.4,64.9,32.5z"/>
	<circle class="st1" cx="14.9" cy="27.6" r="1.2"/>
</g>
</svg>
